<svg width="1440" height="33" viewBox="0 0 1440 33" fill="none" xmlns="http://www.w3.org/2000/svg">
<path d="M6.5 19C6.5 18.1716 5.82843 17.5 5 17.5C4.17157 17.5 3.5 18.1716 3.5 19H6.5ZM3.5 27.9776V29.4776H6.5V27.9776H3.5ZM3.5 19L3.5 27.9776H6.5L6.5 19H3.5Z" fill="#DF6489"/>
<line y1="-2" x2="10" y2="-2" transform="matrix(0.999994 -0.00347806 0.00349542 0.999994 0 33)" stroke="#07273D" stroke-width="4"/>
<path d="M116.5 19C116.5 18.1716 115.828 17.5 115 17.5C114.172 17.5 113.5 18.1716 113.5 19H116.5ZM113.5 27.9776V29.4776H116.5V27.9776H113.5ZM113.5 19V27.9776H116.5V19H113.5Z" fill="#DF6489"/>
<line y1="-2" x2="10" y2="-2" transform="matrix(0.999994 -0.00347806 0.00349542 0.999994 110 33)" stroke="#07273D" stroke-width="4"/>
<path d="M185.5 19C185.5 18.1716 184.828 17.5 184 17.5C183.172 17.5 182.5 18.1716 182.5 19H185.5ZM182.5 27.9776V29.4776H185.5V27.9776H182.5ZM182.5 19V27.9776H185.5V19H182.5Z" fill="#DF6489"/>
<line y1="-2" x2="10" y2="-2" transform="matrix(0.999994 -0.00347806 0.00349542 0.999994 179 33)" stroke="#07273D" stroke-width="4"/>
<path d="M175.5 19C175.5 18.1716 174.828 17.5 174 17.5C173.172 17.5 172.5 18.1716 172.5 19H175.5ZM172.5 27.9776V29.4776H175.5V27.9776H172.5ZM172.5 19V27.9776H175.5V19H172.5Z" fill="#DF6489"/>
<line y1="-2" x2="10" y2="-2" transform="matrix(0.999994 -0.00347806 0.00349542 0.999994 169 33)" stroke="#07273D" stroke-width="4"/>
<path d="M166.5 19C166.5 18.1716 165.828 17.5 165 17.5C164.172 17.5 163.5 18.1716 163.5 19H166.5ZM163.5 27.9776V29.4776H166.5V27.9776H163.5ZM163.5 19V27.9776H166.5V19H163.5Z" fill="#DF6489"/>
<line y1="-2" x2="10" y2="-2" transform="matrix(0.999994 -0.00347806 0.00349542 0.999994 160 33)" stroke="#07273D" stroke-width="4"/>
<path d="M156.5 19C156.5 18.1716 155.828 17.5 155 17.5C154.172 17.5 153.5 18.1716 153.5 19H156.5ZM153.5 27.9776V29.4776H156.5V27.9776H153.5ZM153.5 19V27.9776H156.5V19H153.5Z" fill="#DF6489"/>
<line y1="-2" x2="10" y2="-2" transform="matrix(0.999994 -0.00347806 0.00349542 0.999994 150 33)" stroke="#07273D" stroke-width="4"/>
<path d="M146.5 19C146.5 18.1716 145.828 17.5 145 17.5C144.172 17.5 143.5 18.1716 143.5 19H146.5ZM143.5 27.9776V29.4776H146.5V27.9776H143.5ZM143.5 19V27.9776H146.5V19H143.5Z" fill="#DF6489"/>
<line y1="-2" x2="10" y2="-2" transform="matrix(0.999994 -0.00347806 0.00349542 0.999994 140 33)" stroke="#07273D" stroke-width="4"/>
<path d="M136.5 19C136.5 18.1716 135.828 17.5 135 17.5C134.172 17.5 133.5 18.1716 133.5 19H136.5ZM133.5 27.9776V29.4776H136.5V27.9776H133.5ZM133.5 19V27.9776H136.5V19H133.5Z" fill="#DF6489"/>
<line y1="-2" x2="10" y2="-2" transform="matrix(0.999994 -0.00347806 0.00349542 0.999994 130 33)" stroke="#07273D" stroke-width="4"/>
<path d="M126.5 19C126.5 18.1716 125.828 17.5 125 17.5C124.172 17.5 123.5 18.1716 123.5 19H126.5ZM123.5 27.9776V29.4776H126.5V27.9776H123.5ZM123.5 19V27.9776H126.5V19H123.5Z" fill="#DF6489"/>
<line y1="-2" x2="10" y2="-2" transform="matrix(0.999994 -0.00347806 0.00349542 0.999994 120 33)" stroke="#07273D" stroke-width="4"/>
<path d="M106.5 19C106.5 18.1716 105.828 17.5 105 17.5C104.172 17.5 103.5 18.1716 103.5 19H106.5ZM103.5 27.9776V29.4776H106.5V27.9776H103.5ZM103.5 19V27.9776H106.5V19H103.5Z" fill="#DF6489"/>
<line y1="-2" x2="10" y2="-2" transform="matrix(0.999994 -0.00347806 0.00349542 0.999994 100 33)" stroke="#07273D" stroke-width="4"/>
<path d="M96.5 19C96.5 18.1716 95.8284 17.5 95 17.5C94.1716 17.5 93.5 18.1716 93.5 19H96.5ZM93.5 27.9776V29.4776H96.5V27.9776H93.5ZM93.5 19V27.9776H96.5V19H93.5Z" fill="#DF6489"/>
<line y1="-2" x2="10" y2="-2" transform="matrix(0.999994 -0.00347806 0.00349542 0.999994 90 33)" stroke="#07273D" stroke-width="4"/>
<path d="M86.5 19C86.5 18.1716 85.8284 17.5 85 17.5C84.1716 17.5 83.5 18.1716 83.5 19H86.5ZM83.5 27.9776V29.4776H86.5V27.9776H83.5ZM83.5 19V27.9776H86.5V19H83.5Z" fill="#DF6489"/>
<line y1="-2" x2="10" y2="-2" transform="matrix(0.999994 -0.00347806 0.00349542 0.999994 80 33)" stroke="#07273D" stroke-width="4"/>
<path d="M76.5 19C76.5 18.1716 75.8284 17.5 75 17.5C74.1716 17.5 73.5 18.1716 73.5 19H76.5ZM73.5 27.9776V29.4776H76.5V27.9776H73.5ZM73.5 19V27.9776H76.5V19H73.5Z" fill="#DF6489"/>
<line y1="-2" x2="10" y2="-2" transform="matrix(0.999994 -0.00347806 0.00349542 0.999994 70 33)" stroke="#07273D" stroke-width="4"/>
<path d="M66.5 19C66.5 18.1716 65.8284 17.5 65 17.5C64.1716 17.5 63.5 18.1716 63.5 19H66.5ZM63.5 27.9776V29.4776H66.5V27.9776H63.5ZM63.5 19V27.9776H66.5V19H63.5Z" fill="#DF6489"/>
<line y1="-2" x2="10" y2="-2" transform="matrix(0.999994 -0.00347806 0.00349542 0.999994 60 33)" stroke="#07273D" stroke-width="4"/>
<path d="M56.5 19C56.5 18.1716 55.8284 17.5 55 17.5C54.1716 17.5 53.5 18.1716 53.5 19H56.5ZM53.5 27.9776V29.4776H56.5V27.9776H53.5ZM53.5 19V27.9776H56.5V19H53.5Z" fill="#DF6489"/>
<line y1="-2" x2="10" y2="-2" transform="matrix(0.999994 -0.00347806 0.00349542 0.999994 50 33)" stroke="#07273D" stroke-width="4"/>
<path d="M46.5 19C46.5 18.1716 45.8284 17.5 45 17.5C44.1716 17.5 43.5 18.1716 43.5 19H46.5ZM43.5 27.9776V29.4776H46.5V27.9776H43.5ZM43.5 19V27.9776H46.5V19H43.5Z" fill="#DF6489"/>
<line y1="-2" x2="10" y2="-2" transform="matrix(0.999994 -0.00347806 0.00349542 0.999994 40 33)" stroke="#07273D" stroke-width="4"/>
<path d="M36.5 19C36.5 18.1716 35.8284 17.5 35 17.5C34.1716 17.5 33.5 18.1716 33.5 19H36.5ZM33.5 27.9776V29.4776H36.5V27.9776H33.5ZM33.5 19V27.9776H36.5V19H33.5Z" fill="#DF6489"/>
<line y1="-2" x2="10" y2="-2" transform="matrix(0.999994 -0.00347806 0.00349542 0.999994 30 33)" stroke="#07273D" stroke-width="4"/>
<path d="M26.5 19C26.5 18.1716 25.8284 17.5 25 17.5C24.1716 17.5 23.5 18.1716 23.5 19H26.5ZM23.5 27.9776L23.5 29.4776H26.5L26.5 27.9776H23.5ZM23.5 19V27.9776H26.5V19H23.5Z" fill="#DF6489"/>
<line y1="-2" x2="10" y2="-2" transform="matrix(0.999994 -0.00347806 0.00349542 0.999994 20 33)" stroke="#07273D" stroke-width="4"/>
<path d="M16.5 19C16.5 18.1716 15.8284 17.5 15 17.5C14.1716 17.5 13.5 18.1716 13.5 19H16.5ZM13.5 27.9776V29.4776H16.5L16.5 27.9776H13.5ZM13.5 19L13.5 27.9776H16.5V19H13.5Z" fill="#DF6489"/>
<line y1="-2" x2="10" y2="-2" transform="matrix(0.999994 -0.00347806 0.00349542 0.999994 10 33)" stroke="#07273D" stroke-width="4"/>
<path d="M195.5 19C195.5 18.1716 194.828 17.5 194 17.5C193.172 17.5 192.5 18.1716 192.5 19H195.5ZM192.5 27.9776V29.4776H195.5V27.9776H192.5ZM192.5 19V27.9776H195.5V19H192.5Z" fill="#DF6489"/>
<line y1="-2" x2="10" y2="-2" transform="matrix(0.999994 -0.00347806 0.00349542 0.999994 189 33)" stroke="#07273D" stroke-width="4"/>
<path d="M305.5 19C305.5 18.1716 304.828 17.5 304 17.5C303.172 17.5 302.5 18.1716 302.5 19H305.5ZM302.5 27.9776V29.4776H305.5V27.9776H302.5ZM302.5 19V27.9776H305.5V19H302.5Z" fill="#DF6489"/>
<line y1="-2" x2="10" y2="-2" transform="matrix(0.999994 -0.00347806 0.00349542 0.999994 299 33)" stroke="#07273D" stroke-width="4"/>
<path d="M374.5 19C374.5 18.1716 373.828 17.5 373 17.5C372.172 17.5 371.5 18.1716 371.5 19H374.5ZM371.5 27.9776V29.4776H374.5V27.9776H371.5ZM371.5 19V27.9776H374.5V19H371.5Z" fill="#DF6489"/>
<line y1="-2" x2="10" y2="-2" transform="matrix(0.999994 -0.00347806 0.00349542 0.999994 368 33)" stroke="#07273D" stroke-width="4"/>
<path d="M364.5 19C364.5 18.1716 363.828 17.5 363 17.5C362.172 17.5 361.5 18.1716 361.5 19H364.5ZM361.5 27.9776V29.4776H364.5V27.9776H361.5ZM361.5 19V27.9776H364.5V19H361.5Z" fill="#DF6489"/>
<line y1="-2" x2="10" y2="-2" transform="matrix(0.999994 -0.00347806 0.00349542 0.999994 358 33)" stroke="#07273D" stroke-width="4"/>
<path d="M355.5 19C355.5 18.1716 354.828 17.5 354 17.5C353.172 17.5 352.5 18.1716 352.5 19H355.5ZM352.5 27.9776V29.4776H355.5V27.9776H352.5ZM352.5 19V27.9776H355.5V19H352.5Z" fill="#DF6489"/>
<line y1="-2" x2="10" y2="-2" transform="matrix(0.999994 -0.00347806 0.00349542 0.999994 349 33)" stroke="#07273D" stroke-width="4"/>
<path d="M345.5 19C345.5 18.1716 344.828 17.5 344 17.5C343.172 17.5 342.5 18.1716 342.5 19H345.5ZM342.5 27.9776V29.4776H345.5V27.9776H342.5ZM342.5 19V27.9776H345.5V19H342.5Z" fill="#DF6489"/>
<line y1="-2" x2="10" y2="-2" transform="matrix(0.999994 -0.00347806 0.00349542 0.999994 339 33)" stroke="#07273D" stroke-width="4"/>
<path d="M335.5 19C335.5 18.1716 334.828 17.5 334 17.5C333.172 17.5 332.5 18.1716 332.5 19H335.5ZM332.5 27.9776V29.4776H335.5V27.9776H332.5ZM332.5 19V27.9776H335.5V19H332.5Z" fill="#DF6489"/>
<line y1="-2" x2="10" y2="-2" transform="matrix(0.999994 -0.00347806 0.00349542 0.999994 329 33)" stroke="#07273D" stroke-width="4"/>
<path d="M325.5 19C325.5 18.1716 324.828 17.5 324 17.5C323.172 17.5 322.5 18.1716 322.5 19H325.5ZM322.5 27.9776V29.4776H325.5V27.9776H322.5ZM322.5 19V27.9776H325.5V19H322.5Z" fill="#DF6489"/>
<line y1="-2" x2="10" y2="-2" transform="matrix(0.999994 -0.00347806 0.00349542 0.999994 319 33)" stroke="#07273D" stroke-width="4"/>
<path d="M315.5 19C315.5 18.1716 314.828 17.5 314 17.5C313.172 17.5 312.5 18.1716 312.5 19H315.5ZM312.5 27.9776V29.4776H315.5V27.9776H312.5ZM312.5 19V27.9776H315.5V19H312.5Z" fill="#DF6489"/>
<line y1="-2" x2="10" y2="-2" transform="matrix(0.999994 -0.00347806 0.00349542 0.999994 309 33)" stroke="#07273D" stroke-width="4"/>
<path d="M295.5 19C295.5 18.1716 294.828 17.5 294 17.5C293.172 17.5 292.5 18.1716 292.5 19H295.5ZM292.5 27.9776V29.4776H295.5V27.9776H292.5ZM292.5 19V27.9776H295.5V19H292.5Z" fill="#DF6489"/>
<line y1="-2" x2="10" y2="-2" transform="matrix(0.999994 -0.00347806 0.00349542 0.999994 289 33)" stroke="#07273D" stroke-width="4"/>
<path d="M285.5 19C285.5 18.1716 284.828 17.5 284 17.5C283.172 17.5 282.5 18.1716 282.5 19H285.5ZM282.5 27.9776V29.4776H285.5V27.9776H282.5ZM282.5 19V27.9776H285.5V19H282.5Z" fill="#DF6489"/>
<line y1="-2" x2="10" y2="-2" transform="matrix(0.999994 -0.00347806 0.00349542 0.999994 279 33)" stroke="#07273D" stroke-width="4"/>
<path d="M275.5 19C275.5 18.1716 274.828 17.5 274 17.5C273.172 17.5 272.5 18.1716 272.5 19H275.5ZM272.5 27.9776V29.4776H275.5V27.9776H272.5ZM272.5 19V27.9776H275.5V19H272.5Z" fill="#DF6489"/>
<line y1="-2" x2="10" y2="-2" transform="matrix(0.999994 -0.00347806 0.00349542 0.999994 269 33)" stroke="#07273D" stroke-width="4"/>
<path d="M265.5 19C265.5 18.1716 264.828 17.5 264 17.5C263.172 17.5 262.5 18.1716 262.5 19H265.5ZM262.5 27.9776V29.4776H265.5V27.9776H262.5ZM262.5 19V27.9776H265.5V19H262.5Z" fill="#DF6489"/>
<line y1="-2" x2="10" y2="-2" transform="matrix(0.999994 -0.00347806 0.00349542 0.999994 259 33)" stroke="#07273D" stroke-width="4"/>
<path d="M255.5 19C255.5 18.1716 254.828 17.5 254 17.5C253.172 17.5 252.5 18.1716 252.5 19H255.5ZM252.5 27.9776V29.4776H255.5V27.9776H252.5ZM252.5 19V27.9776H255.5V19H252.5Z" fill="#DF6489"/>
<line y1="-2" x2="10" y2="-2" transform="matrix(0.999994 -0.00347806 0.00349542 0.999994 249 33)" stroke="#07273D" stroke-width="4"/>
<path d="M245.5 19C245.5 18.1716 244.828 17.5 244 17.5C243.172 17.5 242.5 18.1716 242.5 19H245.5ZM242.5 27.9776V29.4776H245.5V27.9776H242.5ZM242.5 19V27.9776H245.5V19H242.5Z" fill="#DF6489"/>
<line y1="-2" x2="10" y2="-2" transform="matrix(0.999994 -0.00347806 0.00349542 0.999994 239 33)" stroke="#07273D" stroke-width="4"/>
<path d="M235.5 19C235.5 18.1716 234.828 17.5 234 17.5C233.172 17.5 232.5 18.1716 232.5 19H235.5ZM232.5 27.9776V29.4776H235.5V27.9776H232.5ZM232.5 19V27.9776H235.5V19H232.5Z" fill="#DF6489"/>
<line y1="-2" x2="10" y2="-2" transform="matrix(0.999994 -0.00347806 0.00349542 0.999994 229 33)" stroke="#07273D" stroke-width="4"/>
<path d="M225.5 19C225.5 18.1716 224.828 17.5 224 17.5C223.172 17.5 222.5 18.1716 222.5 19H225.5ZM222.5 27.9776V29.4776H225.5V27.9776H222.5ZM222.5 19V27.9776H225.5V19H222.5Z" fill="#DF6489"/>
<line y1="-2" x2="10" y2="-2" transform="matrix(0.999994 -0.00347806 0.00349542 0.999994 219 33)" stroke="#07273D" stroke-width="4"/>
<path d="M215.5 19C215.5 18.1716 214.828 17.5 214 17.5C213.172 17.5 212.5 18.1716 212.5 19H215.5ZM212.5 27.9776V29.4776H215.5V27.9776H212.5ZM212.5 19V27.9776H215.5V19H212.5Z" fill="#DF6489"/>
<line y1="-2" x2="10" y2="-2" transform="matrix(0.999994 -0.00347806 0.00349542 0.999994 209 33)" stroke="#07273D" stroke-width="4"/>
<path d="M205.5 19C205.5 18.1716 204.828 17.5 204 17.5C203.172 17.5 202.5 18.1716 202.5 19H205.5ZM202.5 27.9776V29.4776H205.5V27.9776H202.5ZM202.5 19V27.9776H205.5V19H202.5Z" fill="#DF6489"/>
<line y1="-2" x2="10" y2="-2" transform="matrix(0.999994 -0.00347806 0.00349542 0.999994 199 33)" stroke="#07273D" stroke-width="4"/>
<path d="M384.5 19C384.5 18.1716 383.828 17.5 383 17.5C382.172 17.5 381.5 18.1716 381.5 19H384.5ZM381.5 27.9776V29.4776H384.5V27.9776H381.5ZM381.5 19V27.9776H384.5V19H381.5Z" fill="#DF6489"/>
<line y1="-2" x2="10" y2="-2" transform="matrix(0.999994 -0.00347806 0.00349542 0.999994 378 33)" stroke="#07273D" stroke-width="4"/>
<path d="M494.5 19C494.5 18.1716 493.828 17.5 493 17.5C492.172 17.5 491.5 18.1716 491.5 19H494.5ZM491.5 27.9776V29.4776H494.5V27.9776H491.5ZM491.5 19V27.9776H494.5V19H491.5Z" fill="#DF6489"/>
<line y1="-2" x2="10" y2="-2" transform="matrix(0.999994 -0.00347806 0.00349542 0.999994 488 33)" stroke="#07273D" stroke-width="4"/>
<path d="M563.5 19C563.5 18.1716 562.828 17.5 562 17.5C561.172 17.5 560.5 18.1716 560.5 19H563.5ZM560.5 27.9776V29.4776H563.5V27.9776H560.5ZM560.5 19V27.9776H563.5V19H560.5Z" fill="#DF6489"/>
<line y1="-2" x2="10" y2="-2" transform="matrix(0.999994 -0.00347806 0.00349542 0.999994 557 33)" stroke="#07273D" stroke-width="4"/>
<path d="M553.5 19C553.5 18.1716 552.828 17.5 552 17.5C551.172 17.5 550.5 18.1716 550.5 19H553.5ZM550.5 27.9776V29.4776H553.5V27.9776H550.5ZM550.5 19V27.9776H553.5V19H550.5Z" fill="#DF6489"/>
<line y1="-2" x2="10" y2="-2" transform="matrix(0.999994 -0.00347806 0.00349542 0.999994 547 33)" stroke="#07273D" stroke-width="4"/>
<path d="M544.5 19C544.5 18.1716 543.828 17.5 543 17.5C542.172 17.5 541.5 18.1716 541.5 19H544.5ZM541.5 27.9776V29.4776H544.5V27.9776H541.5ZM541.5 19V27.9776H544.5V19H541.5Z" fill="#DF6489"/>
<line y1="-2" x2="10" y2="-2" transform="matrix(0.999994 -0.00347806 0.00349542 0.999994 538 33)" stroke="#07273D" stroke-width="4"/>
<path d="M534.5 19C534.5 18.1716 533.828 17.5 533 17.5C532.172 17.5 531.5 18.1716 531.5 19H534.5ZM531.5 27.9776V29.4776H534.5V27.9776H531.5ZM531.5 19V27.9776H534.5V19H531.5Z" fill="#DF6489"/>
<line y1="-2" x2="10" y2="-2" transform="matrix(0.999994 -0.00347806 0.00349542 0.999994 528 33)" stroke="#07273D" stroke-width="4"/>
<path d="M524.5 19C524.5 18.1716 523.828 17.5 523 17.5C522.172 17.5 521.5 18.1716 521.5 19H524.5ZM521.5 27.9776V29.4776H524.5V27.9776H521.5ZM521.5 19V27.9776H524.5V19H521.5Z" fill="#DF6489"/>
<line y1="-2" x2="10" y2="-2" transform="matrix(0.999994 -0.00347806 0.00349542 0.999994 518 33)" stroke="#07273D" stroke-width="4"/>
<path d="M514.5 19C514.5 18.1716 513.828 17.5 513 17.5C512.172 17.5 511.5 18.1716 511.5 19H514.5ZM511.5 27.9776V29.4776H514.5V27.9776H511.5ZM511.5 19V27.9776H514.5V19H511.5Z" fill="#DF6489"/>
<line y1="-2" x2="10" y2="-2" transform="matrix(0.999994 -0.00347806 0.00349542 0.999994 508 33)" stroke="#07273D" stroke-width="4"/>
<path d="M504.5 19C504.5 18.1716 503.828 17.5 503 17.5C502.172 17.5 501.5 18.1716 501.5 19H504.5ZM501.5 27.9776V29.4776H504.5V27.9776H501.5ZM501.5 19V27.9776H504.5V19H501.5Z" fill="#DF6489"/>
<line y1="-2" x2="10" y2="-2" transform="matrix(0.999994 -0.00347806 0.00349542 0.999994 498 33)" stroke="#07273D" stroke-width="4"/>
<path d="M484.5 19C484.5 18.1716 483.828 17.5 483 17.5C482.172 17.5 481.5 18.1716 481.5 19H484.5ZM481.5 27.9776V29.4776H484.5V27.9776H481.5ZM481.5 19V27.9776H484.5V19H481.5Z" fill="#DF6489"/>
<line y1="-2" x2="10" y2="-2" transform="matrix(0.999994 -0.00347806 0.00349542 0.999994 478 33)" stroke="#07273D" stroke-width="4"/>
<path d="M474.5 19C474.5 18.1716 473.828 17.5 473 17.5C472.172 17.5 471.5 18.1716 471.5 19H474.5ZM471.5 27.9776V29.4776H474.5V27.9776H471.5ZM471.5 19V27.9776H474.5V19H471.5Z" fill="#DF6489"/>
<line y1="-2" x2="10" y2="-2" transform="matrix(0.999994 -0.00347806 0.00349542 0.999994 468 33)" stroke="#07273D" stroke-width="4"/>
<path d="M464.5 19C464.5 18.1716 463.828 17.5 463 17.5C462.172 17.5 461.5 18.1716 461.5 19H464.5ZM461.5 27.9776V29.4776H464.5V27.9776H461.5ZM461.5 19V27.9776H464.5V19H461.5Z" fill="#DF6489"/>
<line y1="-2" x2="10" y2="-2" transform="matrix(0.999994 -0.00347806 0.00349542 0.999994 458 33)" stroke="#07273D" stroke-width="4"/>
<path d="M454.5 19C454.5 18.1716 453.828 17.5 453 17.5C452.172 17.5 451.5 18.1716 451.5 19H454.5ZM451.5 27.9776V29.4776H454.5V27.9776H451.5ZM451.5 19V27.9776H454.5V19H451.5Z" fill="#DF6489"/>
<line y1="-2" x2="10" y2="-2" transform="matrix(0.999994 -0.00347806 0.00349542 0.999994 448 33)" stroke="#07273D" stroke-width="4"/>
<path d="M444.5 19C444.5 18.1716 443.828 17.5 443 17.5C442.172 17.5 441.5 18.1716 441.5 19H444.5ZM441.5 27.9776V29.4776H444.5V27.9776H441.5ZM441.5 19V27.9776H444.5V19H441.5Z" fill="#DF6489"/>
<line y1="-2" x2="10" y2="-2" transform="matrix(0.999994 -0.00347806 0.00349542 0.999994 438 33)" stroke="#07273D" stroke-width="4"/>
<path d="M434.5 19C434.5 18.1716 433.828 17.5 433 17.5C432.172 17.5 431.5 18.1716 431.5 19H434.5ZM431.5 27.9776V29.4776H434.5V27.9776H431.5ZM431.5 19V27.9776H434.5V19H431.5Z" fill="#DF6489"/>
<line y1="-2" x2="10" y2="-2" transform="matrix(0.999994 -0.00347806 0.00349542 0.999994 428 33)" stroke="#07273D" stroke-width="4"/>
<path d="M424.5 19C424.5 18.1716 423.828 17.5 423 17.5C422.172 17.5 421.5 18.1716 421.5 19H424.5ZM421.5 27.9776V29.4776H424.5V27.9776H421.5ZM421.5 19V27.9776H424.5V19H421.5Z" fill="#DF6489"/>
<line y1="-2" x2="10" y2="-2" transform="matrix(0.999994 -0.00347806 0.00349542 0.999994 418 33)" stroke="#07273D" stroke-width="4"/>
<path d="M414.5 19C414.5 18.1716 413.828 17.5 413 17.5C412.172 17.5 411.5 18.1716 411.5 19H414.5ZM411.5 27.9776V29.4776H414.5V27.9776H411.5ZM411.5 19V27.9776H414.5V19H411.5Z" fill="#DF6489"/>
<line y1="-2" x2="10" y2="-2" transform="matrix(0.999994 -0.00347806 0.00349542 0.999994 408 33)" stroke="#07273D" stroke-width="4"/>
<path d="M404.5 19C404.5 18.1716 403.828 17.5 403 17.5C402.172 17.5 401.5 18.1716 401.5 19H404.5ZM401.5 27.9776V29.4776H404.5V27.9776H401.5ZM401.5 19V27.9776H404.5V19H401.5Z" fill="#DF6489"/>
<line y1="-2" x2="10" y2="-2" transform="matrix(0.999994 -0.00347806 0.00349542 0.999994 398 33)" stroke="#07273D" stroke-width="4"/>
<path d="M394.5 19C394.5 18.1716 393.828 17.5 393 17.5C392.172 17.5 391.5 18.1716 391.5 19H394.5ZM391.5 27.9776V29.4776H394.5V27.9776H391.5ZM391.5 19V27.9776H394.5V19H391.5Z" fill="#DF6489"/>
<line y1="-2" x2="10" y2="-2" transform="matrix(0.999994 -0.00347806 0.00349542 0.999994 388 33)" stroke="#07273D" stroke-width="4"/>
<path d="M573.5 19C573.5 18.1716 572.828 17.5 572 17.5C571.172 17.5 570.5 18.1716 570.5 19H573.5ZM570.5 27.9776V29.4776H573.5V27.9776H570.5ZM570.5 19V27.9776H573.5V19H570.5Z" fill="#DF6489"/>
<line y1="-2" x2="10" y2="-2" transform="matrix(0.999994 -0.00347806 0.00349542 0.999994 567 33)" stroke="#07273D" stroke-width="4"/>
<path d="M683.5 19C683.5 18.1716 682.828 17.5 682 17.5C681.172 17.5 680.5 18.1716 680.5 19H683.5ZM680.5 27.9776V29.4776H683.5V27.9776H680.5ZM680.5 19V27.9776H683.5V19H680.5Z" fill="#DF6489"/>
<line y1="-2" x2="10" y2="-2" transform="matrix(0.999994 -0.00347806 0.00349542 0.999994 677 33)" stroke="#07273D" stroke-width="4"/>
<path d="M752.5 19C752.5 18.1716 751.828 17.5 751 17.5C750.172 17.5 749.5 18.1716 749.5 19H752.5ZM749.5 27.9776V29.4776H752.5V27.9776H749.5ZM749.5 19V27.9776H752.5V19H749.5Z" fill="#DF6489"/>
<line y1="-2" x2="10" y2="-2" transform="matrix(0.999994 -0.00347806 0.00349542 0.999994 746 33)" stroke="#07273D" stroke-width="4"/>
<path d="M742.5 19C742.5 18.1716 741.828 17.5 741 17.5C740.172 17.5 739.5 18.1716 739.5 19H742.5ZM739.5 27.9776V29.4776H742.5V27.9776H739.5ZM739.5 19V27.9776H742.5V19H739.5Z" fill="#DF6489"/>
<line y1="-2" x2="10" y2="-2" transform="matrix(0.999994 -0.00347806 0.00349542 0.999994 736 33)" stroke="#07273D" stroke-width="4"/>
<path d="M733.5 19C733.5 18.1716 732.828 17.5 732 17.5C731.172 17.5 730.5 18.1716 730.5 19H733.5ZM730.5 27.9776V29.4776H733.5V27.9776H730.5ZM730.5 19V27.9776H733.5V19H730.5Z" fill="#DF6489"/>
<line y1="-2" x2="10" y2="-2" transform="matrix(0.999994 -0.00347806 0.00349542 0.999994 727 33)" stroke="#07273D" stroke-width="4"/>
<path d="M723.5 19C723.5 18.1716 722.828 17.5 722 17.5C721.172 17.5 720.5 18.1716 720.5 19H723.5ZM720.5 27.9776V29.4776H723.5V27.9776H720.5ZM720.5 19V27.9776H723.5V19H720.5Z" fill="#DF6489"/>
<line y1="-2" x2="10" y2="-2" transform="matrix(0.999994 -0.00347806 0.00349542 0.999994 717 33)" stroke="#07273D" stroke-width="4"/>
<path d="M713.5 19C713.5 18.1716 712.828 17.5 712 17.5C711.172 17.5 710.5 18.1716 710.5 19H713.5ZM710.5 27.9776V29.4776H713.5V27.9776H710.5ZM710.5 19V27.9776H713.5V19H710.5Z" fill="#DF6489"/>
<line y1="-2" x2="10" y2="-2" transform="matrix(0.999994 -0.00347806 0.00349542 0.999994 707 33)" stroke="#07273D" stroke-width="4"/>
<path d="M703.5 19C703.5 18.1716 702.828 17.5 702 17.5C701.172 17.5 700.5 18.1716 700.5 19H703.5ZM700.5 27.9776V29.4776H703.5V27.9776H700.5ZM700.5 19V27.9776H703.5V19H700.5Z" fill="#DF6489"/>
<line y1="-2" x2="10" y2="-2" transform="matrix(0.999994 -0.00347806 0.00349542 0.999994 697 33)" stroke="#07273D" stroke-width="4"/>
<path d="M693.5 19C693.5 18.1716 692.828 17.5 692 17.5C691.172 17.5 690.5 18.1716 690.5 19H693.5ZM690.5 27.9776V29.4776H693.5V27.9776H690.5ZM690.5 19V27.9776H693.5V19H690.5Z" fill="#DF6489"/>
<line y1="-2" x2="10" y2="-2" transform="matrix(0.999994 -0.00347806 0.00349542 0.999994 687 33)" stroke="#07273D" stroke-width="4"/>
<path d="M673.5 19C673.5 18.1716 672.828 17.5 672 17.5C671.172 17.5 670.5 18.1716 670.5 19H673.5ZM670.5 27.9776V29.4776H673.5V27.9776H670.5ZM670.5 19V27.9776H673.5V19H670.5Z" fill="#DF6489"/>
<line y1="-2" x2="10" y2="-2" transform="matrix(0.999994 -0.00347806 0.00349542 0.999994 667 33)" stroke="#07273D" stroke-width="4"/>
<path d="M663.5 19C663.5 18.1716 662.828 17.5 662 17.5C661.172 17.5 660.5 18.1716 660.5 19H663.5ZM660.5 27.9776V29.4776H663.5V27.9776H660.5ZM660.5 19V27.9776H663.5V19H660.5Z" fill="#DF6489"/>
<line y1="-2" x2="10" y2="-2" transform="matrix(0.999994 -0.00347806 0.00349542 0.999994 657 33)" stroke="#07273D" stroke-width="4"/>
<path d="M653.5 19C653.5 18.1716 652.828 17.5 652 17.5C651.172 17.5 650.5 18.1716 650.5 19H653.5ZM650.5 27.9776V29.4776H653.5V27.9776H650.5ZM650.5 19V27.9776H653.5V19H650.5Z" fill="#DF6489"/>
<line y1="-2" x2="10" y2="-2" transform="matrix(0.999994 -0.00347806 0.00349542 0.999994 647 33)" stroke="#07273D" stroke-width="4"/>
<path d="M643.5 19C643.5 18.1716 642.828 17.5 642 17.5C641.172 17.5 640.5 18.1716 640.5 19H643.5ZM640.5 27.9776V29.4776H643.5V27.9776H640.5ZM640.5 19V27.9776H643.5V19H640.5Z" fill="#DF6489"/>
<line y1="-2" x2="10" y2="-2" transform="matrix(0.999994 -0.00347806 0.00349542 0.999994 637 33)" stroke="#07273D" stroke-width="4"/>
<path d="M633.5 19C633.5 18.1716 632.828 17.5 632 17.5C631.172 17.5 630.5 18.1716 630.5 19H633.5ZM630.5 27.9776V29.4776H633.5V27.9776H630.5ZM630.5 19V27.9776H633.5V19H630.5Z" fill="#DF6489"/>
<line y1="-2" x2="10" y2="-2" transform="matrix(0.999994 -0.00347806 0.00349542 0.999994 627 33)" stroke="#07273D" stroke-width="4"/>
<path d="M623.5 19C623.5 18.1716 622.828 17.5 622 17.5C621.172 17.5 620.5 18.1716 620.5 19H623.5ZM620.5 27.9776V29.4776H623.5V27.9776H620.5ZM620.5 19V27.9776H623.5V19H620.5Z" fill="#DF6489"/>
<line y1="-2" x2="10" y2="-2" transform="matrix(0.999994 -0.00347806 0.00349542 0.999994 617 33)" stroke="#07273D" stroke-width="4"/>
<path d="M613.5 19C613.5 18.1716 612.828 17.5 612 17.5C611.172 17.5 610.5 18.1716 610.5 19H613.5ZM610.5 27.9776V29.4776H613.5V27.9776H610.5ZM610.5 19V27.9776H613.5V19H610.5Z" fill="#DF6489"/>
<line y1="-2" x2="10" y2="-2" transform="matrix(0.999994 -0.00347806 0.00349542 0.999994 607 33)" stroke="#07273D" stroke-width="4"/>
<path d="M603.5 19C603.5 18.1716 602.828 17.5 602 17.5C601.172 17.5 600.5 18.1716 600.5 19H603.5ZM600.5 27.9776V29.4776H603.5V27.9776H600.5ZM600.5 19V27.9776H603.5V19H600.5Z" fill="#DF6489"/>
<line y1="-2" x2="10" y2="-2" transform="matrix(0.999994 -0.00347806 0.00349542 0.999994 597 33)" stroke="#07273D" stroke-width="4"/>
<path d="M593.5 19C593.5 18.1716 592.828 17.5 592 17.5C591.172 17.5 590.5 18.1716 590.5 19H593.5ZM590.5 27.9776V29.4776H593.5V27.9776H590.5ZM590.5 19V27.9776H593.5V19H590.5Z" fill="#DF6489"/>
<line y1="-2" x2="10" y2="-2" transform="matrix(0.999994 -0.00347806 0.00349542 0.999994 587 33)" stroke="#07273D" stroke-width="4"/>
<path d="M583.5 19C583.5 18.1716 582.828 17.5 582 17.5C581.172 17.5 580.5 18.1716 580.5 19H583.5ZM580.5 27.9776V29.4776H583.5V27.9776H580.5ZM580.5 19V27.9776H583.5V19H580.5Z" fill="#DF6489"/>
<line y1="-2" x2="10" y2="-2" transform="matrix(0.999994 -0.00347806 0.00349542 0.999994 577 33)" stroke="#07273D" stroke-width="4"/>
<path d="M762.5 19C762.5 18.1716 761.828 17.5 761 17.5C760.172 17.5 759.5 18.1716 759.5 19H762.5ZM759.5 27.9776V29.4776H762.5V27.9776H759.5ZM759.5 19V27.9776H762.5V19H759.5Z" fill="#DF6489"/>
<line y1="-2" x2="10" y2="-2" transform="matrix(0.999994 -0.00347806 0.00349542 0.999994 756 33)" stroke="#07273D" stroke-width="4"/>
<path d="M872.5 19C872.5 18.1716 871.828 17.5 871 17.5C870.172 17.5 869.5 18.1716 869.5 19H872.5ZM869.5 27.9776V29.4776H872.5V27.9776H869.5ZM869.5 19V27.9776H872.5V19H869.5Z" fill="#DF6489"/>
<line y1="-2" x2="10" y2="-2" transform="matrix(0.999994 -0.00347806 0.00349542 0.999994 866 33)" stroke="#07273D" stroke-width="4"/>
<path d="M941.5 19C941.5 18.1716 940.828 17.5 940 17.5C939.172 17.5 938.5 18.1716 938.5 19H941.5ZM938.5 27.9776V29.4776H941.5V27.9776H938.5ZM938.5 19V27.9776H941.5V19H938.5Z" fill="#DF6489"/>
<line y1="-2" x2="10" y2="-2" transform="matrix(0.999994 -0.00347806 0.00349542 0.999994 935 33)" stroke="#07273D" stroke-width="4"/>
<path d="M931.5 19C931.5 18.1716 930.828 17.5 930 17.5C929.172 17.5 928.5 18.1716 928.5 19H931.5ZM928.5 27.9776V29.4776H931.5V27.9776H928.5ZM928.5 19V27.9776H931.5V19H928.5Z" fill="#DF6489"/>
<line y1="-2" x2="10" y2="-2" transform="matrix(0.999994 -0.00347806 0.00349542 0.999994 925 33)" stroke="#07273D" stroke-width="4"/>
<path d="M922.5 19C922.5 18.1716 921.828 17.5 921 17.5C920.172 17.5 919.5 18.1716 919.5 19H922.5ZM919.5 27.9776V29.4776H922.5V27.9776H919.5ZM919.5 19V27.9776H922.5V19H919.5Z" fill="#DF6489"/>
<line y1="-2" x2="10" y2="-2" transform="matrix(0.999994 -0.00347806 0.00349542 0.999994 916 33)" stroke="#07273D" stroke-width="4"/>
<path d="M912.5 19C912.5 18.1716 911.828 17.5 911 17.5C910.172 17.5 909.5 18.1716 909.5 19H912.5ZM909.5 27.9776V29.4776H912.5V27.9776H909.5ZM909.5 19V27.9776H912.5V19H909.5Z" fill="#DF6489"/>
<line y1="-2" x2="10" y2="-2" transform="matrix(0.999994 -0.00347806 0.00349542 0.999994 906 33)" stroke="#07273D" stroke-width="4"/>
<path d="M902.5 19C902.5 18.1716 901.828 17.5 901 17.5C900.172 17.5 899.5 18.1716 899.5 19H902.5ZM899.5 27.9776V29.4776H902.5V27.9776H899.5ZM899.5 19V27.9776H902.5V19H899.5Z" fill="#DF6489"/>
<line y1="-2" x2="10" y2="-2" transform="matrix(0.999994 -0.00347806 0.00349542 0.999994 896 33)" stroke="#07273D" stroke-width="4"/>
<path d="M892.5 19C892.5 18.1716 891.828 17.5 891 17.5C890.172 17.5 889.5 18.1716 889.5 19H892.5ZM889.5 27.9776V29.4776H892.5V27.9776H889.5ZM889.5 19V27.9776H892.5V19H889.5Z" fill="#DF6489"/>
<line y1="-2" x2="10" y2="-2" transform="matrix(0.999994 -0.00347806 0.00349542 0.999994 886 33)" stroke="#07273D" stroke-width="4"/>
<path d="M882.5 19C882.5 18.1716 881.828 17.5 881 17.5C880.172 17.5 879.5 18.1716 879.5 19H882.5ZM879.5 27.9776V29.4776H882.5V27.9776H879.5ZM879.5 19V27.9776H882.5V19H879.5Z" fill="#DF6489"/>
<line y1="-2" x2="10" y2="-2" transform="matrix(0.999994 -0.00347806 0.00349542 0.999994 876 33)" stroke="#07273D" stroke-width="4"/>
<path d="M862.5 19C862.5 18.1716 861.828 17.5 861 17.5C860.172 17.5 859.5 18.1716 859.5 19H862.5ZM859.5 27.9776V29.4776H862.5V27.9776H859.5ZM859.5 19V27.9776H862.5V19H859.5Z" fill="#DF6489"/>
<line y1="-2" x2="10" y2="-2" transform="matrix(0.999994 -0.00347806 0.00349542 0.999994 856 33)" stroke="#07273D" stroke-width="4"/>
<path d="M852.5 19C852.5 18.1716 851.828 17.5 851 17.5C850.172 17.5 849.5 18.1716 849.5 19H852.5ZM849.5 27.9776V29.4776H852.5V27.9776H849.5ZM849.5 19V27.9776H852.5V19H849.5Z" fill="#DF6489"/>
<line y1="-2" x2="10" y2="-2" transform="matrix(0.999994 -0.00347806 0.00349542 0.999994 846 33)" stroke="#07273D" stroke-width="4"/>
<path d="M842.5 19C842.5 18.1716 841.828 17.5 841 17.5C840.172 17.5 839.5 18.1716 839.5 19H842.5ZM839.5 27.9776V29.4776H842.5V27.9776H839.5ZM839.5 19V27.9776H842.5V19H839.5Z" fill="#DF6489"/>
<line y1="-2" x2="10" y2="-2" transform="matrix(0.999994 -0.00347806 0.00349542 0.999994 836 33)" stroke="#07273D" stroke-width="4"/>
<path d="M832.5 19C832.5 18.1716 831.828 17.5 831 17.5C830.172 17.5 829.5 18.1716 829.5 19H832.5ZM829.5 27.9776V29.4776H832.5V27.9776H829.5ZM829.5 19V27.9776H832.5V19H829.5Z" fill="#DF6489"/>
<line y1="-2" x2="10" y2="-2" transform="matrix(0.999994 -0.00347806 0.00349542 0.999994 826 33)" stroke="#07273D" stroke-width="4"/>
<path d="M822.5 19C822.5 18.1716 821.828 17.5 821 17.5C820.172 17.5 819.5 18.1716 819.5 19H822.5ZM819.5 27.9776V29.4776H822.5V27.9776H819.5ZM819.5 19V27.9776H822.5V19H819.5Z" fill="#DF6489"/>
<line y1="-2" x2="10" y2="-2" transform="matrix(0.999994 -0.00347806 0.00349542 0.999994 816 33)" stroke="#07273D" stroke-width="4"/>
<path d="M812.5 19C812.5 18.1716 811.828 17.5 811 17.5C810.172 17.5 809.5 18.1716 809.5 19H812.5ZM809.5 27.9776V29.4776H812.5V27.9776H809.5ZM809.5 19V27.9776H812.5V19H809.5Z" fill="#DF6489"/>
<line y1="-2" x2="10" y2="-2" transform="matrix(0.999994 -0.00347806 0.00349542 0.999994 806 33)" stroke="#07273D" stroke-width="4"/>
<path d="M802.5 19C802.5 18.1716 801.828 17.5 801 17.5C800.172 17.5 799.5 18.1716 799.5 19H802.5ZM799.5 27.9776V29.4776H802.5V27.9776H799.5ZM799.5 19V27.9776H802.5V19H799.5Z" fill="#DF6489"/>
<line y1="-2" x2="10" y2="-2" transform="matrix(0.999994 -0.00347806 0.00349542 0.999994 796 33)" stroke="#07273D" stroke-width="4"/>
<path d="M792.5 19C792.5 18.1716 791.828 17.5 791 17.5C790.172 17.5 789.5 18.1716 789.5 19H792.5ZM789.5 27.9776V29.4776H792.5V27.9776H789.5ZM789.5 19V27.9776H792.5V19H789.5Z" fill="#DF6489"/>
<line y1="-2" x2="10" y2="-2" transform="matrix(0.999994 -0.00347806 0.00349542 0.999994 786 33)" stroke="#07273D" stroke-width="4"/>
<path d="M782.5 19C782.5 18.1716 781.828 17.5 781 17.5C780.172 17.5 779.5 18.1716 779.5 19H782.5ZM779.5 27.9776V29.4776H782.5V27.9776H779.5ZM779.5 19V27.9776H782.5V19H779.5Z" fill="#DF6489"/>
<line y1="-2" x2="10" y2="-2" transform="matrix(0.999994 -0.00347806 0.00349542 0.999994 776 33)" stroke="#07273D" stroke-width="4"/>
<path d="M772.5 19C772.5 18.1716 771.828 17.5 771 17.5C770.172 17.5 769.5 18.1716 769.5 19H772.5ZM769.5 27.9776V29.4776H772.5V27.9776H769.5ZM769.5 19V27.9776H772.5V19H769.5Z" fill="#DF6489"/>
<line y1="-2" x2="10" y2="-2" transform="matrix(0.999994 -0.00347806 0.00349542 0.999994 766 33)" stroke="#07273D" stroke-width="4"/>
<path d="M951.5 19C951.5 18.1716 950.828 17.5 950 17.5C949.172 17.5 948.5 18.1716 948.5 19H951.5ZM948.5 27.9776V29.4776H951.5V27.9776H948.5ZM948.5 19V27.9776H951.5V19H948.5Z" fill="#DF6489"/>
<line y1="-2" x2="10" y2="-2" transform="matrix(0.999994 -0.00347806 0.00349542 0.999994 945 33)" stroke="#07273D" stroke-width="4"/>
<path d="M1061.5 19C1061.5 18.1716 1060.83 17.5 1060 17.5C1059.17 17.5 1058.5 18.1716 1058.5 19H1061.5ZM1058.5 27.9776V29.4776H1061.5V27.9776H1058.5ZM1058.5 19V27.9776H1061.5V19H1058.5Z" fill="#DF6489"/>
<line y1="-2" x2="10" y2="-2" transform="matrix(0.999994 -0.00347806 0.00349542 0.999994 1055 33)" stroke="#07273D" stroke-width="4"/>
<path d="M1130.5 19C1130.5 18.1716 1129.83 17.5 1129 17.5C1128.17 17.5 1127.5 18.1716 1127.5 19H1130.5ZM1127.5 27.9776V29.4776H1130.5V27.9776H1127.5ZM1127.5 19V27.9776H1130.5V19H1127.5Z" fill="#DF6489"/>
<line y1="-2" x2="10" y2="-2" transform="matrix(0.999994 -0.00347806 0.00349542 0.999994 1124 33)" stroke="#07273D" stroke-width="4"/>
<path d="M1120.5 19C1120.5 18.1716 1119.83 17.5 1119 17.5C1118.17 17.5 1117.5 18.1716 1117.5 19H1120.5ZM1117.5 27.9776V29.4776H1120.5V27.9776H1117.5ZM1117.5 19V27.9776H1120.5V19H1117.5Z" fill="#DF6489"/>
<line y1="-2" x2="10" y2="-2" transform="matrix(0.999994 -0.00347806 0.00349542 0.999994 1114 33)" stroke="#07273D" stroke-width="4"/>
<path d="M1111.5 19C1111.5 18.1716 1110.83 17.5 1110 17.5C1109.17 17.5 1108.5 18.1716 1108.5 19H1111.5ZM1108.5 27.9776V29.4776H1111.5V27.9776H1108.5ZM1108.5 19V27.9776H1111.5V19H1108.5Z" fill="#DF6489"/>
<line y1="-2" x2="10" y2="-2" transform="matrix(0.999994 -0.00347806 0.00349542 0.999994 1105 33)" stroke="#07273D" stroke-width="4"/>
<path d="M1101.5 19C1101.5 18.1716 1100.83 17.5 1100 17.5C1099.17 17.5 1098.5 18.1716 1098.5 19H1101.5ZM1098.5 27.9776V29.4776H1101.5V27.9776H1098.5ZM1098.5 19V27.9776H1101.5V19H1098.5Z" fill="#DF6489"/>
<line y1="-2" x2="10" y2="-2" transform="matrix(0.999994 -0.00347806 0.00349542 0.999994 1095 33)" stroke="#07273D" stroke-width="4"/>
<path d="M1091.5 19C1091.5 18.1716 1090.83 17.5 1090 17.5C1089.17 17.5 1088.5 18.1716 1088.5 19H1091.5ZM1088.5 27.9776V29.4776H1091.5V27.9776H1088.5ZM1088.5 19V27.9776H1091.5V19H1088.5Z" fill="#DF6489"/>
<line y1="-2" x2="10" y2="-2" transform="matrix(0.999994 -0.00347806 0.00349542 0.999994 1085 33)" stroke="#07273D" stroke-width="4"/>
<path d="M1081.5 19C1081.5 18.1716 1080.83 17.5 1080 17.5C1079.17 17.5 1078.5 18.1716 1078.5 19H1081.5ZM1078.5 27.9776V29.4776H1081.5V27.9776H1078.5ZM1078.5 19V27.9776H1081.5V19H1078.5Z" fill="#DF6489"/>
<line y1="-2" x2="10" y2="-2" transform="matrix(0.999994 -0.00347806 0.00349542 0.999994 1075 33)" stroke="#07273D" stroke-width="4"/>
<path d="M1071.5 19C1071.5 18.1716 1070.83 17.5 1070 17.5C1069.17 17.5 1068.5 18.1716 1068.5 19H1071.5ZM1068.5 27.9776V29.4776H1071.5V27.9776H1068.5ZM1068.5 19V27.9776H1071.5V19H1068.5Z" fill="#DF6489"/>
<line y1="-2" x2="10" y2="-2" transform="matrix(0.999994 -0.00347806 0.00349542 0.999994 1065 33)" stroke="#07273D" stroke-width="4"/>
<path d="M1051.5 19C1051.5 18.1716 1050.83 17.5 1050 17.5C1049.17 17.5 1048.5 18.1716 1048.5 19H1051.5ZM1048.5 27.9776V29.4776H1051.5V27.9776H1048.5ZM1048.5 19V27.9776H1051.5V19H1048.5Z" fill="#DF6489"/>
<line y1="-2" x2="10" y2="-2" transform="matrix(0.999994 -0.00347806 0.00349542 0.999994 1045 33)" stroke="#07273D" stroke-width="4"/>
<path d="M1041.5 19C1041.5 18.1716 1040.83 17.5 1040 17.5C1039.17 17.5 1038.5 18.1716 1038.5 19H1041.5ZM1038.5 27.9776V29.4776H1041.5V27.9776H1038.5ZM1038.5 19V27.9776H1041.5V19H1038.5Z" fill="#DF6489"/>
<line y1="-2" x2="10" y2="-2" transform="matrix(0.999994 -0.00347806 0.00349542 0.999994 1035 33)" stroke="#07273D" stroke-width="4"/>
<path d="M1031.5 19C1031.5 18.1716 1030.83 17.5 1030 17.5C1029.17 17.5 1028.5 18.1716 1028.5 19H1031.5ZM1028.5 27.9776V29.4776H1031.5V27.9776H1028.5ZM1028.5 19V27.9776H1031.5V19H1028.5Z" fill="#DF6489"/>
<line y1="-2" x2="10" y2="-2" transform="matrix(0.999994 -0.00347806 0.00349542 0.999994 1025 33)" stroke="#07273D" stroke-width="4"/>
<path d="M1021.5 19C1021.5 18.1716 1020.83 17.5 1020 17.5C1019.17 17.5 1018.5 18.1716 1018.5 19H1021.5ZM1018.5 27.9776V29.4776H1021.5V27.9776H1018.5ZM1018.5 19V27.9776H1021.5V19H1018.5Z" fill="#DF6489"/>
<line y1="-2" x2="10" y2="-2" transform="matrix(0.999994 -0.00347806 0.00349542 0.999994 1015 33)" stroke="#07273D" stroke-width="4"/>
<path d="M1011.5 19C1011.5 18.1716 1010.83 17.5 1010 17.5C1009.17 17.5 1008.5 18.1716 1008.5 19H1011.5ZM1008.5 27.9776V29.4776H1011.5V27.9776H1008.5ZM1008.5 19V27.9776H1011.5V19H1008.5Z" fill="#DF6489"/>
<line y1="-2" x2="10" y2="-2" transform="matrix(0.999994 -0.00347806 0.00349542 0.999994 1005 33)" stroke="#07273D" stroke-width="4"/>
<path d="M1001.5 19C1001.5 18.1716 1000.83 17.5 1000 17.5C999.172 17.5 998.5 18.1716 998.5 19H1001.5ZM998.5 27.9776V29.4776H1001.5V27.9776H998.5ZM998.5 19V27.9776H1001.5V19H998.5Z" fill="#DF6489"/>
<line y1="-2" x2="10" y2="-2" transform="matrix(0.999994 -0.00347806 0.00349542 0.999994 995 33)" stroke="#07273D" stroke-width="4"/>
<path d="M991.5 19C991.5 18.1716 990.828 17.5 990 17.5C989.172 17.5 988.5 18.1716 988.5 19H991.5ZM988.5 27.9776V29.4776H991.5V27.9776H988.5ZM988.5 19V27.9776H991.5V19H988.5Z" fill="#DF6489"/>
<line y1="-2" x2="10" y2="-2" transform="matrix(0.999994 -0.00347806 0.00349542 0.999994 985 33)" stroke="#07273D" stroke-width="4"/>
<path d="M981.5 19C981.5 18.1716 980.828 17.5 980 17.5C979.172 17.5 978.5 18.1716 978.5 19H981.5ZM978.5 27.9776V29.4776H981.5V27.9776H978.5ZM978.5 19V27.9776H981.5V19H978.5Z" fill="#DF6489"/>
<line y1="-2" x2="10" y2="-2" transform="matrix(0.999994 -0.00347806 0.00349542 0.999994 975 33)" stroke="#07273D" stroke-width="4"/>
<path d="M971.5 19C971.5 18.1716 970.828 17.5 970 17.5C969.172 17.5 968.5 18.1716 968.5 19H971.5ZM968.5 27.9776V29.4776H971.5V27.9776H968.5ZM968.5 19V27.9776H971.5V19H968.5Z" fill="#DF6489"/>
<line y1="-2" x2="10" y2="-2" transform="matrix(0.999994 -0.00347806 0.00349542 0.999994 965 33)" stroke="#07273D" stroke-width="4"/>
<path d="M961.5 19C961.5 18.1716 960.828 17.5 960 17.5C959.172 17.5 958.5 18.1716 958.5 19H961.5ZM958.5 27.9776V29.4776H961.5V27.9776H958.5ZM958.5 19V27.9776H961.5V19H958.5Z" fill="#DF6489"/>
<line y1="-2" x2="10" y2="-2" transform="matrix(0.999994 -0.00347806 0.00349542 0.999994 955 33)" stroke="#07273D" stroke-width="4"/>
<path d="M1140.5 19C1140.5 18.1716 1139.83 17.5 1139 17.5C1138.17 17.5 1137.5 18.1716 1137.5 19H1140.5ZM1137.5 27.9776V29.4776H1140.5V27.9776H1137.5ZM1137.5 19V27.9776H1140.5V19H1137.5Z" fill="#DF6489"/>
<line y1="-2" x2="10" y2="-2" transform="matrix(0.999994 -0.00347806 0.00349542 0.999994 1134 33)" stroke="#07273D" stroke-width="4"/>
<path d="M1250.5 19C1250.5 18.1716 1249.83 17.5 1249 17.5C1248.17 17.5 1247.5 18.1716 1247.5 19H1250.5ZM1247.5 27.9776V29.4776H1250.5V27.9776H1247.5ZM1247.5 19V27.9776H1250.5V19H1247.5Z" fill="#DF6489"/>
<line y1="-2" x2="10" y2="-2" transform="matrix(0.999994 -0.00347806 0.00349542 0.999994 1244 33)" stroke="#07273D" stroke-width="4"/>
<path d="M1319.5 19C1319.5 18.1716 1318.83 17.5 1318 17.5C1317.17 17.5 1316.5 18.1716 1316.5 19H1319.5ZM1316.5 27.9776V29.4776H1319.5V27.9776H1316.5ZM1316.5 19V27.9776H1319.5V19H1316.5Z" fill="#DF6489"/>
<line y1="-2" x2="10" y2="-2" transform="matrix(0.999994 -0.00347806 0.00349542 0.999994 1313 33)" stroke="#07273D" stroke-width="4"/>
<path d="M1309.5 19C1309.5 18.1716 1308.83 17.5 1308 17.5C1307.17 17.5 1306.5 18.1716 1306.5 19H1309.5ZM1306.5 27.9776V29.4776H1309.5V27.9776H1306.5ZM1306.5 19V27.9776H1309.5V19H1306.5Z" fill="#DF6489"/>
<line y1="-2" x2="10" y2="-2" transform="matrix(0.999994 -0.00347806 0.00349542 0.999994 1303 33)" stroke="#07273D" stroke-width="4"/>
<path d="M1300.5 19C1300.5 18.1716 1299.83 17.5 1299 17.5C1298.17 17.5 1297.5 18.1716 1297.5 19H1300.5ZM1297.5 27.9776V29.4776H1300.5V27.9776H1297.5ZM1297.5 19V27.9776H1300.5V19H1297.5Z" fill="#DF6489"/>
<line y1="-2" x2="10" y2="-2" transform="matrix(0.999994 -0.00347806 0.00349542 0.999994 1294 33)" stroke="#07273D" stroke-width="4"/>
<path d="M1290.5 19C1290.5 18.1716 1289.83 17.5 1289 17.5C1288.17 17.5 1287.5 18.1716 1287.5 19H1290.5ZM1287.5 27.9776V29.4776H1290.5V27.9776H1287.5ZM1287.5 19V27.9776H1290.5V19H1287.5Z" fill="#DF6489"/>
<line y1="-2" x2="10" y2="-2" transform="matrix(0.999994 -0.00347806 0.00349542 0.999994 1284 33)" stroke="#07273D" stroke-width="4"/>
<path d="M1280.5 19C1280.5 18.1716 1279.83 17.5 1279 17.5C1278.17 17.5 1277.5 18.1716 1277.5 19H1280.5ZM1277.5 27.9776V29.4776H1280.5V27.9776H1277.5ZM1277.5 19V27.9776H1280.5V19H1277.5Z" fill="#DF6489"/>
<line y1="-2" x2="10" y2="-2" transform="matrix(0.999994 -0.00347806 0.00349542 0.999994 1274 33)" stroke="#07273D" stroke-width="4"/>
<path d="M1270.5 19C1270.5 18.1716 1269.83 17.5 1269 17.5C1268.17 17.5 1267.5 18.1716 1267.5 19H1270.5ZM1267.5 27.9776V29.4776H1270.5V27.9776H1267.5ZM1267.5 19V27.9776H1270.5V19H1267.5Z" fill="#DF6489"/>
<line y1="-2" x2="10" y2="-2" transform="matrix(0.999994 -0.00347806 0.00349542 0.999994 1264 33)" stroke="#07273D" stroke-width="4"/>
<path d="M1260.5 19C1260.5 18.1716 1259.83 17.5 1259 17.5C1258.17 17.5 1257.5 18.1716 1257.5 19H1260.5ZM1257.5 27.9776V29.4776H1260.5V27.9776H1257.5ZM1257.5 19V27.9776H1260.5V19H1257.5Z" fill="#DF6489"/>
<line y1="-2" x2="10" y2="-2" transform="matrix(0.999994 -0.00347806 0.00349542 0.999994 1254 33)" stroke="#07273D" stroke-width="4"/>
<path d="M1240.5 19C1240.5 18.1716 1239.83 17.5 1239 17.5C1238.17 17.5 1237.5 18.1716 1237.5 19H1240.5ZM1237.5 27.9776V29.4776H1240.5V27.9776H1237.5ZM1237.5 19V27.9776H1240.5V19H1237.5Z" fill="#DF6489"/>
<line y1="-2" x2="10" y2="-2" transform="matrix(0.999994 -0.00347806 0.00349542 0.999994 1234 33)" stroke="#07273D" stroke-width="4"/>
<path d="M1230.5 19C1230.5 18.1716 1229.83 17.5 1229 17.5C1228.17 17.5 1227.5 18.1716 1227.5 19H1230.5ZM1227.5 27.9776V29.4776H1230.5V27.9776H1227.5ZM1227.5 19V27.9776H1230.5V19H1227.5Z" fill="#DF6489"/>
<line y1="-2" x2="10" y2="-2" transform="matrix(0.999994 -0.00347806 0.00349542 0.999994 1224 33)" stroke="#07273D" stroke-width="4"/>
<path d="M1220.5 19C1220.5 18.1716 1219.83 17.5 1219 17.5C1218.17 17.5 1217.5 18.1716 1217.5 19H1220.5ZM1217.5 27.9776V29.4776H1220.5V27.9776H1217.5ZM1217.5 19V27.9776H1220.5V19H1217.5Z" fill="#DF6489"/>
<line y1="-2" x2="10" y2="-2" transform="matrix(0.999994 -0.00347806 0.00349542 0.999994 1214 33)" stroke="#07273D" stroke-width="4"/>
<path d="M1210.5 19C1210.5 18.1716 1209.83 17.5 1209 17.5C1208.17 17.5 1207.5 18.1716 1207.5 19H1210.5ZM1207.5 27.9776V29.4776H1210.5V27.9776H1207.5ZM1207.5 19V27.9776H1210.5V19H1207.5Z" fill="#DF6489"/>
<line y1="-2" x2="10" y2="-2" transform="matrix(0.999994 -0.00347806 0.00349542 0.999994 1204 33)" stroke="#07273D" stroke-width="4"/>
<path d="M1200.5 19C1200.5 18.1716 1199.83 17.5 1199 17.5C1198.17 17.5 1197.5 18.1716 1197.5 19H1200.5ZM1197.5 27.9776V29.4776H1200.5V27.9776H1197.5ZM1197.5 19V27.9776H1200.5V19H1197.5Z" fill="#DF6489"/>
<line y1="-2" x2="10" y2="-2" transform="matrix(0.999994 -0.00347806 0.00349542 0.999994 1194 33)" stroke="#07273D" stroke-width="4"/>
<path d="M1190.5 19C1190.5 18.1716 1189.83 17.5 1189 17.5C1188.17 17.5 1187.5 18.1716 1187.5 19H1190.5ZM1187.5 27.9776V29.4776H1190.5V27.9776H1187.5ZM1187.5 19V27.9776H1190.5V19H1187.5Z" fill="#DF6489"/>
<line y1="-2" x2="10" y2="-2" transform="matrix(0.999994 -0.00347806 0.00349542 0.999994 1184 33)" stroke="#07273D" stroke-width="4"/>
<path d="M1180.5 19C1180.5 18.1716 1179.83 17.5 1179 17.5C1178.17 17.5 1177.5 18.1716 1177.5 19H1180.5ZM1177.5 27.9776V29.4776H1180.5V27.9776H1177.5ZM1177.5 19V27.9776H1180.5V19H1177.5Z" fill="#DF6489"/>
<line y1="-2" x2="10" y2="-2" transform="matrix(0.999994 -0.00347806 0.00349542 0.999994 1174 33)" stroke="#07273D" stroke-width="4"/>
<path d="M1170.5 19C1170.5 18.1716 1169.83 17.5 1169 17.5C1168.17 17.5 1167.5 18.1716 1167.5 19H1170.5ZM1167.5 27.9776V29.4776H1170.5V27.9776H1167.5ZM1167.5 19V27.9776H1170.5V19H1167.5Z" fill="#DF6489"/>
<line y1="-2" x2="10" y2="-2" transform="matrix(0.999994 -0.00347806 0.00349542 0.999994 1164 33)" stroke="#07273D" stroke-width="4"/>
<path d="M1160.5 19C1160.5 18.1716 1159.83 17.5 1159 17.5C1158.17 17.5 1157.5 18.1716 1157.5 19H1160.5ZM1157.5 27.9776V29.4776H1160.5V27.9776H1157.5ZM1157.5 19V27.9776H1160.5V19H1157.5Z" fill="#DF6489"/>
<line y1="-2" x2="10" y2="-2" transform="matrix(0.999994 -0.00347806 0.00349542 0.999994 1154 33)" stroke="#07273D" stroke-width="4"/>
<path d="M1150.5 19C1150.5 18.1716 1149.83 17.5 1149 17.5C1148.17 17.5 1147.5 18.1716 1147.5 19H1150.5ZM1147.5 27.9776V29.4776H1150.5V27.9776H1147.5ZM1147.5 19V27.9776H1150.5V19H1147.5Z" fill="#DF6489"/>
<line y1="-2" x2="10" y2="-2" transform="matrix(0.999994 -0.00347806 0.00349542 0.999994 1144 33)" stroke="#07273D" stroke-width="4"/>
<path d="M1329.5 19C1329.5 18.1716 1328.83 17.5 1328 17.5C1327.17 17.5 1326.5 18.1716 1326.5 19H1329.5ZM1326.5 27.9776V29.4776H1329.5V27.9776H1326.5ZM1326.5 19V27.9776H1329.5V19H1326.5Z" fill="#DF6489"/>
<line y1="-2" x2="10" y2="-2" transform="matrix(0.999994 -0.00347806 0.00349542 0.999994 1323 33)" stroke="#07273D" stroke-width="4"/>
<path d="M1439.5 19C1439.5 18.1716 1438.83 17.5 1438 17.5C1437.17 17.5 1436.5 18.1716 1436.5 19H1439.5ZM1436.5 27.9776V29.4776H1439.5V27.9776H1436.5ZM1436.5 19V27.9776H1439.5V19H1436.5Z" fill="#DF6489"/>
<line y1="-2" x2="10" y2="-2" transform="matrix(0.999994 -0.00347806 0.00349542 0.999994 1433 33)" stroke="#07273D" stroke-width="4"/>
<path d="M1429.5 19C1429.5 18.1716 1428.83 17.5 1428 17.5C1427.17 17.5 1426.5 18.1716 1426.5 19H1429.5ZM1426.5 27.9776V29.4776H1429.5V27.9776H1426.5ZM1426.5 19V27.9776H1429.5V19H1426.5Z" fill="#DF6489"/>
<line y1="-2" x2="10" y2="-2" transform="matrix(0.999994 -0.00347806 0.00349542 0.999994 1423 33)" stroke="#07273D" stroke-width="4"/>
<path d="M1419.5 19C1419.5 18.1716 1418.83 17.5 1418 17.5C1417.17 17.5 1416.5 18.1716 1416.5 19H1419.5ZM1416.5 27.9776V29.4776H1419.5V27.9776H1416.5ZM1416.5 19V27.9776H1419.5V19H1416.5Z" fill="#DF6489"/>
<line y1="-2" x2="10" y2="-2" transform="matrix(0.999994 -0.00347806 0.00349542 0.999994 1413 33)" stroke="#07273D" stroke-width="4"/>
<path d="M1409.5 19C1409.5 18.1716 1408.83 17.5 1408 17.5C1407.17 17.5 1406.5 18.1716 1406.5 19H1409.5ZM1406.5 27.9776V29.4776H1409.5V27.9776H1406.5ZM1406.5 19V27.9776H1409.5V19H1406.5Z" fill="#DF6489"/>
<line y1="-2" x2="10" y2="-2" transform="matrix(0.999994 -0.00347806 0.00349542 0.999994 1403 33)" stroke="#07273D" stroke-width="4"/>
<path d="M1399.5 19C1399.5 18.1716 1398.83 17.5 1398 17.5C1397.17 17.5 1396.5 18.1716 1396.5 19H1399.5ZM1396.5 27.9776V29.4776H1399.5V27.9776H1396.5ZM1396.5 19V27.9776H1399.5V19H1396.5Z" fill="#DF6489"/>
<line y1="-2" x2="10" y2="-2" transform="matrix(0.999994 -0.00347806 0.00349542 0.999994 1393 33)" stroke="#07273D" stroke-width="4"/>
<path d="M1389.5 19C1389.5 18.1716 1388.83 17.5 1388 17.5C1387.17 17.5 1386.5 18.1716 1386.5 19H1389.5ZM1386.5 27.9776V29.4776H1389.5V27.9776H1386.5ZM1386.5 19V27.9776H1389.5V19H1386.5Z" fill="#DF6489"/>
<line y1="-2" x2="10" y2="-2" transform="matrix(0.999994 -0.00347806 0.00349542 0.999994 1383 33)" stroke="#07273D" stroke-width="4"/>
<path d="M1379.5 19C1379.5 18.1716 1378.83 17.5 1378 17.5C1377.17 17.5 1376.5 18.1716 1376.5 19H1379.5ZM1376.5 27.9776V29.4776H1379.5V27.9776H1376.5ZM1376.5 19V27.9776H1379.5V19H1376.5Z" fill="#DF6489"/>
<line y1="-2" x2="10" y2="-2" transform="matrix(0.999994 -0.00347806 0.00349542 0.999994 1373 33)" stroke="#07273D" stroke-width="4"/>
<path d="M1369.5 19C1369.5 18.1716 1368.83 17.5 1368 17.5C1367.17 17.5 1366.5 18.1716 1366.5 19H1369.5ZM1366.5 27.9776V29.4776H1369.5V27.9776H1366.5ZM1366.5 19V27.9776H1369.5V19H1366.5Z" fill="#DF6489"/>
<line y1="-2" x2="10" y2="-2" transform="matrix(0.999994 -0.00347806 0.00349542 0.999994 1363 33)" stroke="#07273D" stroke-width="4"/>
<path d="M1359.5 19C1359.5 18.1716 1358.83 17.5 1358 17.5C1357.17 17.5 1356.5 18.1716 1356.5 19H1359.5ZM1356.5 27.9776V29.4776H1359.5V27.9776H1356.5ZM1356.5 19V27.9776H1359.5V19H1356.5Z" fill="#DF6489"/>
<line y1="-2" x2="10" y2="-2" transform="matrix(0.999994 -0.00347806 0.00349542 0.999994 1353 33)" stroke="#07273D" stroke-width="4"/>
<path d="M1349.5 19C1349.5 18.1716 1348.83 17.5 1348 17.5C1347.17 17.5 1346.5 18.1716 1346.5 19H1349.5ZM1346.5 27.9776V29.4776H1349.5V27.9776H1346.5ZM1346.5 19V27.9776H1349.5V19H1346.5Z" fill="#DF6489"/>
<line y1="-2" x2="10" y2="-2" transform="matrix(0.999994 -0.00347806 0.00349542 0.999994 1343 33)" stroke="#07273D" stroke-width="4"/>
<path d="M1339.5 19C1339.5 18.1716 1338.83 17.5 1338 17.5C1337.17 17.5 1336.5 18.1716 1336.5 19H1339.5ZM1336.5 27.9776V29.4776H1339.5V27.9776H1336.5ZM1336.5 19V27.9776H1339.5V19H1336.5Z" fill="#DF6489"/>
<line y1="-2" x2="10" y2="-2" transform="matrix(0.999994 -0.00347806 0.00349542 0.999994 1333 33)" stroke="#07273D" stroke-width="4"/>
<path d="M6.5 14C6.5 14.8284 5.82843 15.5 5 15.5C4.17157 15.5 3.5 14.8284 3.5 14H6.5ZM3.5 5.02239V3.52239H6.5V5.02239H3.5ZM3.5 14L3.5 5.02239H6.5L6.5 14H3.5Z" fill="#DF6489"/>
<line y1="-2" x2="10" y2="-2" transform="matrix(0.999994 0.00347806 0.00349542 -0.999994 0 0)" stroke="#07273D" stroke-width="4"/>
<path d="M116.5 14C116.5 14.8284 115.828 15.5 115 15.5C114.172 15.5 113.5 14.8284 113.5 14H116.5ZM113.5 5.02239V3.52239H116.5V5.02239H113.5ZM113.5 14V5.02239H116.5V14H113.5Z" fill="#DF6489"/>
<line y1="-2" x2="10" y2="-2" transform="matrix(0.999994 0.00347806 0.00349542 -0.999994 110 0)" stroke="#07273D" stroke-width="4"/>
<path d="M185.5 14C185.5 14.8284 184.828 15.5 184 15.5C183.172 15.5 182.5 14.8284 182.5 14H185.5ZM182.5 5.02239V3.52239H185.5V5.02239H182.5ZM182.5 14V5.02239H185.5V14H182.5Z" fill="#DF6489"/>
<line y1="-2" x2="10" y2="-2" transform="matrix(0.999994 0.00347806 0.00349542 -0.999994 179 0)" stroke="#07273D" stroke-width="4"/>
<path d="M175.5 14C175.5 14.8284 174.828 15.5 174 15.5C173.172 15.5 172.5 14.8284 172.5 14H175.5ZM172.5 5.02239V3.52239H175.5V5.02239H172.5ZM172.5 14V5.02239H175.5V14H172.5Z" fill="#DF6489"/>
<line y1="-2" x2="10" y2="-2" transform="matrix(0.999994 0.00347806 0.00349542 -0.999994 169 0)" stroke="#07273D" stroke-width="4"/>
<path d="M166.5 14C166.5 14.8284 165.828 15.5 165 15.5C164.172 15.5 163.5 14.8284 163.5 14H166.5ZM163.5 5.02239V3.52239H166.5V5.02239H163.5ZM163.5 14V5.02239H166.5V14H163.5Z" fill="#DF6489"/>
<line y1="-2" x2="10" y2="-2" transform="matrix(0.999994 0.00347806 0.00349542 -0.999994 160 0)" stroke="#07273D" stroke-width="4"/>
<path d="M156.5 14C156.5 14.8284 155.828 15.5 155 15.5C154.172 15.5 153.5 14.8284 153.5 14H156.5ZM153.5 5.02239V3.52239H156.5V5.02239H153.5ZM153.5 14V5.02239H156.5V14H153.5Z" fill="#DF6489"/>
<line y1="-2" x2="10" y2="-2" transform="matrix(0.999994 0.00347806 0.00349542 -0.999994 150 0)" stroke="#07273D" stroke-width="4"/>
<path d="M146.5 14C146.5 14.8284 145.828 15.5 145 15.5C144.172 15.5 143.5 14.8284 143.5 14H146.5ZM143.5 5.02239V3.52239H146.5V5.02239H143.5ZM143.5 14V5.02239H146.5V14H143.5Z" fill="#DF6489"/>
<line y1="-2" x2="10" y2="-2" transform="matrix(0.999994 0.00347806 0.00349542 -0.999994 140 0)" stroke="#07273D" stroke-width="4"/>
<path d="M136.5 14C136.5 14.8284 135.828 15.5 135 15.5C134.172 15.5 133.5 14.8284 133.5 14H136.5ZM133.5 5.02239V3.52239H136.5V5.02239H133.5ZM133.5 14V5.02239H136.5V14H133.5Z" fill="#DF6489"/>
<line y1="-2" x2="10" y2="-2" transform="matrix(0.999994 0.00347806 0.00349542 -0.999994 130 0)" stroke="#07273D" stroke-width="4"/>
<path d="M126.5 14C126.5 14.8284 125.828 15.5 125 15.5C124.172 15.5 123.5 14.8284 123.5 14H126.5ZM123.5 5.02239V3.52239H126.5V5.02239H123.5ZM123.5 14V5.02239H126.5V14H123.5Z" fill="#DF6489"/>
<line y1="-2" x2="10" y2="-2" transform="matrix(0.999994 0.00347806 0.00349542 -0.999994 120 0)" stroke="#07273D" stroke-width="4"/>
<path d="M106.5 14C106.5 14.8284 105.828 15.5 105 15.5C104.172 15.5 103.5 14.8284 103.5 14H106.5ZM103.5 5.02239V3.52239H106.5V5.02239H103.5ZM103.5 14V5.02239H106.5V14H103.5Z" fill="#DF6489"/>
<line y1="-2" x2="10" y2="-2" transform="matrix(0.999994 0.00347806 0.00349542 -0.999994 100 0)" stroke="#07273D" stroke-width="4"/>
<path d="M96.5 14C96.5 14.8284 95.8284 15.5 95 15.5C94.1716 15.5 93.5 14.8284 93.5 14H96.5ZM93.5 5.02239V3.52239H96.5V5.02239H93.5ZM93.5 14V5.02239H96.5V14H93.5Z" fill="#DF6489"/>
<line y1="-2" x2="10" y2="-2" transform="matrix(0.999994 0.00347806 0.00349542 -0.999994 90 0)" stroke="#07273D" stroke-width="4"/>
<path d="M86.5 14C86.5 14.8284 85.8284 15.5 85 15.5C84.1716 15.5 83.5 14.8284 83.5 14H86.5ZM83.5 5.02239V3.52239H86.5V5.02239H83.5ZM83.5 14V5.02239H86.5V14H83.5Z" fill="#DF6489"/>
<line y1="-2" x2="10" y2="-2" transform="matrix(0.999994 0.00347806 0.00349542 -0.999994 80 0)" stroke="#07273D" stroke-width="4"/>
<path d="M76.5 14C76.5 14.8284 75.8284 15.5 75 15.5C74.1716 15.5 73.5 14.8284 73.5 14H76.5ZM73.5 5.02239V3.52239H76.5V5.02239H73.5ZM73.5 14V5.02239H76.5V14H73.5Z" fill="#DF6489"/>
<line y1="-2" x2="10" y2="-2" transform="matrix(0.999994 0.00347806 0.00349542 -0.999994 70 0)" stroke="#07273D" stroke-width="4"/>
<path d="M66.5 14C66.5 14.8284 65.8284 15.5 65 15.5C64.1716 15.5 63.5 14.8284 63.5 14H66.5ZM63.5 5.02239V3.52239H66.5V5.02239H63.5ZM63.5 14V5.02239H66.5V14H63.5Z" fill="#DF6489"/>
<line y1="-2" x2="10" y2="-2" transform="matrix(0.999994 0.00347806 0.00349542 -0.999994 60 0)" stroke="#07273D" stroke-width="4"/>
<path d="M56.5 14C56.5 14.8284 55.8284 15.5 55 15.5C54.1716 15.5 53.5 14.8284 53.5 14H56.5ZM53.5 5.02239V3.52239H56.5V5.02239H53.5ZM53.5 14V5.02239H56.5V14H53.5Z" fill="#DF6489"/>
<line y1="-2" x2="10" y2="-2" transform="matrix(0.999994 0.00347806 0.00349542 -0.999994 50 0)" stroke="#07273D" stroke-width="4"/>
<path d="M46.5 14C46.5 14.8284 45.8284 15.5 45 15.5C44.1716 15.5 43.5 14.8284 43.5 14H46.5ZM43.5 5.02239V3.52239H46.5V5.02239H43.5ZM43.5 14V5.02239H46.5V14H43.5Z" fill="#DF6489"/>
<line y1="-2" x2="10" y2="-2" transform="matrix(0.999994 0.00347806 0.00349542 -0.999994 40 0)" stroke="#07273D" stroke-width="4"/>
<path d="M36.5 14C36.5 14.8284 35.8284 15.5 35 15.5C34.1716 15.5 33.5 14.8284 33.5 14H36.5ZM33.5 5.02239V3.52239H36.5V5.02239H33.5ZM33.5 14V5.02239H36.5V14H33.5Z" fill="#DF6489"/>
<line y1="-2" x2="10" y2="-2" transform="matrix(0.999994 0.00347806 0.00349542 -0.999994 30 0)" stroke="#07273D" stroke-width="4"/>
<path d="M26.5 14C26.5 14.8284 25.8284 15.5 25 15.5C24.1716 15.5 23.5 14.8284 23.5 14H26.5ZM23.5 5.02239L23.5 3.52239H26.5L26.5 5.02239H23.5ZM23.5 14V5.02239H26.5V14H23.5Z" fill="#DF6489"/>
<line y1="-2" x2="10" y2="-2" transform="matrix(0.999994 0.00347806 0.00349542 -0.999994 20 0)" stroke="#07273D" stroke-width="4"/>
<path d="M16.5 14C16.5 14.8284 15.8284 15.5 15 15.5C14.1716 15.5 13.5 14.8284 13.5 14H16.5ZM13.5 5.02239V3.52239H16.5L16.5 5.02239H13.5ZM13.5 14L13.5 5.02239H16.5V14H13.5Z" fill="#DF6489"/>
<line y1="-2" x2="10" y2="-2" transform="matrix(0.999994 0.00347806 0.00349542 -0.999994 10 0)" stroke="#07273D" stroke-width="4"/>
<path d="M195.5 14C195.5 14.8284 194.828 15.5 194 15.5C193.172 15.5 192.5 14.8284 192.5 14H195.5ZM192.5 5.02239V3.52239H195.5V5.02239H192.5ZM192.5 14V5.02239H195.5V14H192.5Z" fill="#DF6489"/>
<line y1="-2" x2="10" y2="-2" transform="matrix(0.999994 0.00347806 0.00349542 -0.999994 189 0)" stroke="#07273D" stroke-width="4"/>
<path d="M305.5 14C305.5 14.8284 304.828 15.5 304 15.5C303.172 15.5 302.5 14.8284 302.5 14H305.5ZM302.5 5.02239V3.52239H305.5V5.02239H302.5ZM302.5 14V5.02239H305.5V14H302.5Z" fill="#DF6489"/>
<line y1="-2" x2="10" y2="-2" transform="matrix(0.999994 0.00347806 0.00349542 -0.999994 299 0)" stroke="#07273D" stroke-width="4"/>
<path d="M374.5 14C374.5 14.8284 373.828 15.5 373 15.5C372.172 15.5 371.5 14.8284 371.5 14H374.5ZM371.5 5.02239V3.52239H374.5V5.02239H371.5ZM371.5 14V5.02239H374.5V14H371.5Z" fill="#DF6489"/>
<line y1="-2" x2="10" y2="-2" transform="matrix(0.999994 0.00347806 0.00349542 -0.999994 368 0)" stroke="#07273D" stroke-width="4"/>
<path d="M364.5 14C364.5 14.8284 363.828 15.5 363 15.5C362.172 15.5 361.5 14.8284 361.5 14H364.5ZM361.5 5.02239V3.52239H364.5V5.02239H361.5ZM361.5 14V5.02239H364.5V14H361.5Z" fill="#DF6489"/>
<line y1="-2" x2="10" y2="-2" transform="matrix(0.999994 0.00347806 0.00349542 -0.999994 358 0)" stroke="#07273D" stroke-width="4"/>
<path d="M355.5 14C355.5 14.8284 354.828 15.5 354 15.5C353.172 15.5 352.5 14.8284 352.5 14H355.5ZM352.5 5.02239V3.52239H355.5V5.02239H352.5ZM352.5 14V5.02239H355.5V14H352.5Z" fill="#DF6489"/>
<line y1="-2" x2="10" y2="-2" transform="matrix(0.999994 0.00347806 0.00349542 -0.999994 349 0)" stroke="#07273D" stroke-width="4"/>
<path d="M345.5 14C345.5 14.8284 344.828 15.5 344 15.5C343.172 15.5 342.5 14.8284 342.5 14H345.5ZM342.5 5.02239V3.52239H345.5V5.02239H342.5ZM342.5 14V5.02239H345.5V14H342.5Z" fill="#DF6489"/>
<line y1="-2" x2="10" y2="-2" transform="matrix(0.999994 0.00347806 0.00349542 -0.999994 339 0)" stroke="#07273D" stroke-width="4"/>
<path d="M335.5 14C335.5 14.8284 334.828 15.5 334 15.5C333.172 15.5 332.5 14.8284 332.5 14H335.5ZM332.5 5.02239V3.52239H335.5V5.02239H332.5ZM332.5 14V5.02239H335.5V14H332.5Z" fill="#DF6489"/>
<line y1="-2" x2="10" y2="-2" transform="matrix(0.999994 0.00347806 0.00349542 -0.999994 329 0)" stroke="#07273D" stroke-width="4"/>
<path d="M325.5 14C325.5 14.8284 324.828 15.5 324 15.5C323.172 15.5 322.5 14.8284 322.5 14H325.5ZM322.5 5.02239V3.52239H325.5V5.02239H322.5ZM322.5 14V5.02239H325.5V14H322.5Z" fill="#DF6489"/>
<line y1="-2" x2="10" y2="-2" transform="matrix(0.999994 0.00347806 0.00349542 -0.999994 319 0)" stroke="#07273D" stroke-width="4"/>
<path d="M315.5 14C315.5 14.8284 314.828 15.5 314 15.5C313.172 15.5 312.5 14.8284 312.5 14H315.5ZM312.5 5.02239V3.52239H315.5V5.02239H312.5ZM312.5 14V5.02239H315.5V14H312.5Z" fill="#DF6489"/>
<line y1="-2" x2="10" y2="-2" transform="matrix(0.999994 0.00347806 0.00349542 -0.999994 309 0)" stroke="#07273D" stroke-width="4"/>
<path d="M295.5 14C295.5 14.8284 294.828 15.5 294 15.5C293.172 15.5 292.5 14.8284 292.5 14H295.5ZM292.5 5.02239V3.52239H295.5V5.02239H292.5ZM292.5 14V5.02239H295.5V14H292.5Z" fill="#DF6489"/>
<line y1="-2" x2="10" y2="-2" transform="matrix(0.999994 0.00347806 0.00349542 -0.999994 289 0)" stroke="#07273D" stroke-width="4"/>
<path d="M285.5 14C285.5 14.8284 284.828 15.5 284 15.5C283.172 15.5 282.5 14.8284 282.5 14H285.5ZM282.5 5.02239V3.52239H285.5V5.02239H282.5ZM282.5 14V5.02239H285.5V14H282.5Z" fill="#DF6489"/>
<line y1="-2" x2="10" y2="-2" transform="matrix(0.999994 0.00347806 0.00349542 -0.999994 279 0)" stroke="#07273D" stroke-width="4"/>
<path d="M275.5 14C275.5 14.8284 274.828 15.5 274 15.5C273.172 15.5 272.5 14.8284 272.5 14H275.5ZM272.5 5.02239V3.52239H275.5V5.02239H272.5ZM272.5 14V5.02239H275.5V14H272.5Z" fill="#DF6489"/>
<line y1="-2" x2="10" y2="-2" transform="matrix(0.999994 0.00347806 0.00349542 -0.999994 269 0)" stroke="#07273D" stroke-width="4"/>
<path d="M265.5 14C265.5 14.8284 264.828 15.5 264 15.5C263.172 15.5 262.5 14.8284 262.5 14H265.5ZM262.5 5.02239V3.52239H265.5V5.02239H262.5ZM262.5 14V5.02239H265.5V14H262.5Z" fill="#DF6489"/>
<line y1="-2" x2="10" y2="-2" transform="matrix(0.999994 0.00347806 0.00349542 -0.999994 259 0)" stroke="#07273D" stroke-width="4"/>
<path d="M255.5 14C255.5 14.8284 254.828 15.5 254 15.5C253.172 15.5 252.5 14.8284 252.5 14H255.5ZM252.5 5.02239V3.52239H255.5V5.02239H252.5ZM252.5 14V5.02239H255.5V14H252.5Z" fill="#DF6489"/>
<line y1="-2" x2="10" y2="-2" transform="matrix(0.999994 0.00347806 0.00349542 -0.999994 249 0)" stroke="#07273D" stroke-width="4"/>
<path d="M245.5 14C245.5 14.8284 244.828 15.5 244 15.5C243.172 15.5 242.5 14.8284 242.5 14H245.5ZM242.5 5.02239V3.52239H245.5V5.02239H242.5ZM242.5 14V5.02239H245.5V14H242.5Z" fill="#DF6489"/>
<line y1="-2" x2="10" y2="-2" transform="matrix(0.999994 0.00347806 0.00349542 -0.999994 239 0)" stroke="#07273D" stroke-width="4"/>
<path d="M235.5 14C235.5 14.8284 234.828 15.5 234 15.5C233.172 15.5 232.5 14.8284 232.5 14H235.5ZM232.5 5.02239V3.52239H235.5V5.02239H232.5ZM232.5 14V5.02239H235.5V14H232.5Z" fill="#DF6489"/>
<line y1="-2" x2="10" y2="-2" transform="matrix(0.999994 0.00347806 0.00349542 -0.999994 229 0)" stroke="#07273D" stroke-width="4"/>
<path d="M225.5 14C225.5 14.8284 224.828 15.5 224 15.5C223.172 15.5 222.5 14.8284 222.5 14H225.5ZM222.5 5.02239V3.52239H225.5V5.02239H222.5ZM222.5 14V5.02239H225.5V14H222.5Z" fill="#DF6489"/>
<line y1="-2" x2="10" y2="-2" transform="matrix(0.999994 0.00347806 0.00349542 -0.999994 219 0)" stroke="#07273D" stroke-width="4"/>
<path d="M215.5 14C215.5 14.8284 214.828 15.5 214 15.5C213.172 15.5 212.5 14.8284 212.5 14H215.5ZM212.5 5.02239V3.52239H215.5V5.02239H212.5ZM212.5 14V5.02239H215.5V14H212.5Z" fill="#DF6489"/>
<line y1="-2" x2="10" y2="-2" transform="matrix(0.999994 0.00347806 0.00349542 -0.999994 209 0)" stroke="#07273D" stroke-width="4"/>
<path d="M205.5 14C205.5 14.8284 204.828 15.5 204 15.5C203.172 15.5 202.5 14.8284 202.5 14H205.5ZM202.5 5.02239V3.52239H205.5V5.02239H202.5ZM202.5 14V5.02239H205.5V14H202.5Z" fill="#DF6489"/>
<line y1="-2" x2="10" y2="-2" transform="matrix(0.999994 0.00347806 0.00349542 -0.999994 199 0)" stroke="#07273D" stroke-width="4"/>
<path d="M384.5 14C384.5 14.8284 383.828 15.5 383 15.5C382.172 15.5 381.5 14.8284 381.5 14H384.5ZM381.5 5.02239V3.52239H384.5V5.02239H381.5ZM381.5 14V5.02239H384.5V14H381.5Z" fill="#DF6489"/>
<line y1="-2" x2="10" y2="-2" transform="matrix(0.999994 0.00347806 0.00349542 -0.999994 378 0)" stroke="#07273D" stroke-width="4"/>
<path d="M494.5 14C494.5 14.8284 493.828 15.5 493 15.5C492.172 15.5 491.5 14.8284 491.5 14H494.5ZM491.5 5.02239V3.52239H494.5V5.02239H491.5ZM491.5 14V5.02239H494.5V14H491.5Z" fill="#DF6489"/>
<line y1="-2" x2="10" y2="-2" transform="matrix(0.999994 0.00347806 0.00349542 -0.999994 488 0)" stroke="#07273D" stroke-width="4"/>
<path d="M563.5 14C563.5 14.8284 562.828 15.5 562 15.5C561.172 15.5 560.5 14.8284 560.5 14H563.5ZM560.5 5.02239V3.52239H563.5V5.02239H560.5ZM560.5 14V5.02239H563.5V14H560.5Z" fill="#DF6489"/>
<line y1="-2" x2="10" y2="-2" transform="matrix(0.999994 0.00347806 0.00349542 -0.999994 557 0)" stroke="#07273D" stroke-width="4"/>
<path d="M553.5 14C553.5 14.8284 552.828 15.5 552 15.5C551.172 15.5 550.5 14.8284 550.5 14H553.5ZM550.5 5.02239V3.52239H553.5V5.02239H550.5ZM550.5 14V5.02239H553.5V14H550.5Z" fill="#DF6489"/>
<line y1="-2" x2="10" y2="-2" transform="matrix(0.999994 0.00347806 0.00349542 -0.999994 547 0)" stroke="#07273D" stroke-width="4"/>
<path d="M544.5 14C544.5 14.8284 543.828 15.5 543 15.5C542.172 15.5 541.5 14.8284 541.5 14H544.5ZM541.5 5.02239V3.52239H544.5V5.02239H541.5ZM541.5 14V5.02239H544.5V14H541.5Z" fill="#DF6489"/>
<line y1="-2" x2="10" y2="-2" transform="matrix(0.999994 0.00347806 0.00349542 -0.999994 538 0)" stroke="#07273D" stroke-width="4"/>
<path d="M534.5 14C534.5 14.8284 533.828 15.5 533 15.5C532.172 15.5 531.5 14.8284 531.5 14H534.5ZM531.5 5.02239V3.52239H534.5V5.02239H531.5ZM531.5 14V5.02239H534.5V14H531.5Z" fill="#DF6489"/>
<line y1="-2" x2="10" y2="-2" transform="matrix(0.999994 0.00347806 0.00349542 -0.999994 528 0)" stroke="#07273D" stroke-width="4"/>
<path d="M524.5 14C524.5 14.8284 523.828 15.5 523 15.5C522.172 15.5 521.5 14.8284 521.5 14H524.5ZM521.5 5.02239V3.52239H524.5V5.02239H521.5ZM521.5 14V5.02239H524.5V14H521.5Z" fill="#DF6489"/>
<line y1="-2" x2="10" y2="-2" transform="matrix(0.999994 0.00347806 0.00349542 -0.999994 518 0)" stroke="#07273D" stroke-width="4"/>
<path d="M514.5 14C514.5 14.8284 513.828 15.5 513 15.5C512.172 15.5 511.5 14.8284 511.5 14H514.5ZM511.5 5.02239V3.52239H514.5V5.02239H511.5ZM511.5 14V5.02239H514.5V14H511.5Z" fill="#DF6489"/>
<line y1="-2" x2="10" y2="-2" transform="matrix(0.999994 0.00347806 0.00349542 -0.999994 508 0)" stroke="#07273D" stroke-width="4"/>
<path d="M504.5 14C504.5 14.8284 503.828 15.5 503 15.5C502.172 15.5 501.5 14.8284 501.5 14H504.5ZM501.5 5.02239V3.52239H504.5V5.02239H501.5ZM501.5 14V5.02239H504.5V14H501.5Z" fill="#DF6489"/>
<line y1="-2" x2="10" y2="-2" transform="matrix(0.999994 0.00347806 0.00349542 -0.999994 498 0)" stroke="#07273D" stroke-width="4"/>
<path d="M484.5 14C484.5 14.8284 483.828 15.5 483 15.5C482.172 15.5 481.5 14.8284 481.5 14H484.5ZM481.5 5.02239V3.52239H484.5V5.02239H481.5ZM481.5 14V5.02239H484.5V14H481.5Z" fill="#DF6489"/>
<line y1="-2" x2="10" y2="-2" transform="matrix(0.999994 0.00347806 0.00349542 -0.999994 478 0)" stroke="#07273D" stroke-width="4"/>
<path d="M474.5 14C474.5 14.8284 473.828 15.5 473 15.5C472.172 15.5 471.5 14.8284 471.5 14H474.5ZM471.5 5.02239V3.52239H474.5V5.02239H471.5ZM471.5 14V5.02239H474.5V14H471.5Z" fill="#DF6489"/>
<line y1="-2" x2="10" y2="-2" transform="matrix(0.999994 0.00347806 0.00349542 -0.999994 468 0)" stroke="#07273D" stroke-width="4"/>
<path d="M464.5 14C464.5 14.8284 463.828 15.5 463 15.5C462.172 15.5 461.5 14.8284 461.5 14H464.5ZM461.5 5.02239V3.52239H464.5V5.02239H461.5ZM461.5 14V5.02239H464.5V14H461.5Z" fill="#DF6489"/>
<line y1="-2" x2="10" y2="-2" transform="matrix(0.999994 0.00347806 0.00349542 -0.999994 458 0)" stroke="#07273D" stroke-width="4"/>
<path d="M454.5 14C454.5 14.8284 453.828 15.5 453 15.5C452.172 15.5 451.5 14.8284 451.5 14H454.5ZM451.5 5.02239V3.52239H454.5V5.02239H451.5ZM451.5 14V5.02239H454.5V14H451.5Z" fill="#DF6489"/>
<line y1="-2" x2="10" y2="-2" transform="matrix(0.999994 0.00347806 0.00349542 -0.999994 448 0)" stroke="#07273D" stroke-width="4"/>
<path d="M444.5 14C444.5 14.8284 443.828 15.5 443 15.5C442.172 15.5 441.5 14.8284 441.5 14H444.5ZM441.5 5.02239V3.52239H444.5V5.02239H441.5ZM441.5 14V5.02239H444.5V14H441.5Z" fill="#DF6489"/>
<line y1="-2" x2="10" y2="-2" transform="matrix(0.999994 0.00347806 0.00349542 -0.999994 438 0)" stroke="#07273D" stroke-width="4"/>
<path d="M434.5 14C434.5 14.8284 433.828 15.5 433 15.5C432.172 15.5 431.5 14.8284 431.5 14H434.5ZM431.5 5.02239V3.52239H434.5V5.02239H431.5ZM431.5 14V5.02239H434.5V14H431.5Z" fill="#DF6489"/>
<line y1="-2" x2="10" y2="-2" transform="matrix(0.999994 0.00347806 0.00349542 -0.999994 428 0)" stroke="#07273D" stroke-width="4"/>
<path d="M424.5 14C424.5 14.8284 423.828 15.5 423 15.5C422.172 15.5 421.5 14.8284 421.5 14H424.5ZM421.5 5.02239V3.52239H424.5V5.02239H421.5ZM421.5 14V5.02239H424.5V14H421.5Z" fill="#DF6489"/>
<line y1="-2" x2="10" y2="-2" transform="matrix(0.999994 0.00347806 0.00349542 -0.999994 418 0)" stroke="#07273D" stroke-width="4"/>
<path d="M414.5 14C414.5 14.8284 413.828 15.5 413 15.5C412.172 15.5 411.5 14.8284 411.5 14H414.5ZM411.5 5.02239V3.52239H414.5V5.02239H411.5ZM411.5 14V5.02239H414.5V14H411.5Z" fill="#DF6489"/>
<line y1="-2" x2="10" y2="-2" transform="matrix(0.999994 0.00347806 0.00349542 -0.999994 408 0)" stroke="#07273D" stroke-width="4"/>
<path d="M404.5 14C404.5 14.8284 403.828 15.5 403 15.5C402.172 15.5 401.5 14.8284 401.5 14H404.5ZM401.5 5.02239V3.52239H404.5V5.02239H401.5ZM401.5 14V5.02239H404.5V14H401.5Z" fill="#DF6489"/>
<line y1="-2" x2="10" y2="-2" transform="matrix(0.999994 0.00347806 0.00349542 -0.999994 398 0)" stroke="#07273D" stroke-width="4"/>
<path d="M394.5 14C394.5 14.8284 393.828 15.5 393 15.5C392.172 15.5 391.5 14.8284 391.5 14H394.5ZM391.5 5.02239V3.52239H394.5V5.02239H391.5ZM391.5 14V5.02239H394.5V14H391.5Z" fill="#DF6489"/>
<line y1="-2" x2="10" y2="-2" transform="matrix(0.999994 0.00347806 0.00349542 -0.999994 388 0)" stroke="#07273D" stroke-width="4"/>
<path d="M573.5 14C573.5 14.8284 572.828 15.5 572 15.5C571.172 15.5 570.5 14.8284 570.5 14H573.5ZM570.5 5.02239V3.52239H573.5V5.02239H570.5ZM570.5 14V5.02239H573.5V14H570.5Z" fill="#DF6489"/>
<line y1="-2" x2="10" y2="-2" transform="matrix(0.999994 0.00347806 0.00349542 -0.999994 567 0)" stroke="#07273D" stroke-width="4"/>
<path d="M683.5 14C683.5 14.8284 682.828 15.5 682 15.5C681.172 15.5 680.5 14.8284 680.5 14H683.5ZM680.5 5.02239V3.52239H683.5V5.02239H680.5ZM680.5 14V5.02239H683.5V14H680.5Z" fill="#DF6489"/>
<line y1="-2" x2="10" y2="-2" transform="matrix(0.999994 0.00347806 0.00349542 -0.999994 677 0)" stroke="#07273D" stroke-width="4"/>
<path d="M752.5 14C752.5 14.8284 751.828 15.5 751 15.5C750.172 15.5 749.5 14.8284 749.5 14H752.5ZM749.5 5.02239V3.52239H752.5V5.02239H749.5ZM749.5 14V5.02239H752.5V14H749.5Z" fill="#DF6489"/>
<line y1="-2" x2="10" y2="-2" transform="matrix(0.999994 0.00347806 0.00349542 -0.999994 746 0)" stroke="#07273D" stroke-width="4"/>
<path d="M742.5 14C742.5 14.8284 741.828 15.5 741 15.5C740.172 15.5 739.5 14.8284 739.5 14H742.5ZM739.5 5.02239V3.52239H742.5V5.02239H739.5ZM739.5 14V5.02239H742.5V14H739.5Z" fill="#DF6489"/>
<line y1="-2" x2="10" y2="-2" transform="matrix(0.999994 0.00347806 0.00349542 -0.999994 736 0)" stroke="#07273D" stroke-width="4"/>
<path d="M733.5 14C733.5 14.8284 732.828 15.5 732 15.5C731.172 15.5 730.5 14.8284 730.5 14H733.5ZM730.5 5.02239V3.52239H733.5V5.02239H730.5ZM730.5 14V5.02239H733.5V14H730.5Z" fill="#DF6489"/>
<line y1="-2" x2="10" y2="-2" transform="matrix(0.999994 0.00347806 0.00349542 -0.999994 727 0)" stroke="#07273D" stroke-width="4"/>
<path d="M723.5 14C723.5 14.8284 722.828 15.5 722 15.5C721.172 15.5 720.5 14.8284 720.5 14H723.5ZM720.5 5.02239V3.52239H723.5V5.02239H720.5ZM720.5 14V5.02239H723.5V14H720.5Z" fill="#DF6489"/>
<line y1="-2" x2="10" y2="-2" transform="matrix(0.999994 0.00347806 0.00349542 -0.999994 717 0)" stroke="#07273D" stroke-width="4"/>
<path d="M713.5 14C713.5 14.8284 712.828 15.5 712 15.5C711.172 15.5 710.5 14.8284 710.5 14H713.5ZM710.5 5.02239V3.52239H713.5V5.02239H710.5ZM710.5 14V5.02239H713.5V14H710.5Z" fill="#DF6489"/>
<line y1="-2" x2="10" y2="-2" transform="matrix(0.999994 0.00347806 0.00349542 -0.999994 707 0)" stroke="#07273D" stroke-width="4"/>
<path d="M703.5 14C703.5 14.8284 702.828 15.5 702 15.5C701.172 15.5 700.5 14.8284 700.5 14H703.5ZM700.5 5.02239V3.52239H703.5V5.02239H700.5ZM700.5 14V5.02239H703.5V14H700.5Z" fill="#DF6489"/>
<line y1="-2" x2="10" y2="-2" transform="matrix(0.999994 0.00347806 0.00349542 -0.999994 697 0)" stroke="#07273D" stroke-width="4"/>
<path d="M693.5 14C693.5 14.8284 692.828 15.5 692 15.5C691.172 15.5 690.5 14.8284 690.5 14H693.5ZM690.5 5.02239V3.52239H693.5V5.02239H690.5ZM690.5 14V5.02239H693.5V14H690.5Z" fill="#DF6489"/>
<line y1="-2" x2="10" y2="-2" transform="matrix(0.999994 0.00347806 0.00349542 -0.999994 687 0)" stroke="#07273D" stroke-width="4"/>
<path d="M673.5 14C673.5 14.8284 672.828 15.5 672 15.5C671.172 15.5 670.5 14.8284 670.5 14H673.5ZM670.5 5.02239V3.52239H673.5V5.02239H670.5ZM670.5 14V5.02239H673.5V14H670.5Z" fill="#DF6489"/>
<line y1="-2" x2="10" y2="-2" transform="matrix(0.999994 0.00347806 0.00349542 -0.999994 667 0)" stroke="#07273D" stroke-width="4"/>
<path d="M663.5 14C663.5 14.8284 662.828 15.5 662 15.5C661.172 15.5 660.5 14.8284 660.5 14H663.5ZM660.5 5.02239V3.52239H663.5V5.02239H660.5ZM660.5 14V5.02239H663.5V14H660.5Z" fill="#DF6489"/>
<line y1="-2" x2="10" y2="-2" transform="matrix(0.999994 0.00347806 0.00349542 -0.999994 657 0)" stroke="#07273D" stroke-width="4"/>
<path d="M653.5 14C653.5 14.8284 652.828 15.5 652 15.5C651.172 15.5 650.5 14.8284 650.5 14H653.5ZM650.5 5.02239V3.52239H653.5V5.02239H650.5ZM650.5 14V5.02239H653.5V14H650.5Z" fill="#DF6489"/>
<line y1="-2" x2="10" y2="-2" transform="matrix(0.999994 0.00347806 0.00349542 -0.999994 647 0)" stroke="#07273D" stroke-width="4"/>
<path d="M643.5 14C643.5 14.8284 642.828 15.5 642 15.5C641.172 15.5 640.5 14.8284 640.5 14H643.5ZM640.5 5.02239V3.52239H643.5V5.02239H640.5ZM640.5 14V5.02239H643.5V14H640.5Z" fill="#DF6489"/>
<line y1="-2" x2="10" y2="-2" transform="matrix(0.999994 0.00347806 0.00349542 -0.999994 637 0)" stroke="#07273D" stroke-width="4"/>
<path d="M633.5 14C633.5 14.8284 632.828 15.5 632 15.5C631.172 15.5 630.5 14.8284 630.5 14H633.5ZM630.5 5.02239V3.52239H633.5V5.02239H630.5ZM630.5 14V5.02239H633.5V14H630.5Z" fill="#DF6489"/>
<line y1="-2" x2="10" y2="-2" transform="matrix(0.999994 0.00347806 0.00349542 -0.999994 627 0)" stroke="#07273D" stroke-width="4"/>
<path d="M623.5 14C623.5 14.8284 622.828 15.5 622 15.5C621.172 15.5 620.5 14.8284 620.5 14H623.5ZM620.5 5.02239V3.52239H623.5V5.02239H620.5ZM620.5 14V5.02239H623.5V14H620.5Z" fill="#DF6489"/>
<line y1="-2" x2="10" y2="-2" transform="matrix(0.999994 0.00347806 0.00349542 -0.999994 617 0)" stroke="#07273D" stroke-width="4"/>
<path d="M613.5 14C613.5 14.8284 612.828 15.5 612 15.5C611.172 15.5 610.5 14.8284 610.5 14H613.5ZM610.5 5.02239V3.52239H613.5V5.02239H610.5ZM610.5 14V5.02239H613.5V14H610.5Z" fill="#DF6489"/>
<line y1="-2" x2="10" y2="-2" transform="matrix(0.999994 0.00347806 0.00349542 -0.999994 607 0)" stroke="#07273D" stroke-width="4"/>
<path d="M603.5 14C603.5 14.8284 602.828 15.5 602 15.5C601.172 15.5 600.5 14.8284 600.5 14H603.5ZM600.5 5.02239V3.52239H603.5V5.02239H600.5ZM600.5 14V5.02239H603.5V14H600.5Z" fill="#DF6489"/>
<line y1="-2" x2="10" y2="-2" transform="matrix(0.999994 0.00347806 0.00349542 -0.999994 597 0)" stroke="#07273D" stroke-width="4"/>
<path d="M593.5 14C593.5 14.8284 592.828 15.5 592 15.5C591.172 15.5 590.5 14.8284 590.5 14H593.5ZM590.5 5.02239V3.52239H593.5V5.02239H590.5ZM590.5 14V5.02239H593.5V14H590.5Z" fill="#DF6489"/>
<line y1="-2" x2="10" y2="-2" transform="matrix(0.999994 0.00347806 0.00349542 -0.999994 587 0)" stroke="#07273D" stroke-width="4"/>
<path d="M583.5 14C583.5 14.8284 582.828 15.5 582 15.5C581.172 15.5 580.5 14.8284 580.5 14H583.5ZM580.5 5.02239V3.52239H583.5V5.02239H580.5ZM580.5 14V5.02239H583.5V14H580.5Z" fill="#DF6489"/>
<line y1="-2" x2="10" y2="-2" transform="matrix(0.999994 0.00347806 0.00349542 -0.999994 577 0)" stroke="#07273D" stroke-width="4"/>
<path d="M762.5 14C762.5 14.8284 761.828 15.5 761 15.5C760.172 15.5 759.5 14.8284 759.5 14H762.5ZM759.5 5.02239V3.52239H762.5V5.02239H759.5ZM759.5 14V5.02239H762.5V14H759.5Z" fill="#DF6489"/>
<line y1="-2" x2="10" y2="-2" transform="matrix(0.999994 0.00347806 0.00349542 -0.999994 756 0)" stroke="#07273D" stroke-width="4"/>
<path d="M872.5 14C872.5 14.8284 871.828 15.5 871 15.5C870.172 15.5 869.5 14.8284 869.5 14H872.5ZM869.5 5.02239V3.52239H872.5V5.02239H869.5ZM869.5 14V5.02239H872.5V14H869.5Z" fill="#DF6489"/>
<line y1="-2" x2="10" y2="-2" transform="matrix(0.999994 0.00347806 0.00349542 -0.999994 866 0)" stroke="#07273D" stroke-width="4"/>
<path d="M941.5 14C941.5 14.8284 940.828 15.5 940 15.5C939.172 15.5 938.5 14.8284 938.5 14H941.5ZM938.5 5.02239V3.52239H941.5V5.02239H938.5ZM938.5 14V5.02239H941.5V14H938.5Z" fill="#DF6489"/>
<line y1="-2" x2="10" y2="-2" transform="matrix(0.999994 0.00347806 0.00349542 -0.999994 935 0)" stroke="#07273D" stroke-width="4"/>
<path d="M931.5 14C931.5 14.8284 930.828 15.5 930 15.5C929.172 15.5 928.5 14.8284 928.5 14H931.5ZM928.5 5.02239V3.52239H931.5V5.02239H928.5ZM928.5 14V5.02239H931.5V14H928.5Z" fill="#DF6489"/>
<line y1="-2" x2="10" y2="-2" transform="matrix(0.999994 0.00347806 0.00349542 -0.999994 925 0)" stroke="#07273D" stroke-width="4"/>
<path d="M922.5 14C922.5 14.8284 921.828 15.5 921 15.5C920.172 15.5 919.5 14.8284 919.5 14H922.5ZM919.5 5.02239V3.52239H922.5V5.02239H919.5ZM919.5 14V5.02239H922.5V14H919.5Z" fill="#DF6489"/>
<line y1="-2" x2="10" y2="-2" transform="matrix(0.999994 0.00347806 0.00349542 -0.999994 916 0)" stroke="#07273D" stroke-width="4"/>
<path d="M912.5 14C912.5 14.8284 911.828 15.5 911 15.5C910.172 15.5 909.5 14.8284 909.5 14H912.5ZM909.5 5.02239V3.52239H912.5V5.02239H909.5ZM909.5 14V5.02239H912.5V14H909.5Z" fill="#DF6489"/>
<line y1="-2" x2="10" y2="-2" transform="matrix(0.999994 0.00347806 0.00349542 -0.999994 906 0)" stroke="#07273D" stroke-width="4"/>
<path d="M902.5 14C902.5 14.8284 901.828 15.5 901 15.5C900.172 15.5 899.5 14.8284 899.5 14H902.5ZM899.5 5.02239V3.52239H902.5V5.02239H899.5ZM899.5 14V5.02239H902.5V14H899.5Z" fill="#DF6489"/>
<line y1="-2" x2="10" y2="-2" transform="matrix(0.999994 0.00347806 0.00349542 -0.999994 896 0)" stroke="#07273D" stroke-width="4"/>
<path d="M892.5 14C892.5 14.8284 891.828 15.5 891 15.5C890.172 15.5 889.5 14.8284 889.5 14H892.5ZM889.5 5.02239V3.52239H892.5V5.02239H889.5ZM889.5 14V5.02239H892.5V14H889.5Z" fill="#DF6489"/>
<line y1="-2" x2="10" y2="-2" transform="matrix(0.999994 0.00347806 0.00349542 -0.999994 886 0)" stroke="#07273D" stroke-width="4"/>
<path d="M882.5 14C882.5 14.8284 881.828 15.5 881 15.5C880.172 15.5 879.5 14.8284 879.5 14H882.5ZM879.5 5.02239V3.52239H882.5V5.02239H879.5ZM879.5 14V5.02239H882.5V14H879.5Z" fill="#DF6489"/>
<line y1="-2" x2="10" y2="-2" transform="matrix(0.999994 0.00347806 0.00349542 -0.999994 876 0)" stroke="#07273D" stroke-width="4"/>
<path d="M862.5 14C862.5 14.8284 861.828 15.5 861 15.5C860.172 15.5 859.5 14.8284 859.5 14H862.5ZM859.5 5.02239V3.52239H862.5V5.02239H859.5ZM859.5 14V5.02239H862.5V14H859.5Z" fill="#DF6489"/>
<line y1="-2" x2="10" y2="-2" transform="matrix(0.999994 0.00347806 0.00349542 -0.999994 856 0)" stroke="#07273D" stroke-width="4"/>
<path d="M852.5 14C852.5 14.8284 851.828 15.5 851 15.5C850.172 15.5 849.5 14.8284 849.5 14H852.5ZM849.5 5.02239V3.52239H852.5V5.02239H849.5ZM849.5 14V5.02239H852.5V14H849.5Z" fill="#DF6489"/>
<line y1="-2" x2="10" y2="-2" transform="matrix(0.999994 0.00347806 0.00349542 -0.999994 846 0)" stroke="#07273D" stroke-width="4"/>
<path d="M842.5 14C842.5 14.8284 841.828 15.5 841 15.5C840.172 15.5 839.5 14.8284 839.5 14H842.5ZM839.5 5.02239V3.52239H842.5V5.02239H839.5ZM839.5 14V5.02239H842.5V14H839.5Z" fill="#DF6489"/>
<line y1="-2" x2="10" y2="-2" transform="matrix(0.999994 0.00347806 0.00349542 -0.999994 836 0)" stroke="#07273D" stroke-width="4"/>
<path d="M832.5 14C832.5 14.8284 831.828 15.5 831 15.5C830.172 15.5 829.5 14.8284 829.5 14H832.5ZM829.5 5.02239V3.52239H832.5V5.02239H829.5ZM829.5 14V5.02239H832.5V14H829.5Z" fill="#DF6489"/>
<line y1="-2" x2="10" y2="-2" transform="matrix(0.999994 0.00347806 0.00349542 -0.999994 826 0)" stroke="#07273D" stroke-width="4"/>
<path d="M822.5 14C822.5 14.8284 821.828 15.5 821 15.5C820.172 15.5 819.5 14.8284 819.5 14H822.5ZM819.5 5.02239V3.52239H822.5V5.02239H819.5ZM819.5 14V5.02239H822.5V14H819.5Z" fill="#DF6489"/>
<line y1="-2" x2="10" y2="-2" transform="matrix(0.999994 0.00347806 0.00349542 -0.999994 816 0)" stroke="#07273D" stroke-width="4"/>
<path d="M812.5 14C812.5 14.8284 811.828 15.5 811 15.5C810.172 15.5 809.5 14.8284 809.5 14H812.5ZM809.5 5.02239V3.52239H812.5V5.02239H809.5ZM809.5 14V5.02239H812.5V14H809.5Z" fill="#DF6489"/>
<line y1="-2" x2="10" y2="-2" transform="matrix(0.999994 0.00347806 0.00349542 -0.999994 806 0)" stroke="#07273D" stroke-width="4"/>
<path d="M802.5 14C802.5 14.8284 801.828 15.5 801 15.5C800.172 15.5 799.5 14.8284 799.5 14H802.5ZM799.5 5.02239V3.52239H802.5V5.02239H799.5ZM799.5 14V5.02239H802.5V14H799.5Z" fill="#DF6489"/>
<line y1="-2" x2="10" y2="-2" transform="matrix(0.999994 0.00347806 0.00349542 -0.999994 796 0)" stroke="#07273D" stroke-width="4"/>
<path d="M792.5 14C792.5 14.8284 791.828 15.5 791 15.5C790.172 15.5 789.5 14.8284 789.5 14H792.5ZM789.5 5.02239V3.52239H792.5V5.02239H789.5ZM789.5 14V5.02239H792.5V14H789.5Z" fill="#DF6489"/>
<line y1="-2" x2="10" y2="-2" transform="matrix(0.999994 0.00347806 0.00349542 -0.999994 786 0)" stroke="#07273D" stroke-width="4"/>
<path d="M782.5 14C782.5 14.8284 781.828 15.5 781 15.5C780.172 15.5 779.5 14.8284 779.5 14H782.5ZM779.5 5.02239V3.52239H782.5V5.02239H779.5ZM779.5 14V5.02239H782.5V14H779.5Z" fill="#DF6489"/>
<line y1="-2" x2="10" y2="-2" transform="matrix(0.999994 0.00347806 0.00349542 -0.999994 776 0)" stroke="#07273D" stroke-width="4"/>
<path d="M772.5 14C772.5 14.8284 771.828 15.5 771 15.5C770.172 15.5 769.5 14.8284 769.5 14H772.5ZM769.5 5.02239V3.52239H772.5V5.02239H769.5ZM769.5 14V5.02239H772.5V14H769.5Z" fill="#DF6489"/>
<line y1="-2" x2="10" y2="-2" transform="matrix(0.999994 0.00347806 0.00349542 -0.999994 766 0)" stroke="#07273D" stroke-width="4"/>
<path d="M951.5 14C951.5 14.8284 950.828 15.5 950 15.5C949.172 15.5 948.5 14.8284 948.5 14H951.5ZM948.5 5.02239V3.52239H951.5V5.02239H948.5ZM948.5 14V5.02239H951.5V14H948.5Z" fill="#DF6489"/>
<line y1="-2" x2="10" y2="-2" transform="matrix(0.999994 0.00347806 0.00349542 -0.999994 945 0)" stroke="#07273D" stroke-width="4"/>
<path d="M1061.5 14C1061.5 14.8284 1060.83 15.5 1060 15.5C1059.17 15.5 1058.5 14.8284 1058.5 14H1061.5ZM1058.5 5.02239V3.52239H1061.5V5.02239H1058.5ZM1058.5 14V5.02239H1061.5V14H1058.5Z" fill="#DF6489"/>
<line y1="-2" x2="10" y2="-2" transform="matrix(0.999994 0.00347806 0.00349542 -0.999994 1055 0)" stroke="#07273D" stroke-width="4"/>
<path d="M1130.5 14C1130.5 14.8284 1129.83 15.5 1129 15.5C1128.17 15.5 1127.5 14.8284 1127.5 14H1130.5ZM1127.5 5.02239V3.52239H1130.5V5.02239H1127.5ZM1127.5 14V5.02239H1130.5V14H1127.5Z" fill="#DF6489"/>
<line y1="-2" x2="10" y2="-2" transform="matrix(0.999994 0.00347806 0.00349542 -0.999994 1124 0)" stroke="#07273D" stroke-width="4"/>
<path d="M1120.5 14C1120.5 14.8284 1119.83 15.5 1119 15.5C1118.17 15.5 1117.5 14.8284 1117.5 14H1120.5ZM1117.5 5.02239V3.52239H1120.5V5.02239H1117.5ZM1117.5 14V5.02239H1120.5V14H1117.5Z" fill="#DF6489"/>
<line y1="-2" x2="10" y2="-2" transform="matrix(0.999994 0.00347806 0.00349542 -0.999994 1114 0)" stroke="#07273D" stroke-width="4"/>
<path d="M1111.5 14C1111.5 14.8284 1110.83 15.5 1110 15.5C1109.17 15.5 1108.5 14.8284 1108.5 14H1111.5ZM1108.5 5.02239V3.52239H1111.5V5.02239H1108.5ZM1108.5 14V5.02239H1111.5V14H1108.5Z" fill="#DF6489"/>
<line y1="-2" x2="10" y2="-2" transform="matrix(0.999994 0.00347806 0.00349542 -0.999994 1105 0)" stroke="#07273D" stroke-width="4"/>
<path d="M1101.5 14C1101.5 14.8284 1100.83 15.5 1100 15.5C1099.17 15.5 1098.5 14.8284 1098.5 14H1101.5ZM1098.5 5.02239V3.52239H1101.5V5.02239H1098.5ZM1098.5 14V5.02239H1101.5V14H1098.5Z" fill="#DF6489"/>
<line y1="-2" x2="10" y2="-2" transform="matrix(0.999994 0.00347806 0.00349542 -0.999994 1095 0)" stroke="#07273D" stroke-width="4"/>
<path d="M1091.5 14C1091.5 14.8284 1090.83 15.5 1090 15.5C1089.17 15.5 1088.5 14.8284 1088.5 14H1091.5ZM1088.5 5.02239V3.52239H1091.5V5.02239H1088.5ZM1088.5 14V5.02239H1091.5V14H1088.5Z" fill="#DF6489"/>
<line y1="-2" x2="10" y2="-2" transform="matrix(0.999994 0.00347806 0.00349542 -0.999994 1085 0)" stroke="#07273D" stroke-width="4"/>
<path d="M1081.5 14C1081.5 14.8284 1080.83 15.5 1080 15.5C1079.17 15.5 1078.5 14.8284 1078.5 14H1081.5ZM1078.5 5.02239V3.52239H1081.5V5.02239H1078.5ZM1078.5 14V5.02239H1081.5V14H1078.5Z" fill="#DF6489"/>
<line y1="-2" x2="10" y2="-2" transform="matrix(0.999994 0.00347806 0.00349542 -0.999994 1075 0)" stroke="#07273D" stroke-width="4"/>
<path d="M1071.5 14C1071.5 14.8284 1070.83 15.5 1070 15.5C1069.17 15.5 1068.5 14.8284 1068.5 14H1071.5ZM1068.5 5.02239V3.52239H1071.5V5.02239H1068.5ZM1068.5 14V5.02239H1071.5V14H1068.5Z" fill="#DF6489"/>
<line y1="-2" x2="10" y2="-2" transform="matrix(0.999994 0.00347806 0.00349542 -0.999994 1065 0)" stroke="#07273D" stroke-width="4"/>
<path d="M1051.5 14C1051.5 14.8284 1050.83 15.5 1050 15.5C1049.17 15.5 1048.5 14.8284 1048.5 14H1051.5ZM1048.5 5.02239V3.52239H1051.5V5.02239H1048.5ZM1048.5 14V5.02239H1051.5V14H1048.5Z" fill="#DF6489"/>
<line y1="-2" x2="10" y2="-2" transform="matrix(0.999994 0.00347806 0.00349542 -0.999994 1045 0)" stroke="#07273D" stroke-width="4"/>
<path d="M1041.5 14C1041.5 14.8284 1040.83 15.5 1040 15.5C1039.17 15.5 1038.5 14.8284 1038.5 14H1041.5ZM1038.5 5.02239V3.52239H1041.5V5.02239H1038.5ZM1038.5 14V5.02239H1041.5V14H1038.5Z" fill="#DF6489"/>
<line y1="-2" x2="10" y2="-2" transform="matrix(0.999994 0.00347806 0.00349542 -0.999994 1035 0)" stroke="#07273D" stroke-width="4"/>
<path d="M1031.5 14C1031.5 14.8284 1030.83 15.5 1030 15.5C1029.17 15.5 1028.5 14.8284 1028.5 14H1031.5ZM1028.5 5.02239V3.52239H1031.5V5.02239H1028.5ZM1028.5 14V5.02239H1031.5V14H1028.5Z" fill="#DF6489"/>
<line y1="-2" x2="10" y2="-2" transform="matrix(0.999994 0.00347806 0.00349542 -0.999994 1025 0)" stroke="#07273D" stroke-width="4"/>
<path d="M1021.5 14C1021.5 14.8284 1020.83 15.5 1020 15.5C1019.17 15.5 1018.5 14.8284 1018.5 14H1021.5ZM1018.5 5.02239V3.52239H1021.5V5.02239H1018.5ZM1018.5 14V5.02239H1021.5V14H1018.5Z" fill="#DF6489"/>
<line y1="-2" x2="10" y2="-2" transform="matrix(0.999994 0.00347806 0.00349542 -0.999994 1015 0)" stroke="#07273D" stroke-width="4"/>
<path d="M1011.5 14C1011.5 14.8284 1010.83 15.5 1010 15.5C1009.17 15.5 1008.5 14.8284 1008.5 14H1011.5ZM1008.5 5.02239V3.52239H1011.5V5.02239H1008.5ZM1008.5 14V5.02239H1011.5V14H1008.5Z" fill="#DF6489"/>
<line y1="-2" x2="10" y2="-2" transform="matrix(0.999994 0.00347806 0.00349542 -0.999994 1005 0)" stroke="#07273D" stroke-width="4"/>
<path d="M1001.5 14C1001.5 14.8284 1000.83 15.5 1000 15.5C999.172 15.5 998.5 14.8284 998.5 14H1001.5ZM998.5 5.02239V3.52239H1001.5V5.02239H998.5ZM998.5 14V5.02239H1001.5V14H998.5Z" fill="#DF6489"/>
<line y1="-2" x2="10" y2="-2" transform="matrix(0.999994 0.00347806 0.00349542 -0.999994 995 0)" stroke="#07273D" stroke-width="4"/>
<path d="M991.5 14C991.5 14.8284 990.828 15.5 990 15.5C989.172 15.5 988.5 14.8284 988.5 14H991.5ZM988.5 5.02239V3.52239H991.5V5.02239H988.5ZM988.5 14V5.02239H991.5V14H988.5Z" fill="#DF6489"/>
<line y1="-2" x2="10" y2="-2" transform="matrix(0.999994 0.00347806 0.00349542 -0.999994 985 0)" stroke="#07273D" stroke-width="4"/>
<path d="M981.5 14C981.5 14.8284 980.828 15.5 980 15.5C979.172 15.5 978.5 14.8284 978.5 14H981.5ZM978.5 5.02239V3.52239H981.5V5.02239H978.5ZM978.5 14V5.02239H981.5V14H978.5Z" fill="#DF6489"/>
<line y1="-2" x2="10" y2="-2" transform="matrix(0.999994 0.00347806 0.00349542 -0.999994 975 0)" stroke="#07273D" stroke-width="4"/>
<path d="M971.5 14C971.5 14.8284 970.828 15.5 970 15.5C969.172 15.5 968.5 14.8284 968.5 14H971.5ZM968.5 5.02239V3.52239H971.5V5.02239H968.5ZM968.5 14V5.02239H971.5V14H968.5Z" fill="#DF6489"/>
<line y1="-2" x2="10" y2="-2" transform="matrix(0.999994 0.00347806 0.00349542 -0.999994 965 0)" stroke="#07273D" stroke-width="4"/>
<path d="M961.5 14C961.5 14.8284 960.828 15.5 960 15.5C959.172 15.5 958.5 14.8284 958.5 14H961.5ZM958.5 5.02239V3.52239H961.5V5.02239H958.5ZM958.5 14V5.02239H961.5V14H958.5Z" fill="#DF6489"/>
<line y1="-2" x2="10" y2="-2" transform="matrix(0.999994 0.00347806 0.00349542 -0.999994 955 0)" stroke="#07273D" stroke-width="4"/>
<path d="M1140.5 14C1140.5 14.8284 1139.83 15.5 1139 15.5C1138.17 15.5 1137.5 14.8284 1137.5 14H1140.5ZM1137.5 5.02239V3.52239H1140.5V5.02239H1137.5ZM1137.5 14V5.02239H1140.5V14H1137.5Z" fill="#DF6489"/>
<line y1="-2" x2="10" y2="-2" transform="matrix(0.999994 0.00347806 0.00349542 -0.999994 1134 0)" stroke="#07273D" stroke-width="4"/>
<path d="M1250.5 14C1250.5 14.8284 1249.83 15.5 1249 15.5C1248.17 15.5 1247.5 14.8284 1247.5 14H1250.5ZM1247.5 5.02239V3.52239H1250.5V5.02239H1247.5ZM1247.5 14V5.02239H1250.5V14H1247.5Z" fill="#DF6489"/>
<line y1="-2" x2="10" y2="-2" transform="matrix(0.999994 0.00347806 0.00349542 -0.999994 1244 0)" stroke="#07273D" stroke-width="4"/>
<path d="M1319.5 14C1319.5 14.8284 1318.83 15.5 1318 15.5C1317.17 15.5 1316.5 14.8284 1316.5 14H1319.5ZM1316.5 5.02239V3.52239H1319.5V5.02239H1316.5ZM1316.5 14V5.02239H1319.5V14H1316.5Z" fill="#DF6489"/>
<line y1="-2" x2="10" y2="-2" transform="matrix(0.999994 0.00347806 0.00349542 -0.999994 1313 0)" stroke="#07273D" stroke-width="4"/>
<path d="M1309.5 14C1309.5 14.8284 1308.83 15.5 1308 15.5C1307.17 15.5 1306.5 14.8284 1306.5 14H1309.5ZM1306.5 5.02239V3.52239H1309.5V5.02239H1306.5ZM1306.5 14V5.02239H1309.5V14H1306.5Z" fill="#DF6489"/>
<line y1="-2" x2="10" y2="-2" transform="matrix(0.999994 0.00347806 0.00349542 -0.999994 1303 0)" stroke="#07273D" stroke-width="4"/>
<path d="M1300.5 14C1300.5 14.8284 1299.83 15.5 1299 15.5C1298.17 15.5 1297.5 14.8284 1297.5 14H1300.5ZM1297.5 5.02239V3.52239H1300.5V5.02239H1297.5ZM1297.5 14V5.02239H1300.5V14H1297.5Z" fill="#DF6489"/>
<line y1="-2" x2="10" y2="-2" transform="matrix(0.999994 0.00347806 0.00349542 -0.999994 1294 0)" stroke="#07273D" stroke-width="4"/>
<path d="M1290.5 14C1290.5 14.8284 1289.83 15.5 1289 15.5C1288.17 15.5 1287.5 14.8284 1287.5 14H1290.5ZM1287.5 5.02239V3.52239H1290.5V5.02239H1287.5ZM1287.5 14V5.02239H1290.5V14H1287.5Z" fill="#DF6489"/>
<line y1="-2" x2="10" y2="-2" transform="matrix(0.999994 0.00347806 0.00349542 -0.999994 1284 0)" stroke="#07273D" stroke-width="4"/>
<path d="M1280.5 14C1280.5 14.8284 1279.83 15.5 1279 15.5C1278.17 15.5 1277.5 14.8284 1277.5 14H1280.5ZM1277.5 5.02239V3.52239H1280.5V5.02239H1277.5ZM1277.5 14V5.02239H1280.5V14H1277.5Z" fill="#DF6489"/>
<line y1="-2" x2="10" y2="-2" transform="matrix(0.999994 0.00347806 0.00349542 -0.999994 1274 0)" stroke="#07273D" stroke-width="4"/>
<path d="M1270.5 14C1270.5 14.8284 1269.83 15.5 1269 15.5C1268.17 15.5 1267.5 14.8284 1267.5 14H1270.5ZM1267.5 5.02239V3.52239H1270.5V5.02239H1267.5ZM1267.5 14V5.02239H1270.5V14H1267.5Z" fill="#DF6489"/>
<line y1="-2" x2="10" y2="-2" transform="matrix(0.999994 0.00347806 0.00349542 -0.999994 1264 0)" stroke="#07273D" stroke-width="4"/>
<path d="M1260.5 14C1260.5 14.8284 1259.83 15.5 1259 15.5C1258.17 15.5 1257.5 14.8284 1257.5 14H1260.5ZM1257.5 5.02239V3.52239H1260.5V5.02239H1257.5ZM1257.5 14V5.02239H1260.5V14H1257.5Z" fill="#DF6489"/>
<line y1="-2" x2="10" y2="-2" transform="matrix(0.999994 0.00347806 0.00349542 -0.999994 1254 0)" stroke="#07273D" stroke-width="4"/>
<path d="M1240.5 14C1240.5 14.8284 1239.83 15.5 1239 15.5C1238.17 15.5 1237.5 14.8284 1237.5 14H1240.5ZM1237.5 5.02239V3.52239H1240.5V5.02239H1237.5ZM1237.5 14V5.02239H1240.5V14H1237.5Z" fill="#DF6489"/>
<line y1="-2" x2="10" y2="-2" transform="matrix(0.999994 0.00347806 0.00349542 -0.999994 1234 0)" stroke="#07273D" stroke-width="4"/>
<path d="M1230.5 14C1230.5 14.8284 1229.83 15.5 1229 15.5C1228.17 15.5 1227.5 14.8284 1227.5 14H1230.5ZM1227.5 5.02239V3.52239H1230.5V5.02239H1227.5ZM1227.5 14V5.02239H1230.5V14H1227.5Z" fill="#DF6489"/>
<line y1="-2" x2="10" y2="-2" transform="matrix(0.999994 0.00347806 0.00349542 -0.999994 1224 0)" stroke="#07273D" stroke-width="4"/>
<path d="M1220.5 14C1220.5 14.8284 1219.83 15.5 1219 15.5C1218.17 15.5 1217.5 14.8284 1217.5 14H1220.5ZM1217.5 5.02239V3.52239H1220.5V5.02239H1217.5ZM1217.5 14V5.02239H1220.5V14H1217.5Z" fill="#DF6489"/>
<line y1="-2" x2="10" y2="-2" transform="matrix(0.999994 0.00347806 0.00349542 -0.999994 1214 0)" stroke="#07273D" stroke-width="4"/>
<path d="M1210.5 14C1210.5 14.8284 1209.83 15.5 1209 15.5C1208.17 15.5 1207.5 14.8284 1207.5 14H1210.5ZM1207.5 5.02239V3.52239H1210.5V5.02239H1207.5ZM1207.5 14V5.02239H1210.5V14H1207.5Z" fill="#DF6489"/>
<line y1="-2" x2="10" y2="-2" transform="matrix(0.999994 0.00347806 0.00349542 -0.999994 1204 0)" stroke="#07273D" stroke-width="4"/>
<path d="M1200.5 14C1200.5 14.8284 1199.83 15.5 1199 15.5C1198.17 15.5 1197.5 14.8284 1197.5 14H1200.5ZM1197.5 5.02239V3.52239H1200.5V5.02239H1197.5ZM1197.5 14V5.02239H1200.5V14H1197.5Z" fill="#DF6489"/>
<line y1="-2" x2="10" y2="-2" transform="matrix(0.999994 0.00347806 0.00349542 -0.999994 1194 0)" stroke="#07273D" stroke-width="4"/>
<path d="M1190.5 14C1190.5 14.8284 1189.83 15.5 1189 15.5C1188.17 15.5 1187.5 14.8284 1187.5 14H1190.5ZM1187.5 5.02239V3.52239H1190.5V5.02239H1187.5ZM1187.5 14V5.02239H1190.5V14H1187.5Z" fill="#DF6489"/>
<line y1="-2" x2="10" y2="-2" transform="matrix(0.999994 0.00347806 0.00349542 -0.999994 1184 0)" stroke="#07273D" stroke-width="4"/>
<path d="M1180.5 14C1180.5 14.8284 1179.83 15.5 1179 15.5C1178.17 15.5 1177.5 14.8284 1177.5 14H1180.5ZM1177.5 5.02239V3.52239H1180.5V5.02239H1177.5ZM1177.5 14V5.02239H1180.5V14H1177.5Z" fill="#DF6489"/>
<line y1="-2" x2="10" y2="-2" transform="matrix(0.999994 0.00347806 0.00349542 -0.999994 1174 0)" stroke="#07273D" stroke-width="4"/>
<path d="M1170.5 14C1170.5 14.8284 1169.83 15.5 1169 15.5C1168.17 15.5 1167.5 14.8284 1167.5 14H1170.5ZM1167.5 5.02239V3.52239H1170.5V5.02239H1167.5ZM1167.5 14V5.02239H1170.5V14H1167.5Z" fill="#DF6489"/>
<line y1="-2" x2="10" y2="-2" transform="matrix(0.999994 0.00347806 0.00349542 -0.999994 1164 0)" stroke="#07273D" stroke-width="4"/>
<path d="M1160.5 14C1160.5 14.8284 1159.83 15.5 1159 15.5C1158.17 15.5 1157.5 14.8284 1157.5 14H1160.5ZM1157.5 5.02239V3.52239H1160.5V5.02239H1157.5ZM1157.5 14V5.02239H1160.5V14H1157.5Z" fill="#DF6489"/>
<line y1="-2" x2="10" y2="-2" transform="matrix(0.999994 0.00347806 0.00349542 -0.999994 1154 0)" stroke="#07273D" stroke-width="4"/>
<path d="M1150.5 14C1150.5 14.8284 1149.83 15.5 1149 15.5C1148.17 15.5 1147.5 14.8284 1147.5 14H1150.5ZM1147.5 5.02239V3.52239H1150.5V5.02239H1147.5ZM1147.5 14V5.02239H1150.5V14H1147.5Z" fill="#DF6489"/>
<line y1="-2" x2="10" y2="-2" transform="matrix(0.999994 0.00347806 0.00349542 -0.999994 1144 0)" stroke="#07273D" stroke-width="4"/>
<path d="M1329.5 14C1329.5 14.8284 1328.83 15.5 1328 15.5C1327.17 15.5 1326.5 14.8284 1326.5 14H1329.5ZM1326.5 5.02239V3.52239H1329.5V5.02239H1326.5ZM1326.5 14V5.02239H1329.5V14H1326.5Z" fill="#DF6489"/>
<line y1="-2" x2="10" y2="-2" transform="matrix(0.999994 0.00347806 0.00349542 -0.999994 1323 0)" stroke="#07273D" stroke-width="4"/>
<path d="M1439.5 14C1439.5 14.8284 1438.83 15.5 1438 15.5C1437.17 15.5 1436.5 14.8284 1436.5 14H1439.5ZM1436.5 5.02239V3.52239H1439.5V5.02239H1436.5ZM1436.5 14V5.02239H1439.5V14H1436.5Z" fill="#DF6489"/>
<line y1="-2" x2="10" y2="-2" transform="matrix(0.999994 0.00347806 0.00349542 -0.999994 1433 0)" stroke="#07273D" stroke-width="4"/>
<path d="M1429.5 14C1429.5 14.8284 1428.83 15.5 1428 15.5C1427.17 15.5 1426.5 14.8284 1426.5 14H1429.5ZM1426.5 5.02239V3.52239H1429.5V5.02239H1426.5ZM1426.5 14V5.02239H1429.5V14H1426.5Z" fill="#DF6489"/>
<line y1="-2" x2="10" y2="-2" transform="matrix(0.999994 0.00347806 0.00349542 -0.999994 1423 0)" stroke="#07273D" stroke-width="4"/>
<path d="M1419.5 14C1419.5 14.8284 1418.83 15.5 1418 15.5C1417.17 15.5 1416.5 14.8284 1416.5 14H1419.5ZM1416.5 5.02239V3.52239H1419.5V5.02239H1416.5ZM1416.5 14V5.02239H1419.5V14H1416.5Z" fill="#DF6489"/>
<line y1="-2" x2="10" y2="-2" transform="matrix(0.999994 0.00347806 0.00349542 -0.999994 1413 0)" stroke="#07273D" stroke-width="4"/>
<path d="M1409.5 14C1409.5 14.8284 1408.83 15.5 1408 15.5C1407.17 15.5 1406.5 14.8284 1406.5 14H1409.5ZM1406.5 5.02239V3.52239H1409.5V5.02239H1406.5ZM1406.5 14V5.02239H1409.5V14H1406.5Z" fill="#DF6489"/>
<line y1="-2" x2="10" y2="-2" transform="matrix(0.999994 0.00347806 0.00349542 -0.999994 1403 0)" stroke="#07273D" stroke-width="4"/>
<path d="M1399.5 14C1399.5 14.8284 1398.83 15.5 1398 15.5C1397.17 15.5 1396.5 14.8284 1396.5 14H1399.5ZM1396.5 5.02239V3.52239H1399.5V5.02239H1396.5ZM1396.5 14V5.02239H1399.5V14H1396.5Z" fill="#DF6489"/>
<line y1="-2" x2="10" y2="-2" transform="matrix(0.999994 0.00347806 0.00349542 -0.999994 1393 0)" stroke="#07273D" stroke-width="4"/>
<path d="M1389.5 14C1389.5 14.8284 1388.83 15.5 1388 15.5C1387.17 15.5 1386.5 14.8284 1386.5 14H1389.5ZM1386.5 5.02239V3.52239H1389.5V5.02239H1386.5ZM1386.5 14V5.02239H1389.5V14H1386.5Z" fill="#DF6489"/>
<line y1="-2" x2="10" y2="-2" transform="matrix(0.999994 0.00347806 0.00349542 -0.999994 1383 0)" stroke="#07273D" stroke-width="4"/>
<path d="M1379.5 14C1379.5 14.8284 1378.83 15.5 1378 15.5C1377.17 15.5 1376.5 14.8284 1376.5 14H1379.5ZM1376.5 5.02239V3.52239H1379.5V5.02239H1376.5ZM1376.5 14V5.02239H1379.5V14H1376.5Z" fill="#DF6489"/>
<line y1="-2" x2="10" y2="-2" transform="matrix(0.999994 0.00347806 0.00349542 -0.999994 1373 0)" stroke="#07273D" stroke-width="4"/>
<path d="M1369.5 14C1369.5 14.8284 1368.83 15.5 1368 15.5C1367.17 15.5 1366.5 14.8284 1366.5 14H1369.5ZM1366.5 5.02239V3.52239H1369.5V5.02239H1366.5ZM1366.5 14V5.02239H1369.5V14H1366.5Z" fill="#DF6489"/>
<line y1="-2" x2="10" y2="-2" transform="matrix(0.999994 0.00347806 0.00349542 -0.999994 1363 0)" stroke="#07273D" stroke-width="4"/>
<path d="M1359.5 14C1359.5 14.8284 1358.83 15.5 1358 15.5C1357.17 15.5 1356.5 14.8284 1356.5 14H1359.5ZM1356.5 5.02239V3.52239H1359.5V5.02239H1356.5ZM1356.5 14V5.02239H1359.5V14H1356.5Z" fill="#DF6489"/>
<line y1="-2" x2="10" y2="-2" transform="matrix(0.999994 0.00347806 0.00349542 -0.999994 1353 0)" stroke="#07273D" stroke-width="4"/>
<path d="M1349.5 14C1349.5 14.8284 1348.83 15.5 1348 15.5C1347.17 15.5 1346.5 14.8284 1346.5 14H1349.5ZM1346.5 5.02239V3.52239H1349.5V5.02239H1346.5ZM1346.5 14V5.02239H1349.5V14H1346.5Z" fill="#DF6489"/>
<line y1="-2" x2="10" y2="-2" transform="matrix(0.999994 0.00347806 0.00349542 -0.999994 1343 0)" stroke="#07273D" stroke-width="4"/>
<path d="M1339.5 14C1339.5 14.8284 1338.83 15.5 1338 15.5C1337.17 15.5 1336.5 14.8284 1336.5 14H1339.5ZM1336.5 5.02239V3.52239H1339.5V5.02239H1336.5ZM1336.5 14V5.02239H1339.5V14H1336.5Z" fill="#DF6489"/>
<line y1="-2" x2="10" y2="-2" transform="matrix(0.999994 0.00347806 0.00349542 -0.999994 1333 0)" stroke="#07273D" stroke-width="4"/>
</svg>
