<svg width="579" height="453" viewBox="0 0 579 453" fill="none" xmlns="http://www.w3.org/2000/svg">
<circle cx="263.5" cy="117.5" r="7.5" fill="#DF6489"/>
<circle cx="401.5" cy="187.5" r="7.5" fill="#DF6489"/>
<circle cx="207.5" cy="135.5" r="7.5" fill="#DF6489"/>
<circle cx="354.5" cy="62.5" r="7.5" fill="#DF6489"/>
<circle cx="512.5" cy="150.5" r="7.5" fill="#DF6489"/>
<circle cx="431.5" cy="256.5" r="7.5" fill="#DF6489"/>
<circle cx="20.5" cy="120.5" r="7.5" fill="#DF6489"/>
<circle cx="126.5" cy="255.5" r="7.5" fill="#DF6489"/>
<circle cx="141.5" cy="34.5" r="7.5" fill="#DF6489"/>
<circle cx="327.5" cy="22.5" r="7.5" fill="#DF6489"/>
<circle cx="272.5" cy="7.5" r="7.5" fill="#DF6489"/>
<circle cx="284.5" cy="184.5" r="7.5" fill="#DF6489"/>
<circle cx="334.5" cy="212.5" r="7.5" fill="#DF6489"/>
<circle cx="349.5" cy="150.5" r="7.5" fill="#DF6489"/>
<circle cx="315.5" cy="167.5" r="7.5" fill="#DF6489"/>
<circle cx="311.5" cy="82.5" r="7.5" fill="#DF6489"/>
<circle cx="281.5" cy="57.5" r="7.5" fill="#DF6489"/>
<circle cx="256.5" cy="147.5" r="7.5" fill="#DF6489"/>
<circle cx="296.5" cy="132.5" r="7.5" fill="#DF6489"/>
<circle cx="296.5" cy="132.5" r="7.5" fill="#DF6489"/>
<circle cx="296.5" cy="132.5" r="7.5" fill="#DF6489"/>
<circle cx="296.5" cy="132.5" r="7.5" fill="#DF6489"/>
<circle cx="238.5" cy="339.5" r="7.5" fill="#DF6489"/>
<circle cx="257.5" cy="90.5" r="7.5" fill="#DF6489"/>
<circle cx="242.5" cy="65.5" r="7.5" fill="#DF6489"/>
<circle cx="230.5" cy="120.5" r="7.5" fill="#DF6489"/>
<circle cx="222.5" cy="98.5" r="7.5" fill="#DF6489"/>
<rect x="109.654" y="224.372" width="74.7982" height="140.134" rx="37.3991" transform="rotate(-110.758 109.654 224.372)" fill="#DF6489" fill-opacity="0.44" stroke="#DF6489" stroke-width="4.21263"/>
<path d="M5.78359 228.076C5.14687 228.438 4.86747 229.263 5.15954 229.919C5.4516 230.574 6.20453 230.812 6.84125 230.449L5.78359 228.076ZM70.7738 204.665L70.3526 203.423L70.7738 204.665ZM35.7939 214.481L36.1602 215.747L35.7939 214.481ZM94.9886 190.244C94.3482 189.128 94.3483 189.128 94.3482 189.128C94.3481 189.128 94.3481 189.128 94.3479 189.128C94.3476 189.129 94.3471 189.129 94.3463 189.13C94.3449 189.131 94.3426 189.132 94.3395 189.134C94.3332 189.139 94.3237 189.145 94.311 189.154C94.2857 189.172 94.2475 189.199 94.1969 189.234C94.0959 189.305 93.9457 189.409 93.7503 189.544C93.3596 189.814 92.7885 190.205 92.0698 190.691C90.6321 191.662 88.6052 193.006 86.2509 194.5C81.5301 197.496 75.5398 201.06 70.3526 203.423L71.1951 205.906C76.5543 203.465 82.6714 199.82 87.4213 196.806C89.8024 195.295 91.8518 193.935 93.3064 192.953C94.0339 192.462 94.613 192.065 95.011 191.79C95.21 191.652 95.3637 191.545 95.468 191.473C95.5202 191.436 95.56 191.408 95.587 191.39C95.6005 191.38 95.6108 191.373 95.6178 191.368C95.6213 191.366 95.624 191.364 95.6258 191.362C95.6268 191.362 95.6275 191.361 95.628 191.361C95.6282 191.361 95.6285 191.36 95.6286 191.36C95.6288 191.36 95.6289 191.36 94.9886 190.244ZM70.3526 203.423C63.4182 206.581 58.3758 207.575 53.2254 208.498C48.0444 209.426 42.7238 210.285 35.4275 213.216L36.1602 215.747C43.1845 212.925 48.2721 212.101 53.46 211.172C58.6785 210.237 63.9658 209.199 71.1951 205.906L70.3526 203.423ZM35.4275 213.216C29.3972 215.639 21.9768 219.36 16.0898 222.461C13.1406 224.014 10.5658 225.417 8.72792 226.431C7.80888 226.939 7.07382 227.349 6.56806 227.633C6.31516 227.775 6.11957 227.886 5.98695 227.961C5.92064 227.998 5.87006 228.027 5.83593 228.046C5.81887 228.056 5.80592 228.063 5.79716 228.068C5.79279 228.071 5.78946 228.072 5.7872 228.074C5.78606 228.074 5.7852 228.075 5.7846 228.075C5.78429 228.075 5.78404 228.075 5.78389 228.076C5.78371 228.076 5.78359 228.076 6.31242 229.262C6.84125 230.449 6.84127 230.449 6.84135 230.449C6.84147 230.449 6.84162 230.449 6.84185 230.449C6.84232 230.449 6.84305 230.448 6.84405 230.448C6.84605 230.446 6.84911 230.445 6.85321 230.442C6.86143 230.438 6.87383 230.431 6.89034 230.421C6.92336 230.403 6.97281 230.375 7.03796 230.338C7.16828 230.264 7.36145 230.155 7.6118 230.015C8.11254 229.733 8.84197 229.326 9.75486 228.822C11.5809 227.814 14.1397 226.42 17.0698 224.877C22.9413 221.785 30.2616 218.116 36.1602 215.747L35.4275 213.216Z" fill="#DF6489"/>
<path d="M56.8479 227.2C56.1693 227.396 55.5131 226.962 55.3823 226.231C55.2515 225.499 55.6956 224.747 56.3741 224.55L56.8479 227.2ZM87.0299 204.183L87.5034 205.412L87.0299 204.183ZM72.4839 219.15L71.8973 217.988L72.4839 219.15ZM101.333 200.723C101.322 202.092 101.322 202.092 101.322 202.092C101.322 202.092 101.322 202.092 101.322 202.092C101.322 202.092 101.322 202.092 101.322 202.092C101.321 202.092 101.32 202.092 101.318 202.092C101.315 202.092 101.309 202.093 101.302 202.093C101.286 202.095 101.263 202.096 101.231 202.099C101.169 202.104 101.074 202.111 100.951 202.122C100.705 202.144 100.346 202.178 99.8961 202.228C98.9963 202.328 97.7406 202.491 96.3206 202.741C93.4477 203.245 90.0271 204.085 87.5034 205.412L86.5565 202.953C89.4423 201.436 93.1732 200.546 96.0996 200.032C97.5791 199.772 98.885 199.603 99.8217 199.499C100.29 199.447 100.668 199.411 100.929 199.388C101.06 199.376 101.162 199.368 101.232 199.362C101.267 199.359 101.294 199.357 101.313 199.356C101.323 199.355 101.33 199.355 101.335 199.354C101.338 199.354 101.34 199.354 101.341 199.354C101.342 199.354 101.342 199.354 101.343 199.354C101.343 199.354 101.343 199.354 101.344 199.354C101.344 199.354 101.344 199.354 101.333 200.723ZM87.5034 205.412C84.1825 207.158 82.4423 209.509 80.6039 212.167C78.7584 214.835 76.7906 217.861 73.0704 220.313L71.8973 217.988C75.0948 215.881 76.7677 213.333 78.6495 210.612C80.5385 207.88 82.6125 205.027 86.5565 202.953L87.5034 205.412ZM73.0704 220.313C70.0574 222.298 65.9744 224.02 62.7101 225.233C61.065 225.844 59.6032 226.335 58.5521 226.673C58.0263 226.842 57.6025 226.973 57.3091 227.062C57.1624 227.107 57.0483 227.141 56.9703 227.164C56.9312 227.175 56.9012 227.184 56.8807 227.19C56.8704 227.193 56.8625 227.196 56.857 227.197C56.8543 227.198 56.8521 227.199 56.8506 227.199C56.8498 227.199 56.8492 227.199 56.8488 227.2C56.8485 227.2 56.8483 227.2 56.8482 227.2C56.848 227.2 56.8479 227.2 56.611 225.875C56.3741 224.55 56.3741 224.55 56.374 224.55C56.3741 224.55 56.3741 224.55 56.3742 224.55C56.3743 224.55 56.3746 224.55 56.3751 224.55C56.376 224.55 56.3776 224.549 56.3797 224.549C56.384 224.547 56.3906 224.545 56.3997 224.543C56.4177 224.537 56.4452 224.529 56.4816 224.519C56.5545 224.497 56.6632 224.464 56.8042 224.422C57.0863 224.336 57.4974 224.209 58.0095 224.044C59.0342 223.714 60.4601 223.236 62.063 222.64C65.2945 221.44 69.1479 219.8 71.8973 217.988L73.0704 220.313Z" fill="#DF6489"/>
<path d="M44.6877 196.68C44.0435 197.037 43.7634 197.851 44.062 198.5C44.3605 199.148 45.1247 199.384 45.7688 199.027L44.6877 196.68ZM80.4051 190.223L80.0753 188.955L80.4051 190.223ZM61.1178 191.009L61.3375 192.31L61.1178 191.009ZM93.328 182.435C92.588 181.396 92.588 181.396 92.5881 181.396C92.5881 181.396 92.5881 181.396 92.5881 181.396C92.588 181.396 92.5879 181.396 92.5876 181.396C92.587 181.396 92.5861 181.397 92.5846 181.398C92.5818 181.401 92.5772 181.404 92.571 181.409C92.5585 181.419 92.5393 181.435 92.5136 181.455C92.4621 181.496 92.3848 181.557 92.2837 181.636C92.0815 181.793 91.7843 182.022 91.4092 182.304C90.6583 182.868 89.5982 183.641 88.3637 184.474C85.8697 186.157 82.7598 188.02 80.0753 188.955L80.735 191.491C83.7619 190.437 87.1133 188.407 89.653 186.693C90.9353 185.828 92.0349 185.027 92.8147 184.441C93.2049 184.148 93.5157 183.908 93.7301 183.741C93.8374 183.658 93.9206 183.592 93.9776 183.547C94.0061 183.524 94.028 183.507 94.0432 183.495C94.0508 183.489 94.0566 183.484 94.0608 183.481C94.0628 183.479 94.0645 183.478 94.0657 183.477C94.0663 183.476 94.0668 183.476 94.0671 183.476C94.0673 183.475 94.0675 183.475 94.0676 183.475C94.0678 183.475 94.0679 183.475 93.328 182.435ZM80.0753 188.955C76.5345 190.188 73.9027 189.928 71.0582 189.55C68.1909 189.169 65.0638 188.656 60.8982 189.708L61.3375 192.31C64.9705 191.393 67.6518 191.822 70.561 192.209C73.4929 192.598 76.6054 192.929 80.735 191.491L80.0753 188.955ZM60.8982 189.708C57.5174 190.561 53.4459 192.321 50.271 193.834C48.6722 194.596 47.2796 195.306 46.2862 195.825C45.7892 196.085 45.3915 196.298 45.1172 196.446C44.98 196.52 44.8736 196.578 44.801 196.617C44.7647 196.637 44.7369 196.653 44.7179 196.663C44.7084 196.668 44.7011 196.672 44.696 196.675C44.6935 196.677 44.6915 196.678 44.6901 196.678C44.6894 196.679 44.6889 196.679 44.6885 196.679C44.6883 196.679 44.6881 196.68 44.6879 196.68C44.6878 196.68 44.6877 196.68 45.2282 197.853C45.7688 199.027 45.7687 199.027 45.7687 199.027C45.7688 199.027 45.7688 199.027 45.7688 199.027C45.769 199.027 45.7693 199.027 45.7698 199.027C45.7706 199.026 45.7721 199.025 45.7741 199.024C45.7781 199.022 45.7844 199.019 45.7929 199.014C45.8098 199.005 45.8355 198.99 45.8696 198.972C45.9378 198.934 46.0395 198.879 46.1719 198.808C46.4366 198.665 46.8236 198.458 47.3087 198.204C48.2796 197.696 49.6413 197.002 51.203 196.258C54.3487 194.759 58.2221 193.096 61.3375 192.31L60.8982 189.708Z" fill="#DF6489"/>
<path d="M116.565 184.5C115.464 189.898 129.997 169.724 148.907 167.728C167.818 165.731 112.725 186.207 139.033 188.753C165.341 191.299 112.453 178.537 126.709 165.465C140.965 152.392 153.279 200.962 126.704 179.667C100.129 158.373 122.859 200.974 130.267 179.666C137.674 158.358 117.666 179.103 116.565 184.5Z" stroke="#7D062A"/>
<rect x="421.699" y="323.88" width="80.2967" height="150.435" rx="40.1483" transform="rotate(136.923 421.699 323.88)" fill="#F1DC69" fill-opacity="0.53" stroke="#F1DC69" stroke-width="4.5223"/>
<path d="M451.844 428.195C452.369 428.706 453.239 428.746 453.788 428.284C454.337 427.822 454.357 427.033 453.832 426.521L451.844 428.195ZM411.357 372.225L410.281 372.973L411.357 372.225ZM430.474 403.12L431.588 402.418L430.474 403.12ZM390.797 352.948C389.902 353.873 389.902 353.872 389.902 353.873C389.902 353.873 389.902 353.873 389.903 353.873C389.903 353.873 389.903 353.873 389.904 353.874C389.905 353.875 389.908 353.877 389.911 353.879C389.917 353.884 389.926 353.891 389.938 353.901C389.962 353.92 389.998 353.95 390.046 353.989C390.141 354.066 390.283 354.182 390.467 354.332C390.835 354.633 391.369 355.073 392.034 355.629C393.365 356.742 395.219 358.318 397.306 360.166C401.491 363.873 406.574 368.643 410.281 372.973L412.434 371.476C408.605 367.002 403.408 362.133 399.197 358.403C397.086 356.534 395.213 354.941 393.866 353.815C393.192 353.252 392.651 352.805 392.276 352.499C392.089 352.346 391.944 352.228 391.845 352.147C391.796 352.107 391.758 352.077 391.732 352.056C391.719 352.046 391.71 352.038 391.703 352.033C391.7 352.03 391.697 352.028 391.695 352.026C391.694 352.026 391.694 352.025 391.693 352.025C391.693 352.025 391.693 352.024 391.693 352.024C391.693 352.024 391.692 352.024 390.797 352.948ZM410.281 372.973C415.235 378.762 417.586 383.333 419.899 388.026C422.225 392.748 424.523 397.623 429.359 403.823L431.588 402.418C426.932 396.449 424.732 391.789 422.403 387.061C420.06 382.305 417.599 377.512 412.434 371.476L410.281 372.973ZM429.359 403.823C433.356 408.947 438.987 415.047 443.596 419.846C445.905 422.249 447.966 424.335 449.449 425.821C450.191 426.563 450.789 427.156 451.202 427.563C451.408 427.767 451.569 427.924 451.677 428.031C451.732 428.084 451.773 428.125 451.801 428.153C451.815 428.166 451.826 428.177 451.833 428.184C451.837 428.187 451.84 428.19 451.841 428.192C451.842 428.193 451.843 428.193 451.844 428.194C451.844 428.194 451.844 428.194 451.844 428.194C451.844 428.195 451.844 428.195 452.838 427.358C453.832 426.521 453.832 426.521 453.832 426.521C453.832 426.521 453.832 426.521 453.832 426.521C453.831 426.52 453.831 426.52 453.83 426.519C453.828 426.517 453.826 426.515 453.822 426.512C453.816 426.505 453.806 426.495 453.792 426.482C453.765 426.455 453.724 426.415 453.671 426.363C453.564 426.258 453.406 426.103 453.201 425.901C452.793 425.498 452.199 424.91 451.462 424.172C449.988 422.696 447.94 420.623 445.646 418.235C441.05 413.449 435.498 407.43 431.588 402.418L429.359 403.823Z" fill="#F1DC69"/>
<path d="M436.867 379.368C437.243 379.966 437.008 380.717 436.341 381.045C435.674 381.373 434.828 381.155 434.452 380.557L436.867 379.368ZM406.394 356.737L407.444 355.942L406.394 356.737ZM424.804 366.572L423.849 367.457L424.804 366.572ZM399.11 343.951C400.429 343.582 400.429 343.582 400.429 343.582C400.429 343.582 400.429 343.582 400.429 343.582C400.429 343.582 400.429 343.582 400.429 343.583C400.429 343.583 400.429 343.584 400.43 343.586C400.431 343.589 400.433 343.595 400.436 343.602C400.441 343.616 400.449 343.638 400.46 343.668C400.483 343.727 400.516 343.815 400.56 343.93C400.649 344.161 400.782 344.497 400.954 344.915C401.3 345.752 401.804 346.913 402.437 348.209C403.717 350.83 405.471 353.884 407.444 355.942L405.344 357.533C403.087 355.179 401.199 351.841 399.895 349.171C399.236 347.821 398.712 346.613 398.352 345.742C398.172 345.306 398.033 344.953 397.939 344.708C397.891 344.586 397.855 344.49 397.83 344.424C397.818 344.391 397.809 344.366 397.802 344.348C397.799 344.34 397.796 344.333 397.795 344.328C397.794 344.325 397.793 344.324 397.793 344.322C397.792 344.321 397.792 344.321 397.792 344.32C397.792 344.32 397.792 344.32 397.792 344.32C397.792 344.32 397.792 344.319 399.11 343.951ZM407.444 355.942C410.041 358.65 412.782 359.671 415.845 360.702C418.92 361.737 422.373 362.79 425.758 365.686L423.849 367.457C420.939 364.968 418.027 364.066 414.892 363.011C411.744 361.952 408.428 360.749 405.344 357.533L407.444 355.942ZM425.758 365.686C428.5 368.032 431.285 371.479 433.354 374.28C434.397 375.691 435.273 376.96 435.888 377.877C436.196 378.335 436.44 378.706 436.607 378.963C436.69 379.092 436.755 379.192 436.798 379.261C436.82 379.295 436.837 379.321 436.849 379.339C436.854 379.348 436.859 379.355 436.862 379.36C436.863 379.363 436.864 379.364 436.865 379.366C436.866 379.367 436.866 379.367 436.866 379.367C436.866 379.368 436.867 379.368 436.867 379.368C436.867 379.368 436.867 379.368 435.659 379.963C434.452 380.557 434.452 380.557 434.452 380.557C434.452 380.557 434.452 380.557 434.452 380.557C434.452 380.557 434.452 380.557 434.451 380.556C434.451 380.555 434.45 380.554 434.449 380.552C434.446 380.548 434.443 380.542 434.438 380.534C434.427 380.519 434.412 380.494 434.392 380.462C434.351 380.398 434.289 380.303 434.209 380.179C434.049 379.932 433.813 379.572 433.513 379.126C432.912 378.232 432.058 376.994 431.042 375.619C428.994 372.846 426.351 369.597 423.849 367.457L425.758 365.686Z" fill="#F1DC69"/>
<path d="M410.906 399.502C411.427 400.022 412.287 400.066 412.828 399.599C413.368 399.133 413.383 398.333 412.862 397.813L410.906 399.502ZM394.814 366.968L393.687 367.636L394.814 366.968ZM400.908 385.284L402.098 384.713L400.908 385.284ZM383.753 356.706C382.959 357.705 382.959 357.705 382.959 357.705C382.959 357.705 382.959 357.704 382.959 357.705C382.959 357.705 382.959 357.705 382.959 357.705C382.96 357.705 382.961 357.706 382.963 357.707C382.966 357.709 382.97 357.713 382.977 357.717C382.99 357.726 383.01 357.741 383.037 357.76C383.09 357.798 383.17 357.855 383.274 357.931C383.481 358.081 383.784 358.303 384.158 358.586C384.908 359.151 385.944 359.956 387.086 360.912C389.394 362.842 392.046 365.315 393.687 367.636L395.941 366.3C394.091 363.683 391.212 361.024 388.862 359.058C387.676 358.066 386.601 357.231 385.823 356.644C385.433 356.35 385.117 356.118 384.897 355.958C384.787 355.878 384.701 355.816 384.641 355.774C384.612 355.753 384.589 355.736 384.573 355.725C384.565 355.72 384.559 355.715 384.555 355.712C384.553 355.711 384.551 355.709 384.55 355.709C384.549 355.708 384.549 355.708 384.548 355.708C384.548 355.707 384.548 355.707 384.548 355.707C384.547 355.707 384.547 355.707 383.753 356.706ZM393.687 367.636C395.852 370.697 396.33 373.298 396.755 376.136C397.182 378.996 397.555 382.143 399.719 385.855L402.098 384.713C400.211 381.475 399.881 378.78 399.447 375.877C399.01 372.952 398.466 369.87 395.941 366.3L393.687 367.636ZM399.719 385.855C401.475 388.867 404.293 392.293 406.626 394.925C407.8 396.25 408.868 397.392 409.642 398.203C410.029 398.608 410.344 398.931 410.562 399.154C410.671 399.265 410.756 399.352 410.814 399.41C410.844 399.44 410.866 399.462 410.881 399.478C410.889 399.485 410.895 399.491 410.899 399.495C410.901 399.497 410.903 399.499 410.904 399.5C410.904 399.501 410.905 399.501 410.905 399.501C410.905 399.502 410.905 399.502 410.905 399.502C410.906 399.502 410.906 399.502 411.884 398.658C412.862 397.813 412.862 397.813 412.862 397.813C412.862 397.813 412.862 397.813 412.862 397.813C412.862 397.813 412.862 397.813 412.861 397.813C412.861 397.812 412.859 397.811 412.858 397.809C412.855 397.806 412.849 397.801 412.843 397.794C412.829 397.78 412.808 397.759 412.781 397.732C412.726 397.677 412.645 397.594 412.539 397.487C412.329 397.272 412.023 396.957 411.645 396.561C410.888 395.769 409.844 394.653 408.697 393.358C406.386 390.75 403.716 387.489 402.098 384.713L399.719 385.855Z" fill="#F1DC69"/>
<path d="M348.461 328.405C347.404 333.583 361.347 314.229 379.489 312.314C397.631 310.398 344.777 330.042 370.016 332.484C395.255 334.926 344.517 322.684 358.193 310.142C371.87 297.601 383.683 344.196 358.188 323.768C332.693 303.339 354.499 344.208 361.606 323.767C368.712 303.325 349.517 323.226 348.461 328.405Z" stroke="#524608" stroke-width="0.95935"/>
<rect x="472.75" y="44.2203" width="70.3727" height="131.843" rx="35.1863" transform="rotate(68.8678 472.75 44.2203)" fill="#44B5D8" fill-opacity="0.43" stroke="#44B5D8" stroke-width="3.96338"/>
<path d="M573.829 48.2981C574.446 47.9905 574.752 47.2296 574.512 46.5986C574.273 45.9676 573.578 45.7055 572.961 46.013L573.829 48.2981ZM511.542 66.9568L511.872 68.1454L511.542 66.9568ZM544.92 59.5289L544.642 58.321L544.92 59.5289ZM488.033 79.2614C488.575 80.3433 488.575 80.3433 488.575 80.3433C488.575 80.3432 488.575 80.3432 488.575 80.3431C488.576 80.3429 488.576 80.3425 488.577 80.3421C488.578 80.3412 488.581 80.3398 488.584 80.3379C488.59 80.3341 488.599 80.3284 488.611 80.3207C488.636 80.3053 488.674 80.2821 488.723 80.2516C488.821 80.1906 488.968 80.1002 489.159 79.9835C489.54 79.75 490.097 79.4114 490.798 78.9923C492.2 78.154 494.175 76.9947 496.466 75.7121C501.058 73.1404 506.874 70.099 511.872 68.1454L511.211 65.7682C506.048 67.7865 500.109 70.8973 495.488 73.4849C493.172 74.782 491.175 75.9542 489.756 76.8024C489.047 77.2265 488.482 77.5699 488.094 77.8077C487.899 77.9266 487.749 78.0191 487.647 78.0821C487.597 78.1136 487.558 78.1377 487.531 78.1541C487.518 78.1623 487.508 78.1685 487.501 78.1728C487.498 78.1749 487.495 78.1765 487.493 78.1777C487.493 78.1782 487.492 78.1787 487.491 78.179C487.491 78.1791 487.491 78.1793 487.491 78.1793C487.491 78.1795 487.49 78.1795 488.033 79.2614ZM511.872 68.1454C518.553 65.5339 523.342 64.8587 528.229 64.2562C533.145 63.65 538.189 63.1158 545.197 60.7368L544.642 58.321C537.895 60.6115 533.072 61.1243 528.149 61.7313C523.198 62.3418 518.176 63.0458 511.211 65.7682L511.872 68.1454ZM545.197 60.7368C550.99 58.7705 558.157 55.6547 563.851 53.0441C566.704 51.7363 569.197 50.5506 570.977 49.6917C571.867 49.2622 572.579 48.9143 573.069 48.6735C573.314 48.5532 573.504 48.4595 573.632 48.3959C573.696 48.3641 573.746 48.3398 573.779 48.3233C573.795 48.3151 573.808 48.3089 573.816 48.3046C573.82 48.3025 573.824 48.3009 573.826 48.2998C573.827 48.2993 573.828 48.2989 573.828 48.2986C573.829 48.2984 573.829 48.2983 573.829 48.2982C573.829 48.2981 573.829 48.2981 573.395 47.1556C572.961 46.013 572.961 46.013 572.961 46.0131C572.961 46.0131 572.961 46.0132 572.961 46.0133C572.96 46.0135 572.959 46.0139 572.959 46.0144C572.957 46.0153 572.954 46.0168 572.95 46.0188C572.942 46.0228 572.93 46.0287 572.914 46.0367C572.882 46.0526 572.834 46.0764 572.771 46.1077C572.644 46.1702 572.457 46.2626 572.214 46.3818C571.729 46.6202 571.022 46.9655 570.138 47.3921C568.37 48.2455 565.892 49.4238 563.058 50.7231C557.379 53.3268 550.309 56.3977 544.642 58.321L545.197 60.7368Z" fill="#44B5D8"/>
<path d="M525.813 46.5009C526.46 46.3512 527.054 46.7927 527.138 47.487C527.223 48.1813 526.767 48.8655 526.119 49.0152L525.813 46.5009ZM496.245 66.5757L495.865 65.3961L496.245 66.5757ZM510.7 53.2611L511.19 54.3839L510.7 53.2611ZM482.626 69.0922C482.708 67.8063 482.707 67.8063 482.707 67.8063C482.707 67.8063 482.707 67.8063 482.707 67.8063C482.707 67.8063 482.708 67.8063 482.708 67.8063C482.709 67.8063 482.71 67.8062 482.711 67.8062C482.715 67.8062 482.72 67.8061 482.727 67.8059C482.741 67.8057 482.764 67.8052 482.793 67.8045C482.853 67.8031 482.942 67.8007 483.058 67.7968C483.29 67.789 483.63 67.7753 484.055 67.7513C484.905 67.7034 486.093 67.615 487.441 67.4535C490.166 67.1266 493.424 66.5131 495.865 65.3961L496.625 67.7553C493.835 69.0323 490.283 69.677 487.507 70.0099C486.103 70.1782 484.868 70.2701 483.982 70.32C483.539 70.345 483.183 70.3594 482.936 70.3677C482.812 70.3719 482.716 70.3744 482.65 70.376C482.617 70.3768 482.591 70.3773 482.574 70.3777C482.565 70.3778 482.558 70.3779 482.553 70.378C482.551 70.3781 482.549 70.3781 482.547 70.3781C482.547 70.3781 482.546 70.3781 482.546 70.3781C482.545 70.3781 482.545 70.3782 482.545 70.3782C482.545 70.3782 482.545 70.3782 482.626 69.0922ZM495.865 65.3961C499.077 63.9262 500.837 61.8064 502.704 59.4037C504.579 56.9915 506.587 54.2502 510.211 52.1383L511.19 54.3839C508.074 56.1995 506.368 58.5079 504.457 60.9674C502.538 63.4364 500.439 66.0102 496.625 67.7553L495.865 65.3961ZM510.211 52.1383C513.145 50.4279 517.072 49.0197 520.202 48.048C521.78 47.5583 523.179 47.1724 524.184 46.9088C524.687 46.7769 525.092 46.6754 525.372 46.6067C525.513 46.5723 525.622 46.5461 525.696 46.5284C525.733 46.5195 525.762 46.5128 525.782 46.5082C525.791 46.5059 525.799 46.5041 525.804 46.5029C525.807 46.5023 525.809 46.5018 525.81 46.5015C525.811 46.5013 525.812 46.5012 525.812 46.5011C525.812 46.501 525.813 46.501 525.813 46.5009C525.813 46.5009 525.813 46.5009 525.966 47.758C526.119 49.0152 526.119 49.0152 526.119 49.0152C526.119 49.0152 526.119 49.0152 526.119 49.0152C526.119 49.0153 526.119 49.0153 526.118 49.0154C526.118 49.0156 526.116 49.016 526.114 49.0165C526.11 49.0174 526.104 49.0189 526.095 49.0209C526.078 49.025 526.052 49.0311 526.017 49.0394C525.947 49.056 525.843 49.0809 525.709 49.114C525.439 49.18 525.046 49.2785 524.556 49.4069C523.576 49.6639 522.211 50.0404 520.674 50.5175C517.575 51.4795 513.869 52.8228 511.19 54.3839L510.211 52.1383Z" fill="#44B5D8"/>
<path d="M535.625 75.7957C536.248 75.4936 536.555 74.7424 536.308 74.1179C536.062 73.4934 535.357 73.232 534.734 73.5342L535.625 75.7957ZM501.731 80.0286L501.974 81.2372L501.731 80.0286ZM519.891 80.28L519.753 79.046L519.891 80.28ZM489.18 86.6819C489.82 87.6971 489.82 87.6971 489.82 87.6972C489.82 87.6972 489.82 87.6972 489.82 87.6972C489.82 87.6971 489.82 87.697 489.821 87.6968C489.821 87.6964 489.822 87.6957 489.823 87.6947C489.826 87.6927 489.831 87.6895 489.837 87.6852C489.849 87.6765 489.868 87.6631 489.893 87.6452C489.944 87.6096 490.02 87.5563 490.119 87.4874C490.317 87.3496 490.608 87.1497 490.976 86.9043C491.711 86.4131 492.747 85.7416 493.951 85.0223C496.383 83.5692 499.403 81.9777 501.974 81.2372L501.488 78.8201C498.589 79.6549 495.334 81.3901 492.858 82.8698C491.608 83.6169 490.532 84.3134 489.769 84.8235C489.387 85.0788 489.082 85.2879 488.872 85.4339C488.767 85.507 488.685 85.5643 488.629 85.6038C488.601 85.6236 488.58 85.6389 488.565 85.6495C488.557 85.6548 488.552 85.6589 488.548 85.6618C488.546 85.6632 488.544 85.6644 488.543 85.6652C488.542 85.6656 488.542 85.666 488.541 85.6663C488.541 85.6664 488.541 85.6665 488.541 85.6666C488.541 85.6667 488.541 85.6668 489.18 86.6819ZM501.974 81.2372C505.366 80.2605 507.825 80.6401 510.477 81.1409C513.15 81.6457 516.06 82.288 520.029 81.5139L519.753 79.046C516.292 79.7213 513.795 79.1803 511.083 78.6681C508.349 78.1519 505.443 77.6812 501.488 78.8201L501.974 81.2372ZM520.029 81.5139C523.25 80.8855 527.167 79.4413 530.23 78.1827C531.772 77.5489 533.117 76.9536 534.078 76.5166C534.559 76.2979 534.943 76.1186 535.209 75.9936C535.342 75.931 535.445 75.882 535.515 75.8485C535.55 75.8317 535.577 75.8187 535.596 75.8098C535.605 75.8054 535.612 75.802 535.617 75.7996C535.619 75.7985 535.621 75.7975 535.622 75.7969C535.623 75.7966 535.624 75.7963 535.624 75.7961C535.624 75.796 535.624 75.7959 535.624 75.7959C535.625 75.7958 535.625 75.7957 535.179 74.6649C534.734 73.5342 534.734 73.5341 534.734 73.5341C534.734 73.5341 534.734 73.5341 534.734 73.5342C534.733 73.5343 534.733 73.5344 534.733 73.5346C534.732 73.535 534.73 73.5357 534.728 73.5366C534.725 73.5385 534.718 73.5415 534.71 73.5454C534.694 73.5533 534.669 73.5652 534.636 73.581C534.57 73.6126 534.471 73.6595 534.343 73.7198C534.087 73.8405 533.713 74.015 533.243 74.2284C532.305 74.6555 530.989 75.2376 529.482 75.8567C526.448 77.1037 522.722 78.467 519.753 79.046L520.029 81.5139Z" fill="#44B5D8"/>
<path d="M434.461 97.6265C433.404 102.805 447.346 83.4508 465.488 81.5355C483.63 79.6203 430.777 99.2634 456.015 101.706C481.254 104.148 430.516 91.9057 444.193 79.3643C457.869 66.8229 469.683 113.418 444.188 92.9899C418.693 72.5614 440.499 113.43 447.606 92.9885C454.712 72.547 435.517 92.4483 434.461 97.6265Z" stroke="#03436D" stroke-width="0.95935"/>
</svg>
