<svg width="397" height="397" viewBox="0 0 397 397" fill="none" xmlns="http://www.w3.org/2000/svg">
<ellipse cx="210.42" cy="209.517" rx="186.58" ry="187.483" fill="#001C30"/>
<path d="M56.65 169.65H136C158.285 169.65 176.35 187.715 176.35 210C176.35 232.285 158.285 250.35 136 250.35H56.65V169.65Z" fill="white" stroke="#44B5D8" stroke-width="7.3"/>
<path d="M362.35 169.65H284C261.715 169.65 243.65 187.715 243.65 210C243.65 232.285 261.715 250.35 284 250.35H362.35V169.65Z" fill="white" stroke="#44B5D8" stroke-width="7.3"/>
<rect x="50" y="160" width="19.4127" height="101.967" fill="#001C30"/>
<rect x="345" y="159" width="25.5895" height="101.967" fill="#001C30"/>
<path d="M121.866 218.163C120.7 223.907 136.091 202.439 156.118 200.314C176.145 198.19 117.799 219.979 145.661 222.689C173.523 225.398 117.512 211.817 132.609 197.906C147.707 183.994 160.748 235.681 132.604 213.02C104.459 190.359 128.531 235.694 136.377 213.019C144.222 190.343 123.032 212.419 121.866 218.163Z" stroke="#001C30" stroke-width="1.2002"/>
<path d="M265.635 217.33C264.468 223.074 279.859 201.605 299.887 199.481C319.914 197.356 261.568 219.146 289.43 221.855C317.292 224.565 261.28 210.984 276.378 197.072C291.476 183.161 304.517 234.848 276.372 212.187C248.228 189.526 272.3 234.861 280.146 212.185C287.991 189.51 266.801 211.586 265.635 217.33Z" stroke="#001C30" stroke-width="1.2002"/>
<ellipse cx="211.907" cy="247.065" rx="6.44149" ry="6.47269" fill="#44B5D8"/>
<ellipse cx="192.583" cy="137.029" rx="6.44149" ry="6.47269" fill="#44B5D8"/>
<ellipse cx="186.141" cy="242.534" rx="6.44149" ry="6.47269" fill="#44B5D8"/>
<ellipse cx="173.258" cy="124.084" rx="6.44149" ry="6.47269" fill="#44B5D8"/>
<ellipse cx="160.375" cy="146.738" rx="6.44149" ry="6.47269" fill="#44B5D8"/>
<ellipse cx="260.218" cy="143.501" rx="6.44149" ry="6.47269" fill="#44B5D8"/>
<ellipse cx="179.7" cy="159.684" rx="6.44149" ry="6.47269" fill="#44B5D8"/>
<ellipse cx="239.605" cy="117.611" rx="6.44149" ry="6.47269" fill="#44B5D8"/>
<ellipse cx="218.348" cy="290.432" rx="6.44149" ry="6.47269" fill="#44B5D8"/>
<ellipse cx="199.024" cy="111.138" rx="6.44149" ry="6.47269" fill="#44B5D8"/>
<ellipse cx="267.948" cy="272.955" rx="6.44149" ry="6.47269" fill="#44B5D8"/>
<ellipse cx="233.164" cy="264.541" rx="6.44149" ry="6.47269" fill="#44B5D8"/>
<ellipse cx="203.533" cy="267.777" rx="6.44149" ry="6.47269" fill="#44B5D8"/>
<ellipse cx="216.416" cy="130.556" rx="6.44149" ry="6.47269" fill="#44B5D8"/>
<ellipse cx="192.583" cy="277.486" rx="6.44149" ry="6.47269" fill="#44B5D8"/>
<ellipse cx="239.605" cy="165.509" rx="6.44149" ry="6.47269" fill="#44B5D8"/>
<ellipse cx="150.069" cy="264.541" rx="6.44149" ry="6.47269" fill="#44B5D8"/>
<ellipse cx="216.416" cy="159.036" rx="6.44149" ry="6.47269" fill="#44B5D8"/>
<ellipse cx="179.7" cy="260.01" rx="6.44149" ry="6.47269" fill="#44B5D8"/>
<ellipse cx="166.816" cy="236.061" rx="6.44149" ry="6.47269" fill="#44B5D8"/>
<ellipse cx="114.64" cy="229.588" rx="6.44149" ry="6.47269" fill="#44B5D8"/>
<ellipse cx="101.757" cy="188.811" rx="6.44149" ry="6.47269" fill="#44B5D8"/>
<ellipse cx="153.934" cy="181.69" rx="6.44149" ry="6.47269" fill="#44B5D8"/>
<line x1="1.53076" y1="-1.53076" x2="14.6952" y2="-1.53076" transform="matrix(0.850821 0.525972 -0.522015 0.85262 19.7297 104.645)" stroke="#DF6489" stroke-width="3.06152" stroke-linecap="round"/>
<line x1="1.53076" y1="-1.53076" x2="14.715" y2="-1.53076" transform="matrix(0.674948 0.738341 -0.734567 0.678019 90.0954 23.7683)" stroke="#DF6489" stroke-width="3.06152" stroke-linecap="round"/>
<line x1="1.53076" y1="-1.53076" x2="14.698" y2="-1.53076" transform="matrix(0.827634 0.561786 -0.557747 0.829663 26.728 91.6992)" stroke="#DF6489" stroke-width="3.06152" stroke-linecap="round"/>
<line x1="1.53076" y1="-1.53076" x2="14.7184" y2="-1.53076" transform="matrix(0.640983 0.768016 -0.764416 0.644174 79.8082 32.4456)" stroke="#DF6489" stroke-width="3.06152" stroke-linecap="round"/>
<line x1="1.53076" y1="-1.53076" x2="14.7179" y2="-1.53076" transform="matrix(0.646245 0.763593 -0.759965 0.64942 69.3492 40.2292)" stroke="#DF6489" stroke-width="3.06152" stroke-linecap="round"/>
<line x1="1.53076" y1="-1.53076" x2="14.7112" y2="-1.53076" transform="matrix(0.710639 0.704046 -0.700122 0.713542 58.3881 49.5298)" stroke="#DF6489" stroke-width="3.06152" stroke-linecap="round"/>
<line x1="1.53076" y1="-1.53076" x2="14.7064" y2="-1.53076" transform="matrix(0.754747 0.65652 -0.652473 0.757378 49.8634 60.7803)" stroke="#DF6489" stroke-width="3.06152" stroke-linecap="round"/>
<line x1="1.53076" y1="-1.53076" x2="14.7026" y2="-1.53076" transform="matrix(0.787564 0.616744 -0.612662 0.789948 39.9072 71.4861)" stroke="#DF6489" stroke-width="3.06152" stroke-linecap="round"/>
<line x1="1.53076" y1="-1.53076" x2="14.6979" y2="-1.53076" transform="matrix(0.828286 0.560823 -0.556786 0.830309 33.3439 81.5532)" stroke="#DF6489" stroke-width="3.06152" stroke-linecap="round"/>
<path d="M94.7808 16.0989V16.0989C66.8798 36.3692 43.0484 61.7581 24.5404 90.9297L15.2095 105.637" stroke="#001C30" stroke-width="9" stroke-linecap="round"/>
<line x1="4.5" y1="-4.5" x2="27.2577" y2="-4.5" transform="matrix(0.229293 0.973591 -0.972649 0.231295 3.45709 80.8694)" stroke="#001C30" stroke-width="9" stroke-linecap="round"/>
</svg>
