<svg width="618" height="766" viewBox="0 0 618 766" fill="none" xmlns="http://www.w3.org/2000/svg">
<line x1="1.53076" y1="-1.53076" x2="14.6952" y2="-1.53076" transform="matrix(-0.943516 -0.332147 0.327897 -0.944427 426.262 241.961)" stroke="#DF6489" stroke-width="3.06152" stroke-linecap="round"/>
<line x1="1.53076" y1="-1.53076" x2="14.715" y2="-1.53076" transform="matrix(-0.81705 -0.577175 0.572832 -0.819245 374.791 335.999)" stroke="#DF6489" stroke-width="3.06152" stroke-linecap="round"/>
<line x1="1.53076" y1="-1.53076" x2="14.698" y2="-1.53076" transform="matrix(-0.928511 -0.372086 0.367708 -0.929631 422.19 256.103)" stroke="#DF6489" stroke-width="3.06152" stroke-linecap="round"/>
<line x1="1.53076" y1="-1.53076" x2="14.7184" y2="-1.53076" transform="matrix(-0.790206 -0.613419 0.609221 -0.792554 382.988 325.325)" stroke="#DF6489" stroke-width="3.06152" stroke-linecap="round"/>
<line x1="1.53076" y1="-1.53076" x2="14.7179" y2="-1.53076" transform="matrix(-0.794402 -0.607974 0.603752 -0.796729 391.543 315.487)" stroke="#DF6489" stroke-width="3.06152" stroke-linecap="round"/>
<line x1="1.53076" y1="-1.53076" x2="14.7112" y2="-1.53076" transform="matrix(-0.844595 -0.536049 0.531596 -0.846592 400.265 304.061)" stroke="#DF6489" stroke-width="3.06152" stroke-linecap="round"/>
<line x1="1.53076" y1="-1.53076" x2="14.7064" y2="-1.53076" transform="matrix(-0.877535 -0.4802 0.475684 -0.879242 406.191 291.25)" stroke="#DF6489" stroke-width="3.06152" stroke-linecap="round"/>
<line x1="1.53076" y1="-1.53076" x2="14.7026" y2="-1.53076" transform="matrix(-0.901102 -0.434334 0.429837 -0.902559 413.631 278.664)" stroke="#DF6489" stroke-width="3.06152" stroke-linecap="round"/>
<line x1="1.53076" y1="-1.53076" x2="14.6979" y2="-1.53076" transform="matrix(-0.928942 -0.371006 0.366631 -0.930057 417.893 267.428)" stroke="#DF6489" stroke-width="3.06152" stroke-linecap="round"/>
<path d="M371.851 344.492V344.492C394.78 318.731 412.64 288.839 424.491 256.388L430.466 240.027" stroke="#001C30" stroke-width="9" stroke-linecap="round"/>
<line x1="4.5" y1="-4.5" x2="27.2577" y2="-4.5" transform="matrix(-0.431913 -0.902167 0.900819 -0.433668 447.237 261.713)" stroke="#001C30" stroke-width="9" stroke-linecap="round"/>
<line x1="1.53076" y1="-1.53076" x2="14.6952" y2="-1.53076" transform="matrix(0.931177 0.365311 -0.361096 0.932239 202.453 510.515)" stroke="#DF6489" stroke-width="3.06152" stroke-linecap="round"/>
<line x1="1.53076" y1="-1.53076" x2="14.715" y2="-1.53076" transform="matrix(0.796125 0.605712 -0.60145 0.798471 257.218 418.357)" stroke="#DF6489" stroke-width="3.06152" stroke-linecap="round"/>
<line x1="1.53076" y1="-1.53076" x2="14.698" y2="-1.53076" transform="matrix(0.914769 0.404695 -0.400358 0.916044 207.023 496.526)" stroke="#DF6489" stroke-width="3.06152" stroke-linecap="round"/>
<line x1="1.53076" y1="-1.53076" x2="14.7184" y2="-1.53076" transform="matrix(0.768015 0.640984 -0.636872 0.77051 248.649 428.734)" stroke="#DF6489" stroke-width="3.06152" stroke-linecap="round"/>
<line x1="1.53076" y1="-1.53076" x2="14.7179" y2="-1.53076" transform="matrix(0.772401 0.635692 -0.631554 0.774876 239.751 438.263)" stroke="#DF6489" stroke-width="3.06152" stroke-linecap="round"/>
<line x1="1.53076" y1="-1.53076" x2="14.7112" y2="-1.53076" transform="matrix(0.825106 0.565586 -0.561207 0.82726 230.63 449.375)" stroke="#DF6489" stroke-width="3.06152" stroke-linecap="round"/>
<line x1="1.53076" y1="-1.53076" x2="14.7064" y2="-1.53076" transform="matrix(0.860002 0.510938 -0.506485 0.861867 224.255 461.968)" stroke="#DF6489" stroke-width="3.06152" stroke-linecap="round"/>
<line x1="1.53076" y1="-1.53076" x2="14.7026" y2="-1.53076" transform="matrix(0.885176 0.465934 -0.461491 0.886791 216.374 474.282)" stroke="#DF6489" stroke-width="3.06152" stroke-linecap="round"/>
<line x1="1.53076" y1="-1.53076" x2="14.6979" y2="-1.53076" transform="matrix(0.915239 0.403631 -0.399297 0.916507 211.717 485.361)" stroke="#DF6489" stroke-width="3.06152" stroke-linecap="round"/>
<path d="M260.456 409.973V409.973C236.631 434.907 217.725 464.149 204.733 496.161L198.183 512.299" stroke="#001C30" stroke-width="9" stroke-linecap="round"/>
<line x1="4.5" y1="-4.5" x2="27.2577" y2="-4.5" transform="matrix(0.399733 0.916879 -0.915594 0.401535 182.19 490.034)" stroke="#001C30" stroke-width="9" stroke-linecap="round"/>
<circle cx="198.5" cy="198.5" r="198.5" fill="#001C30"/>
<path d="M343.75 173.5C343.75 144.298 320.077 120.625 290.875 120.625H107.5C78.2979 120.625 54.625 144.298 54.625 173.5V224.5C54.625 253.702 78.2979 277.375 107.5 277.375H290.875C320.077 277.375 343.75 253.702 343.75 224.5V173.5Z" fill="white" stroke="#DF6489" stroke-width="11.25"/>
<line x1="161.61" y1="232.207" x2="219.099" y2="232.207" stroke="#001C30" stroke-width="2.25"/>
<path d="M218.86 220.829L240.186 233.331L218.86 245.834V220.829Z" fill="white" stroke="#001C30" stroke-width="0.638771"/>
<path d="M246.886 233.333C246.886 235.122 245.571 236.52 244.011 236.52C242.451 236.52 241.137 235.122 241.137 233.333C241.137 231.543 242.451 230.145 244.011 230.145C245.571 230.145 246.886 231.543 246.886 233.333Z" fill="white" stroke="#001C30" stroke-width="0.638771"/>
<line x1="78.25" y1="207.308" x2="113.702" y2="207.308" stroke="#001C30" stroke-width="2.25"/>
<path d="M112.823 195.931L134.15 208.433L112.823 220.935V195.931Z" fill="white" stroke="#001C30" stroke-width="0.638771"/>
<path d="M140.85 208.433C140.85 210.222 139.535 211.621 137.975 211.621C136.415 211.621 135.101 210.222 135.101 208.433C135.101 206.644 136.415 205.246 137.975 205.246C139.535 205.246 140.85 206.644 140.85 208.433Z" fill="white" stroke="#001C30" stroke-width="0.638771"/>
<line x1="162.735" y1="180.727" x2="162.735" y2="233.332" stroke="#001C30" stroke-width="2.25"/>
<line x1="271.006" y1="204.924" x2="271.006" y2="233.331" stroke="#001C30" stroke-width="2.25"/>
<line x1="271.006" y1="176.168" x2="271.006" y2="194.755" stroke="#001C30" stroke-width="2.25"/>
<line x1="141.169" y1="207.308" x2="161.61" y2="207.308" stroke="#001C30" stroke-width="2.25"/>
<line x1="161.61" y1="179.602" x2="200.894" y2="179.602" stroke="#001C30" stroke-width="2.25"/>
<line x1="225.806" y1="175.043" x2="271.931" y2="175.043" stroke="#001C30" stroke-width="2.25"/>
<line x1="78.25" y1="171.361" x2="200.894" y2="171.361" stroke="#001C30" stroke-width="2.25"/>
<path d="M280.544 187.131H299.317C306.045 187.131 311.5 192.586 311.5 199.314C311.5 206.043 306.045 211.497 299.317 211.497H280.544V187.131Z" fill="white" stroke="#001C30" stroke-width="0.884453"/>
<path d="M210.598 186.159H196.783C202.767 180.769 202.733 171.368 196.79 166.013H211.137C217.579 166.013 223.39 169.873 225.891 175.8C223.394 182.051 217.34 186.159 210.598 186.159Z" fill="white" stroke="#001C30" stroke-width="0.7313"/>
<line x1="247.205" y1="232.207" x2="269.882" y2="232.207" stroke="#001C30" stroke-width="2.25"/>
<line x1="269.881" y1="203.799" x2="280.102" y2="203.799" stroke="#001C30" stroke-width="2.25"/>
<line x1="269.881" y1="193.631" x2="280.102" y2="193.631" stroke="#001C30" stroke-width="2.25"/>
<line x1="312.04" y1="198.189" x2="334.717" y2="198.189" stroke="#001C30" stroke-width="2.25"/>
<circle cx="419.5" cy="567.5" r="198.5" fill="#001C30"/>
<path d="M365.953 576.444C365.953 567.075 358.358 559.479 348.989 559.479H290.156C280.787 559.479 273.192 567.075 273.192 576.444V587.994C273.192 597.363 280.787 604.958 290.156 604.958H348.989C358.358 604.958 365.953 597.363 365.953 587.994V576.444Z" fill="white" stroke="#DF6489" stroke-width="3.60938"/>
<path d="M474.712 539.279C474.712 529.156 466.506 520.95 456.383 520.95H392.816C382.693 520.95 374.487 529.156 374.487 539.279V551.759C374.487 561.881 382.693 570.088 392.816 570.088H456.383C466.506 570.088 474.712 561.881 474.712 551.758V539.279Z" fill="white" stroke="#DF6489" stroke-width="3.89982"/>
<path d="M592.42 565.514C592.42 556.403 585.034 549.018 575.924 549.018H518.714C509.603 549.018 502.217 556.403 502.217 565.514V576.745C502.217 585.856 509.603 593.241 518.713 593.241H575.924C585.034 593.241 592.42 585.856 592.42 576.745V565.514Z" fill="white" stroke="#DF6489" stroke-width="3.50983"/>
<path d="M507.047 605.844C507.047 595.907 498.992 587.852 489.055 587.852H426.656C416.72 587.852 408.664 595.907 408.664 605.844V618.094C408.664 628.031 416.72 636.086 426.656 636.086H489.055C498.992 636.086 507.047 628.031 507.047 618.094V605.844Z" fill="white" stroke="#DF6489" stroke-width="3.82812"/>
<line x1="368.22" y1="610.916" x2="444.234" y2="610.916" stroke="#EBA3A3" stroke-width="2.975"/>
<path d="M443.917 597.382L472.054 612.404L443.917 627.426V597.382Z" fill="white" stroke="#001C30" stroke-width="0.844597"/>
<circle cx="477.173" cy="612.404" r="3.80069" fill="white" stroke="#001C30" stroke-width="0.844597"/>
<line x1="258" y1="580.933" x2="304.875" y2="580.933" stroke="#EBA3A3" stroke-width="2.975"/>
<path d="M303.714 567.399L331.85 582.421L303.714 597.442V567.399Z" fill="white" stroke="#001C30" stroke-width="0.844597"/>
<circle cx="336.97" cy="582.421" r="3.80069" fill="white" stroke="#001C30" stroke-width="0.844597"/>
<line x1="369.708" y1="549.059" x2="369.708" y2="612.403" stroke="#EBA3A3" stroke-width="2.975"/>
<line x1="512.867" y1="578.197" x2="512.867" y2="612.403" stroke="#EBA3A3" stroke-width="2.975"/>
<line x1="512.867" y1="543.569" x2="512.867" y2="565.951" stroke="#EBA3A3" stroke-width="2.975"/>
<line x1="341.193" y1="580.933" x2="368.22" y2="580.933" stroke="#EBA3A3" stroke-width="2.975"/>
<line x1="368.22" y1="547.571" x2="420.163" y2="547.571" stroke="#EBA3A3" stroke-width="2.975"/>
<line x1="453.102" y1="542.081" x2="514.09" y2="542.081" stroke="#EBA3A3" stroke-width="2.975"/>
<line x1="258" y1="537.647" x2="420.163" y2="537.647" stroke="#EBA3A3" stroke-width="2.975"/>
<path d="M525.478 556.822H551.79C559.863 556.822 566.408 563.367 566.408 571.44C566.408 579.513 559.863 586.058 551.79 586.058H525.478V556.822Z" fill="white" stroke="#001C30" stroke-width="1.16944"/>
<path d="M434.167 555.557H414.809C422.277 549.228 422.233 537.67 414.819 531.383H434.806C442.708 531.383 449.884 535.971 453.206 543.126C449.891 550.673 442.423 555.557 434.167 555.557Z" fill="white" stroke="#001C30" stroke-width="0.966942"/>
<line x1="481.396" y1="610.916" x2="511.38" y2="610.916" stroke="#EBA3A3" stroke-width="2.975"/>
<line x1="511.379" y1="576.71" x2="524.893" y2="576.71" stroke="#EBA3A3" stroke-width="2.975"/>
<line x1="511.379" y1="564.463" x2="524.893" y2="564.463" stroke="#EBA3A3" stroke-width="2.975"/>
<line x1="567.123" y1="569.953" x2="597.106" y2="569.953" stroke="#EBA3A3" stroke-width="2.975"/>
</svg>
