<svg width="413" height="419" viewBox="0 0 413 419" fill="none" xmlns="http://www.w3.org/2000/svg">
<circle cx="198.5" cy="220.5" r="198.5" fill="#001C30"/>
<path fill-rule="evenodd" clip-rule="evenodd" d="M77.9853 127.388C68.9443 121.805 58.4786 132.084 63.8971 141.224L65.5865 144.074C67.2566 146.891 67.5823 150.307 66.4746 153.389L63.6451 161.263C62.7892 163.644 62.7706 166.246 63.5923 168.64L66.8198 178.042C67.7228 180.672 67.6082 183.545 66.4986 186.095L64.389 190.944C60.5451 199.778 69.5373 208.739 78.3581 204.865C80.1202 204.091 82.0599 203.811 83.9688 204.057L105.549 206.835C106.488 206.956 107.438 206.956 108.377 206.837L130.348 204.036C132.106 203.812 133.891 204.057 135.523 204.744C134.039 203.05 133.132 200.784 133.132 198.294C133.132 193.051 137.152 188.802 142.111 188.802C145.553 188.802 148.542 190.848 150.05 193.853C150.014 193.772 149.977 193.691 149.939 193.61C149.026 191.664 148.829 189.458 149.383 187.381L153.836 170.683C154.388 168.61 154.33 166.422 153.669 164.382L149.759 152.327C148.961 149.868 149.045 147.207 149.995 144.803L152.266 139.056C156.094 129.371 144.883 120.701 136.472 126.842C134.327 128.408 131.664 129.094 129.029 128.758L108.377 126.126C107.438 126.006 106.488 126.007 105.549 126.128L84.6252 128.821C82.313 129.118 79.9689 128.613 77.9853 127.388Z" fill="#F7D93E"/>
<circle cx="81.7098" cy="325.178" r="9.125" fill="#DF6489"/>
<circle cx="127.377" cy="325.178" r="9.125" fill="#DF6489"/>
<circle cx="107.878" cy="344.162" r="9.125" fill="#DF6489"/>
<circle cx="103.26" cy="306.192" r="9.125" fill="#DF6489"/>
<path d="M223.516 165.788C223.842 165.462 223.842 164.934 223.516 164.608L218.204 159.296C217.878 158.97 217.35 158.97 217.024 159.296C216.698 159.622 216.698 160.151 217.024 160.477L221.745 165.198L217.024 169.92C216.698 170.246 216.698 170.774 217.024 171.1C217.35 171.426 217.878 171.426 218.204 171.1L223.516 165.788ZM181.877 166.033H222.926V164.364H181.877V166.033Z" fill="#001C30"/>
<path d="M238.535 293.14C239.364 293.14 240.035 292.468 240.035 291.64L240.035 278.14C240.035 277.311 239.364 276.64 238.535 276.64C237.707 276.64 237.035 277.311 237.035 278.14L237.035 290.14L225.035 290.14C224.207 290.14 223.535 290.811 223.535 291.64C223.535 292.468 224.207 293.14 225.035 293.14L238.535 293.14ZM164.91 220.136L237.474 292.7L239.596 290.579L167.031 218.015L164.91 220.136Z" fill="white"/>
<path d="M168.575 291.64C168.575 292.468 169.247 293.14 170.075 293.14L183.575 293.14C184.404 293.14 185.075 292.468 185.075 291.64C185.075 290.811 184.404 290.14 183.575 290.14L171.575 290.14L171.575 278.14C171.575 277.311 170.904 276.64 170.075 276.64C169.247 276.64 168.575 277.311 168.575 278.14L168.575 291.64ZM241.579 218.015L169.015 290.579L171.136 292.7L243.701 220.136L241.579 218.015Z" fill="white"/>
<path d="M223.986 166.259C224.572 165.673 224.572 164.723 223.986 164.138L214.44 154.592C213.855 154.006 212.905 154.006 212.319 154.592C211.733 155.177 211.733 156.127 212.319 156.713L220.804 165.198L212.319 173.684C211.733 174.269 211.733 175.219 212.319 175.805C212.905 176.391 213.855 176.391 214.44 175.805L223.986 166.259ZM181.877 166.698H222.926V163.698H181.877V166.698Z" fill="white"/>
<path d="M294.726 274.012C295.312 274.598 296.262 274.598 296.848 274.012L306.394 264.466C306.979 263.88 306.979 262.931 306.394 262.345C305.808 261.759 304.858 261.759 304.272 262.345L295.787 270.83L287.302 262.345C286.716 261.759 285.766 261.759 285.18 262.345C284.595 262.931 284.595 263.88 285.18 264.466L294.726 274.012ZM294.287 231.903V272.951H297.287V231.903H294.287Z" fill="white"/>
<path d="M103.85 274.012C104.436 274.598 105.386 274.598 105.971 274.012L115.517 264.466C116.103 263.88 116.103 262.931 115.517 262.345C114.932 261.759 113.982 261.759 113.396 262.345L104.911 270.83L96.4254 262.345C95.8396 261.759 94.8899 261.759 94.3041 262.345C93.7183 262.931 93.7183 263.88 94.3041 264.466L103.85 274.012ZM103.411 231.903V272.951H106.411V231.903H103.411Z" fill="white"/>
<ellipse cx="277.325" cy="337.176" rx="9.125" ry="9.4925" transform="rotate(-20.9822 277.325 337.176)" fill="#DF6489"/>
<path d="M272.639 324.959L281.513 330.623L269.342 335.291L272.639 324.959Z" fill="#DF6489"/>
<ellipse cx="293.295" cy="313.624" rx="9.125" ry="9.4925" transform="rotate(-16.0577 293.295 313.624)" fill="#DF6489"/>
<path d="M289.676 301.05L298.031 307.456L285.504 311.061L289.676 301.05Z" fill="#DF6489"/>
<path fill-rule="evenodd" clip-rule="evenodd" d="M251.607 140.828C246.189 131.687 256.655 121.409 265.696 126.991C267.679 128.216 270.023 128.722 272.335 128.424L293.26 125.731C294.198 125.61 295.149 125.61 296.088 125.729L316.739 128.362C319.374 128.697 322.037 128.012 324.182 126.446C332.593 120.304 343.804 128.974 339.977 138.659L337.705 144.406C336.755 146.811 336.672 149.471 337.469 151.93L341.379 163.985C342.041 166.025 342.099 168.214 341.546 170.286L337.093 186.985C336.637 188.694 336.69 190.491 337.232 192.158C334.988 189.197 331.364 187.824 328.006 188.479L323.273 186.535L322.647 191.956C320.59 194.881 320.406 198.998 322.494 202.386C323.169 203.48 324.018 204.397 324.978 205.119L323.407 204.422C321.729 203.678 319.879 203.408 318.059 203.64L296.088 206.44C295.149 206.56 294.198 206.559 293.26 206.438L271.679 203.661C269.77 203.415 267.83 203.694 266.068 204.468C257.248 208.343 248.255 199.382 252.099 190.547L254.209 185.699C255.318 183.149 255.433 180.276 254.53 177.645L251.303 168.243C250.481 165.85 250.5 163.248 251.355 160.866L254.185 152.993C255.293 149.91 254.967 146.495 253.297 143.678L251.607 140.828Z" fill="#F7D93E"/>
<ellipse cx="322.187" cy="319.812" rx="9.125" ry="9.4925" transform="rotate(22.175 322.187 319.812)" fill="#DF6489"/>
<path d="M327.125 307.696L329.724 317.897L317.653 312.977L327.125 307.696Z" fill="#DF6489"/>
<ellipse cx="308.633" cy="349.644" rx="9.125" ry="9.4925" transform="rotate(11.1885 308.633 349.644)" fill="#DF6489"/>
<path d="M311.172 336.807L315.667 346.327L302.88 343.798L311.172 336.807Z" fill="#DF6489"/>
<line x1="223.195" y1="249.227" x2="184.135" y2="269.132" stroke="#E60000" stroke-width="5"/>
<path d="M185.284 249L224.332 269.568" stroke="#E60000" stroke-width="5"/>
<line x1="1.53076" y1="-1.53076" x2="14.6952" y2="-1.53076" transform="matrix(-0.594078 0.804745 -0.806862 -0.590282 307.374 20.1465)" stroke="#DF6489" stroke-width="3.06152" stroke-linecap="round"/>
<line x1="1.53076" y1="-1.53076" x2="14.715" y2="-1.53076" transform="matrix(-0.791284 0.612023 -0.615394 -0.787775 382.198 96.917)" stroke="#DF6489" stroke-width="3.06152" stroke-linecap="round"/>
<line x1="1.53076" y1="-1.53076" x2="14.698" y2="-1.53076" transform="matrix(-0.627866 0.778694 -0.781048 -0.624008 319.702 28.1841)" stroke="#DF6489" stroke-width="3.06152" stroke-linecap="round"/>
<line x1="1.53076" y1="-1.53076" x2="14.7184" y2="-1.53076" transform="matrix(-0.818069 0.575735 -0.579211 -0.814744 374.395 85.9521)" stroke="#DF6489" stroke-width="3.06152" stroke-linecap="round"/>
<line x1="1.53076" y1="-1.53076" x2="14.7179" y2="-1.53076" transform="matrix(-0.814094 0.581343 -0.584805 -0.810738 367.497 74.8892)" stroke="#DF6489" stroke-width="3.06152" stroke-linecap="round"/>
<line x1="1.53076" y1="-1.53076" x2="14.7112" y2="-1.53076" transform="matrix(-0.760036 0.65041 -0.653625 -0.756364 359.128 63.2012)" stroke="#DF6489" stroke-width="3.06152" stroke-linecap="round"/>
<line x1="1.53076" y1="-1.53076" x2="14.7064" y2="-1.53076" transform="matrix(-0.716293 0.698272 -0.701227 -0.712476 348.616 53.7812)" stroke="#DF6489" stroke-width="3.06152" stroke-linecap="round"/>
<line x1="1.53076" y1="-1.53076" x2="14.7026" y2="-1.53076" transform="matrix(-0.679348 0.734246 -0.736957 -0.675475 338.764 42.9795)" stroke="#DF6489" stroke-width="3.06152" stroke-linecap="round"/>
<line x1="1.53076" y1="-1.53076" x2="14.6979" y2="-1.53076" transform="matrix(-0.62696 0.779423 -0.781771 -0.623103 329.27 35.6113)" stroke="#DF6489" stroke-width="3.06152" stroke-linecap="round"/>
<path d="M389.457 102.217V102.217C371.547 72.7452 348.201 46.9089 320.648 26.0674L306.757 15.5601" stroke="#001C30" stroke-width="9" stroke-linecap="round"/>
<line x1="4.5" y1="-4.5" x2="27.2577" y2="-4.5" transform="matrix(-0.989134 0.148551 -0.150624 -0.98836 332.406 5.88184)" stroke="#001C30" stroke-width="9" stroke-linecap="round"/>
</svg>
