<svg width="347" height="329" viewBox="0 0 347 329" fill="none" xmlns="http://www.w3.org/2000/svg">
<line x1="195.501" y1="4.92843" x2="209.089" y2="11.7969" stroke="#DF6489" stroke-width="1.36643" stroke-linecap="round"/>
<line x1="175.463" y1="95.632" x2="189.052" y2="102.501" stroke="#DF6489" stroke-width="1.36643" stroke-linecap="round"/>
<line x1="196.984" y1="45.2668" x2="199.597" y2="46.5877" stroke="#DF6489" stroke-width="1.36643" stroke-linecap="round"/>
<line x1="188.134" y1="52.8239" x2="190.747" y2="54.1448" stroke="#DF6489" stroke-width="1.36643" stroke-linecap="round"/>
<line x1="196.658" y1="39.8532" x2="203.975" y2="43.5517" stroke="#DF6489" stroke-width="1.36643" stroke-linecap="round"/>
<line x1="189.671" y1="60.5993" x2="196.988" y2="64.2977" stroke="#DF6489" stroke-width="1.36643" stroke-linecap="round"/>
<line x1="177.442" y1="62.2922" x2="184.759" y2="65.9906" stroke="#DF6489" stroke-width="1.36643" stroke-linecap="round"/>
<line x1="202.619" y1="34.1174" x2="211.156" y2="38.4322" stroke="#DF6489" stroke-width="1.36643" stroke-linecap="round"/>
<line x1="172.007" y1="67.4196" x2="180.543" y2="71.7345" stroke="#DF6489" stroke-width="1.36643" stroke-linecap="round"/>
<line x1="208.925" y1="29.4304" x2="216.068" y2="33.0407" stroke="#DF6489" stroke-width="1.36643" stroke-linecap="round"/>
<line x1="167.525" y1="74.1223" x2="174.668" y2="77.7326" stroke="#DF6489" stroke-width="1.36643" stroke-linecap="round"/>
<line x1="206.088" y1="19.4665" x2="221.244" y2="27.1275" stroke="#DF6489" stroke-width="1.36643" stroke-linecap="round"/>
<line x1="163.308" y1="80.302" x2="178.465" y2="87.963" stroke="#DF6489" stroke-width="1.36643" stroke-linecap="round"/>
<line x1="213.27" y1="13.9104" x2="224.943" y2="19.8102" stroke="#DF6489" stroke-width="1.36643" stroke-linecap="round"/>
<line x1="159.784" y1="87.7068" x2="171.456" y2="93.6066" stroke="#DF6489" stroke-width="1.36643" stroke-linecap="round"/>
<line x1="192.454" y1="42.9777" x2="194.196" y2="43.8583" stroke="#DF6489" stroke-width="1.36643" stroke-linecap="round"/>
<line x1="193.012" y1="55.2888" x2="194.754" y2="56.1694" stroke="#DF6489" stroke-width="1.36643" stroke-linecap="round"/>
<line x1="190.429" y1="36.5954" x2="194.439" y2="38.6222" stroke="#DF6489" stroke-width="1.36643" stroke-linecap="round"/>
<line x1="182.528" y1="56.9895" x2="186.538" y2="59.0163" stroke="#DF6489" stroke-width="1.36643" stroke-linecap="round"/>
<line x1="189.811" y1="68.5451" x2="197.128" y2="72.2435" stroke="#DF6489" stroke-width="1.36643" stroke-linecap="round"/>
<line x1="190.076" y1="27.7771" x2="198.787" y2="32.1799" stroke="#DF6489" stroke-width="1.36643" stroke-linecap="round"/>
<line x1="183.854" y1="73.4079" x2="196.745" y2="79.9242" stroke="#DF6489" stroke-width="1.36643" stroke-linecap="round"/>
<line x1="191.33" y1="20.5368" x2="204.918" y2="27.4053" stroke="#DF6489" stroke-width="1.36643" stroke-linecap="round"/>
<line x1="179.721" y1="80.2868" x2="195.4" y2="88.212" stroke="#DF6489" stroke-width="1.36643" stroke-linecap="round"/>
<line x1="192.499" y1="12.5984" x2="203.475" y2="18.146" stroke="#DF6489" stroke-width="1.36643" stroke-linecap="round"/>
<line x1="182.123" y1="89.8127" x2="193.099" y2="95.3603" stroke="#DF6489" stroke-width="1.36643" stroke-linecap="round"/>
<path d="M197.132 1.0508L195.896 3.49694C188.274 18.5773 187.925 36.3062 194.948 51.6748V51.6748V51.6748C200.023 67.1244 198.753 83.9574 191.417 98.4707L188.257 104.724" stroke="white" stroke-width="1.95205" stroke-linecap="round"/>
<path d="M227.347 15.2348L224.714 20.7724C218.282 34.2959 206.854 44.7967 192.836 50.0646V50.0646V50.0646C179.65 56.7554 169.053 67.6273 162.702 80.9803L158.58 89.6462" stroke="white" stroke-width="1.95205" stroke-linecap="round"/>
<line x1="233.998" y1="238.795" x2="245.771" y2="244.746" stroke="#DF6489" stroke-width="1.1839" stroke-linecap="round"/>
<line x1="216.637" y1="317.382" x2="228.411" y2="323.333" stroke="#DF6489" stroke-width="1.1839" stroke-linecap="round"/>
<line x1="235.283" y1="273.745" x2="237.547" y2="274.889" stroke="#DF6489" stroke-width="1.1839" stroke-linecap="round"/>
<line x1="227.615" y1="280.292" x2="229.879" y2="281.436" stroke="#F1DC69" stroke-width="1.1839" stroke-linecap="round"/>
<line x1="235.001" y1="269.054" x2="241.34" y2="272.258" stroke="#DF6489" stroke-width="1.1839" stroke-linecap="round"/>
<line x1="228.947" y1="287.03" x2="235.287" y2="290.234" stroke="#DF6489" stroke-width="1.1839" stroke-linecap="round"/>
<line x1="218.351" y1="288.496" x2="224.691" y2="291.7" stroke="#F1DC69" stroke-width="1.1839" stroke-linecap="round"/>
<line x1="240.166" y1="264.085" x2="247.562" y2="267.823" stroke="#DF6489" stroke-width="1.1839" stroke-linecap="round"/>
<line x1="213.642" y1="292.938" x2="221.039" y2="296.677" stroke="#DF6489" stroke-width="1.1839" stroke-linecap="round"/>
<line x1="245.629" y1="260.023" x2="251.818" y2="263.151" stroke="#DF6489" stroke-width="1.1839" stroke-linecap="round"/>
<line x1="209.76" y1="298.745" x2="215.948" y2="301.873" stroke="#DF6489" stroke-width="1.1839" stroke-linecap="round"/>
<line x1="243.171" y1="251.39" x2="256.303" y2="258.028" stroke="#DF6489" stroke-width="1.1839" stroke-linecap="round"/>
<line x1="206.106" y1="304.1" x2="219.238" y2="310.738" stroke="#DF6489" stroke-width="1.1839" stroke-linecap="round"/>
<line x1="249.394" y1="246.577" x2="259.507" y2="251.689" stroke="#DF6489" stroke-width="1.1839" stroke-linecap="round"/>
<line x1="203.052" y1="310.516" x2="213.165" y2="315.627" stroke="#DF6489" stroke-width="1.1839" stroke-linecap="round"/>
<line x1="231.358" y1="271.761" x2="232.868" y2="272.524" stroke="#DF6489" stroke-width="1.1839" stroke-linecap="round"/>
<line x1="231.841" y1="282.428" x2="233.351" y2="283.191" stroke="#DF6489" stroke-width="1.1839" stroke-linecap="round"/>
<line x1="229.604" y1="266.231" x2="233.078" y2="267.987" stroke="#DF6489" stroke-width="1.1839" stroke-linecap="round"/>
<line x1="222.758" y1="283.901" x2="226.232" y2="285.657" stroke="#DF6489" stroke-width="1.1839" stroke-linecap="round"/>
<line x1="229.068" y1="293.913" x2="235.408" y2="297.117" stroke="#DF6489" stroke-width="1.1839" stroke-linecap="round"/>
<line x1="229.298" y1="258.591" x2="236.845" y2="262.406" stroke="#DF6489" stroke-width="1.1839" stroke-linecap="round"/>
<line x1="223.907" y1="298.126" x2="235.076" y2="303.772" stroke="#DF6489" stroke-width="1.1839" stroke-linecap="round"/>
<line x1="230.384" y1="252.318" x2="242.157" y2="258.269" stroke="#DF6489" stroke-width="1.1839" stroke-linecap="round"/>
<line x1="220.326" y1="304.086" x2="233.911" y2="310.952" stroke="#DF6489" stroke-width="1.1839" stroke-linecap="round"/>
<line x1="231.397" y1="245.439" x2="240.907" y2="250.246" stroke="#DF6489" stroke-width="1.1839" stroke-linecap="round"/>
<line x1="222.408" y1="312.339" x2="231.917" y2="317.146" stroke="#DF6489" stroke-width="1.1839" stroke-linecap="round"/>
<path d="M235.412 235.434L234.34 237.554C227.736 250.62 227.434 265.98 233.519 279.296V279.296V279.296C237.916 292.682 236.816 307.266 230.46 319.841L227.722 325.258" stroke="white" stroke-width="1.69129" stroke-linecap="round"/>
<path d="M261.59 247.723L259.308 252.521C253.736 264.238 243.834 273.336 231.689 277.9V277.9V277.9C220.264 283.697 211.083 293.117 205.58 304.686L202.009 312.194" stroke="white" stroke-width="1.69129" stroke-linecap="round"/>
<line x1="118.084" y1="235.522" x2="129.857" y2="241.473" stroke="#DF6489" stroke-width="1.1839" stroke-linecap="round"/>
<line x1="100.723" y1="314.109" x2="112.497" y2="320.06" stroke="#DF6489" stroke-width="1.1839" stroke-linecap="round"/>
<line x1="119.369" y1="270.473" x2="121.633" y2="271.617" stroke="#DF6489" stroke-width="1.1839" stroke-linecap="round"/>
<line x1="111.701" y1="277.019" x2="113.965" y2="278.163" stroke="#DF6489" stroke-width="1.1839" stroke-linecap="round"/>
<line x1="119.086" y1="265.781" x2="125.426" y2="268.986" stroke="#DF6489" stroke-width="1.1839" stroke-linecap="round"/>
<line x1="113.033" y1="283.756" x2="119.372" y2="286.961" stroke="#DF6489" stroke-width="1.1839" stroke-linecap="round"/>
<line x1="102.437" y1="285.224" x2="108.777" y2="288.428" stroke="#DF6489" stroke-width="1.1839" stroke-linecap="round"/>
<line x1="124.251" y1="260.811" x2="131.648" y2="264.55" stroke="#DF6489" stroke-width="1.1839" stroke-linecap="round"/>
<line x1="97.7283" y1="289.665" x2="105.125" y2="293.404" stroke="#DF6489" stroke-width="1.1839" stroke-linecap="round"/>
<line x1="129.715" y1="256.751" x2="135.904" y2="259.88" stroke="#DF6489" stroke-width="1.1839" stroke-linecap="round"/>
<line x1="93.8455" y1="295.473" x2="100.034" y2="298.601" stroke="#F1DC69" stroke-width="1.1839" stroke-linecap="round"/>
<line x1="127.257" y1="248.118" x2="140.389" y2="254.756" stroke="#DF6489" stroke-width="1.1839" stroke-linecap="round"/>
<line x1="90.1916" y1="300.828" x2="103.324" y2="307.465" stroke="#DF6489" stroke-width="1.1839" stroke-linecap="round"/>
<line x1="133.48" y1="243.304" x2="143.593" y2="248.416" stroke="#DF6489" stroke-width="1.1839" stroke-linecap="round"/>
<line x1="87.1382" y1="307.244" x2="97.2513" y2="312.355" stroke="#DF6489" stroke-width="1.1839" stroke-linecap="round"/>
<line x1="115.444" y1="268.489" x2="116.953" y2="269.252" stroke="#DF6489" stroke-width="1.1839" stroke-linecap="round"/>
<line x1="115.927" y1="279.156" x2="117.436" y2="279.919" stroke="#DF6489" stroke-width="1.1839" stroke-linecap="round"/>
<line x1="113.689" y1="262.958" x2="117.163" y2="264.714" stroke="#DF6489" stroke-width="1.1839" stroke-linecap="round"/>
<line x1="106.844" y1="280.629" x2="110.318" y2="282.385" stroke="#DF6489" stroke-width="1.1839" stroke-linecap="round"/>
<line x1="113.154" y1="290.641" x2="119.494" y2="293.845" stroke="#DF6489" stroke-width="1.1839" stroke-linecap="round"/>
<line x1="113.384" y1="255.319" x2="120.931" y2="259.134" stroke="#DF6489" stroke-width="1.1839" stroke-linecap="round"/>
<line x1="107.992" y1="294.853" x2="119.162" y2="300.499" stroke="#F1DC69" stroke-width="1.1839" stroke-linecap="round"/>
<line x1="114.47" y1="249.046" x2="126.243" y2="254.997" stroke="#DF6489" stroke-width="1.1839" stroke-linecap="round"/>
<line x1="104.412" y1="300.813" x2="117.996" y2="307.68" stroke="#DF6489" stroke-width="1.1839" stroke-linecap="round"/>
<line x1="115.483" y1="242.167" x2="124.992" y2="246.974" stroke="#DF6489" stroke-width="1.1839" stroke-linecap="round"/>
<line x1="106.493" y1="309.067" x2="116.003" y2="313.873" stroke="#F1DC69" stroke-width="1.1839" stroke-linecap="round"/>
<path d="M119.497 232.162L118.426 234.282C111.822 247.348 111.52 262.708 117.605 276.024V276.024V276.024C122.002 289.41 120.902 303.994 114.546 316.569L111.807 321.987" stroke="white" stroke-width="1.69129" stroke-linecap="round"/>
<path d="M145.676 244.451L143.394 249.249C137.821 260.966 127.92 270.064 115.775 274.628V274.628V274.628C104.35 280.425 95.1686 289.845 89.6659 301.414L86.0947 308.922" stroke="white" stroke-width="1.69129" stroke-linecap="round"/>
<line x1="36.8074" y1="234.159" x2="48.5809" y2="240.11" stroke="#DF6489" stroke-width="1.1839" stroke-linecap="round"/>
<line x1="19.4468" y1="312.746" x2="31.2203" y2="318.697" stroke="#DF6489" stroke-width="1.1839" stroke-linecap="round"/>
<line x1="38.0923" y1="269.108" x2="40.3563" y2="270.253" stroke="#DF6489" stroke-width="1.1839" stroke-linecap="round"/>
<line x1="30.4244" y1="275.656" x2="32.6884" y2="276.8" stroke="#DF6489" stroke-width="1.1839" stroke-linecap="round"/>
<line x1="37.8102" y1="264.417" x2="44.1498" y2="267.622" stroke="#DF6489" stroke-width="1.1839" stroke-linecap="round"/>
<line x1="31.7565" y1="282.394" x2="38.0961" y2="285.598" stroke="#DF6489" stroke-width="1.1839" stroke-linecap="round"/>
<line x1="21.1609" y1="283.86" x2="27.5005" y2="287.064" stroke="#DF6489" stroke-width="1.1839" stroke-linecap="round"/>
<line x1="42.9751" y1="259.449" x2="50.3713" y2="263.187" stroke="#F1DC69" stroke-width="1.1839" stroke-linecap="round"/>
<line x1="16.452" y1="288.302" x2="23.8482" y2="292.041" stroke="#DF6489" stroke-width="1.1839" stroke-linecap="round"/>
<line x1="48.4387" y1="255.387" x2="54.6274" y2="258.515" stroke="#DF6489" stroke-width="1.1839" stroke-linecap="round"/>
<line x1="12.5692" y1="294.109" x2="18.7579" y2="297.237" stroke="#DF6489" stroke-width="1.1839" stroke-linecap="round"/>
<line x1="45.9803" y1="246.754" x2="59.1123" y2="253.392" stroke="#DF6489" stroke-width="1.1839" stroke-linecap="round"/>
<line x1="8.91534" y1="299.464" x2="22.0474" y2="306.101" stroke="#DF6489" stroke-width="1.1839" stroke-linecap="round"/>
<line x1="52.2035" y1="241.941" x2="62.3167" y2="247.053" stroke="#DF6489" stroke-width="1.1839" stroke-linecap="round"/>
<line x1="5.86188" y1="305.879" x2="15.975" y2="310.991" stroke="#DF6489" stroke-width="1.1839" stroke-linecap="round"/>
<line x1="34.1678" y1="267.124" x2="35.6771" y2="267.887" stroke="#DF6489" stroke-width="1.1839" stroke-linecap="round"/>
<line x1="34.6508" y1="277.791" x2="36.1601" y2="278.554" stroke="#DF6489" stroke-width="1.1839" stroke-linecap="round"/>
<line x1="32.4131" y1="261.595" x2="35.8871" y2="263.351" stroke="#DF6489" stroke-width="1.1839" stroke-linecap="round"/>
<line x1="25.5679" y1="279.266" x2="29.0419" y2="281.022" stroke="#DF6489" stroke-width="1.1839" stroke-linecap="round"/>
<line x1="31.8778" y1="289.276" x2="38.2174" y2="292.481" stroke="#DF6489" stroke-width="1.1839" stroke-linecap="round"/>
<line x1="32.1073" y1="253.955" x2="39.6544" y2="257.77" stroke="#DF6489" stroke-width="1.1839" stroke-linecap="round"/>
<line x1="26.7162" y1="293.49" x2="37.8859" y2="299.136" stroke="#DF6489" stroke-width="1.1839" stroke-linecap="round"/>
<line x1="33.1935" y1="247.682" x2="44.9671" y2="253.633" stroke="#F1DC69" stroke-width="1.1839" stroke-linecap="round"/>
<line x1="23.1353" y1="299.45" x2="36.7201" y2="306.316" stroke="#DF6489" stroke-width="1.1839" stroke-linecap="round"/>
<line x1="34.2068" y1="240.803" x2="43.7162" y2="245.61" stroke="#DF6489" stroke-width="1.1839" stroke-linecap="round"/>
<line x1="25.2171" y1="307.704" x2="34.7265" y2="312.51" stroke="#DF6489" stroke-width="1.1839" stroke-linecap="round"/>
<path d="M38.2212 230.798L37.1499 232.917C30.5457 245.983 30.2434 261.344 36.3285 274.66V274.66V274.66C40.7257 288.046 39.6254 302.63 33.2695 315.205L30.5311 320.622" stroke="white" stroke-width="1.69129" stroke-linecap="round"/>
<path d="M64.4001 243.087L62.118 247.885C56.5451 259.602 46.6439 268.7 34.4984 273.264V273.264V273.264C23.0738 279.061 13.8923 288.481 8.3896 300.05L4.81843 307.559" stroke="white" stroke-width="1.69129" stroke-linecap="round"/>
<line x1="313.836" y1="240.917" x2="325.609" y2="246.868" stroke="#DF6489" stroke-width="1.1839" stroke-linecap="round"/>
<line x1="296.475" y1="319.505" x2="308.248" y2="325.456" stroke="#DF6489" stroke-width="1.1839" stroke-linecap="round"/>
<line x1="315.12" y1="275.868" x2="317.384" y2="277.012" stroke="#F1DC69" stroke-width="1.1839" stroke-linecap="round"/>
<line x1="307.452" y1="282.415" x2="309.716" y2="283.559" stroke="#DF6489" stroke-width="1.1839" stroke-linecap="round"/>
<line x1="314.838" y1="271.177" x2="321.178" y2="274.382" stroke="#F1DC69" stroke-width="1.1839" stroke-linecap="round"/>
<line x1="308.785" y1="289.153" x2="315.124" y2="292.357" stroke="#DF6489" stroke-width="1.1839" stroke-linecap="round"/>
<line x1="298.189" y1="290.619" x2="304.529" y2="293.823" stroke="#DF6489" stroke-width="1.1839" stroke-linecap="round"/>
<line x1="320.003" y1="266.207" x2="327.399" y2="269.945" stroke="#DF6489" stroke-width="1.1839" stroke-linecap="round"/>
<line x1="293.48" y1="295.061" x2="300.876" y2="298.799" stroke="#DF6489" stroke-width="1.1839" stroke-linecap="round"/>
<line x1="325.467" y1="262.146" x2="331.655" y2="265.275" stroke="#DF6489" stroke-width="1.1839" stroke-linecap="round"/>
<line x1="289.597" y1="300.868" x2="295.786" y2="303.996" stroke="#DF6489" stroke-width="1.1839" stroke-linecap="round"/>
<line x1="323.008" y1="253.514" x2="336.14" y2="260.151" stroke="#DF6489" stroke-width="1.1839" stroke-linecap="round"/>
<line x1="285.943" y1="306.223" x2="299.075" y2="312.86" stroke="#DF6489" stroke-width="1.1839" stroke-linecap="round"/>
<line x1="329.232" y1="248.7" x2="339.345" y2="253.812" stroke="#DF6489" stroke-width="1.1839" stroke-linecap="round"/>
<line x1="282.89" y1="312.639" x2="293.003" y2="317.75" stroke="#DF6489" stroke-width="1.1839" stroke-linecap="round"/>
<line x1="311.196" y1="273.884" x2="312.705" y2="274.647" stroke="#DF6489" stroke-width="1.1839" stroke-linecap="round"/>
<line x1="311.679" y1="284.551" x2="313.188" y2="285.314" stroke="#DF6489" stroke-width="1.1839" stroke-linecap="round"/>
<line x1="309.441" y1="268.354" x2="312.915" y2="270.11" stroke="#DF6489" stroke-width="1.1839" stroke-linecap="round"/>
<line x1="302.596" y1="286.024" x2="306.07" y2="287.78" stroke="#DF6489" stroke-width="1.1839" stroke-linecap="round"/>
<line x1="308.906" y1="296.036" x2="315.245" y2="299.24" stroke="#DF6489" stroke-width="1.1839" stroke-linecap="round"/>
<line x1="309.135" y1="260.714" x2="316.682" y2="264.529" stroke="#F1DC69" stroke-width="1.1839" stroke-linecap="round"/>
<line x1="303.744" y1="300.249" x2="314.914" y2="305.895" stroke="#DF6489" stroke-width="1.1839" stroke-linecap="round"/>
<line x1="310.222" y1="254.441" x2="321.995" y2="260.392" stroke="#DF6489" stroke-width="1.1839" stroke-linecap="round"/>
<line x1="300.163" y1="306.209" x2="313.748" y2="313.075" stroke="#DF6489" stroke-width="1.1839" stroke-linecap="round"/>
<line x1="311.235" y1="247.562" x2="320.744" y2="252.369" stroke="#DF6489" stroke-width="1.1839" stroke-linecap="round"/>
<line x1="302.245" y1="314.462" x2="311.755" y2="319.268" stroke="#DF6489" stroke-width="1.1839" stroke-linecap="round"/>
<path d="M315.249 237.558L314.178 239.677C307.574 252.743 307.271 268.104 313.357 281.419V281.419V281.419C317.754 294.805 316.653 309.39 310.298 321.964L307.559 327.382" stroke="white" stroke-width="1.69129" stroke-linecap="round"/>
<path d="M341.428 249.847L339.146 254.644C333.573 266.361 323.672 275.459 311.526 280.024V280.024V280.024C300.102 285.821 290.92 295.24 285.418 306.81L281.846 314.318" stroke="white" stroke-width="1.69129" stroke-linecap="round"/>
<line x1="182.364" y1="116" x2="182.364" y2="171.11" stroke="white" stroke-width="2.72739"/>
<line x1="320.378" y1="170.643" x2="47.6384" y2="170.643" stroke="white" stroke-width="2.72739"/>
<path d="M46.94 224.738C47.0998 224.898 47.3588 224.898 47.5186 224.738L50.1221 222.135C50.2819 221.975 50.2819 221.716 50.1221 221.556C49.9623 221.397 49.7033 221.397 49.5435 221.556L47.2293 223.871L44.915 221.556C44.7552 221.397 44.4962 221.397 44.3364 221.556C44.1767 221.716 44.1767 221.975 44.3364 222.135L46.94 224.738ZM46.8202 169.204L46.8202 224.449H47.6384L47.6384 169.204H46.8202Z" fill="black"/>
<path d="M319.413 225.489C319.946 226.022 320.809 226.022 321.342 225.489L330.02 216.811C330.553 216.278 330.553 215.415 330.02 214.882C329.488 214.349 328.624 214.349 328.092 214.882L320.378 222.596L312.663 214.882C312.131 214.349 311.267 214.349 310.735 214.882C310.202 215.415 310.202 216.278 310.735 216.811L319.413 225.489ZM319.014 169.28V224.525H321.741V169.28H319.014Z" fill="white"/>
<path d="M46.265 225.413C46.7976 225.946 47.661 225.946 48.1936 225.413L56.8721 216.735C57.4046 216.202 57.4046 215.339 56.8721 214.806C56.3395 214.274 55.4761 214.274 54.9435 214.806L47.2293 222.521L39.515 214.806C38.9825 214.274 38.119 214.274 37.5865 214.806C37.0539 215.339 37.0539 216.202 37.5865 216.735L46.265 225.413ZM45.8656 169.204L45.8656 224.449H48.593L48.593 169.204H45.8656Z" fill="white"/>
<path d="M238.41 225.489C238.942 226.022 239.806 226.022 240.338 225.489L249.017 216.811C249.549 216.278 249.549 215.415 249.017 214.882C248.484 214.349 247.621 214.349 247.088 214.882L239.374 222.596L231.66 214.882C231.127 214.349 230.264 214.349 229.731 214.882C229.199 215.415 229.199 216.278 229.731 216.811L238.41 225.489ZM238.01 169.28V224.525H240.738V169.28H238.01Z" fill="white"/>
<path d="M124.132 225.217C124.665 225.749 125.528 225.749 126.061 225.217L134.739 216.538C135.272 216.006 135.272 215.142 134.739 214.61C134.207 214.077 133.343 214.077 132.811 214.61L125.096 222.324L117.382 214.61C116.85 214.077 115.986 214.077 115.454 214.61C114.921 215.142 114.921 216.006 115.454 216.538L124.132 225.217ZM123.733 169.007L123.733 224.252H126.46L126.46 169.007H123.733Z" fill="white"/>
</svg>
