<svg width="235" height="309" viewBox="0 0 235 309" fill="none" xmlns="http://www.w3.org/2000/svg">
<rect x="99.3121" y="216.005" width="24.1025" height="45.1559" rx="12.0512" transform="rotate(-19.1532 99.3121 216.005)" fill="#44B5D8" fill-opacity="0.43" stroke="#44B5D8" stroke-width="1.35745"/>
<path d="M101.903 181.455C101.805 181.24 101.549 181.126 101.33 181.201C101.111 181.276 101.013 181.51 101.111 181.725L101.903 181.455ZM107.553 202.996L107.964 202.897L107.553 202.996ZM105.406 191.483L104.989 191.564L105.406 191.483ZM111.487 211.189C111.864 211.016 111.864 211.016 111.864 211.016C111.864 211.016 111.864 211.016 111.864 211.016C111.864 211.016 111.864 211.015 111.864 211.015C111.863 211.015 111.863 211.014 111.862 211.013C111.861 211.011 111.859 211.007 111.857 211.003C111.852 210.994 111.844 210.981 111.834 210.964C111.815 210.93 111.785 210.878 111.748 210.812C111.672 210.679 111.563 210.484 111.428 210.239C111.157 209.749 110.784 209.059 110.372 208.26C109.546 206.658 108.574 204.631 107.964 202.897L107.143 203.095C107.772 204.886 108.767 206.956 109.598 208.568C110.015 209.377 110.392 210.074 110.666 210.57C110.803 210.817 110.914 211.015 110.99 211.151C111.029 211.219 111.059 211.271 111.079 211.307C111.089 211.324 111.097 211.338 111.102 211.347C111.105 211.352 111.107 211.355 111.108 211.358C111.109 211.359 111.109 211.36 111.11 211.36C111.11 211.361 111.11 211.361 111.11 211.361C111.11 211.361 111.11 211.361 111.11 211.361C111.11 211.362 111.11 211.362 111.487 211.189ZM107.964 202.897C107.149 200.579 106.975 198.932 106.826 197.252C106.677 195.562 106.554 193.83 105.822 191.402L104.989 191.564C105.693 193.901 105.812 195.558 105.961 197.25C106.112 198.952 106.293 200.679 107.143 203.095L107.964 202.897ZM105.822 191.402C105.218 189.396 104.236 186.906 103.41 184.926C102.996 183.935 102.62 183.067 102.347 182.448C102.21 182.138 102.1 181.89 102.023 181.72C101.985 181.634 101.955 181.568 101.935 181.523C101.924 181.501 101.917 181.484 101.911 181.473C101.909 181.467 101.907 181.462 101.905 181.459C101.905 181.458 101.904 181.457 101.904 181.456C101.904 181.456 101.904 181.455 101.904 181.455C101.904 181.455 101.903 181.455 101.903 181.455C101.903 181.455 101.903 181.455 101.507 181.59C101.111 181.725 101.111 181.725 101.111 181.725C101.111 181.725 101.111 181.725 101.111 181.725C101.111 181.725 101.111 181.726 101.111 181.726C101.112 181.727 101.112 181.728 101.113 181.729C101.114 181.732 101.116 181.736 101.119 181.742C101.124 181.753 101.131 181.769 101.141 181.791C101.161 181.835 101.19 181.901 101.228 181.985C101.304 182.154 101.414 182.4 101.55 182.708C101.821 183.323 102.195 184.185 102.606 185.17C103.43 187.145 104.398 189.602 104.989 191.564L105.822 191.402Z" fill="#44B5D8"/>
<path d="M100.72 197.869C100.677 197.646 100.835 197.448 101.074 197.427C101.312 197.406 101.541 197.571 101.585 197.794L100.72 197.869ZM107.242 208.227L106.834 208.344L107.242 208.227ZM102.856 203.122L103.246 202.968L102.856 203.122ZM107.942 212.919C107.503 212.876 107.503 212.876 107.503 212.876C107.503 212.876 107.503 212.876 107.503 212.876C107.503 212.876 107.503 212.876 107.503 212.876C107.503 212.876 107.503 212.875 107.503 212.875C107.503 212.873 107.503 212.872 107.503 212.869C107.503 212.864 107.504 212.857 107.504 212.846C107.504 212.826 107.504 212.796 107.504 212.756C107.504 212.676 107.503 212.56 107.5 212.414C107.494 212.122 107.478 211.715 107.438 211.252C107.359 210.315 107.187 209.192 106.834 208.344L107.65 208.111C108.054 209.082 108.233 210.305 108.314 211.259C108.355 211.742 108.372 212.166 108.379 212.469C108.382 212.621 108.383 212.743 108.383 212.828C108.383 212.87 108.382 212.903 108.382 212.926C108.382 212.937 108.382 212.946 108.382 212.952C108.382 212.955 108.382 212.957 108.382 212.959C108.382 212.96 108.382 212.961 108.382 212.961C108.382 212.961 108.382 212.962 108.382 212.962C108.382 212.962 108.382 212.962 108.382 212.962C108.382 212.962 108.382 212.962 107.942 212.919ZM106.834 208.344C106.369 207.227 105.664 206.599 104.864 205.932C104.06 205.262 103.145 204.542 102.465 203.276L103.246 202.968C103.83 204.056 104.6 204.667 105.42 205.35C106.242 206.036 107.098 206.785 107.65 208.111L106.834 208.344ZM102.465 203.276C101.915 202.252 101.479 200.891 101.184 199.808C101.035 199.262 100.919 198.779 100.841 198.431C100.801 198.258 100.772 198.118 100.751 198.021C100.741 197.973 100.734 197.935 100.728 197.91C100.726 197.897 100.724 197.887 100.722 197.88C100.722 197.877 100.721 197.874 100.721 197.872C100.721 197.871 100.721 197.871 100.721 197.87C100.72 197.87 100.72 197.87 100.72 197.869C100.72 197.869 100.72 197.869 100.72 197.869C100.72 197.869 100.72 197.869 101.152 197.832C101.585 197.794 101.585 197.794 101.585 197.794C101.585 197.794 101.585 197.794 101.585 197.794C101.585 197.794 101.585 197.794 101.585 197.794C101.585 197.795 101.585 197.795 101.585 197.796C101.585 197.797 101.586 197.799 101.586 197.802C101.587 197.808 101.589 197.817 101.592 197.829C101.597 197.853 101.604 197.889 101.614 197.936C101.633 198.029 101.662 198.165 101.7 198.334C101.777 198.672 101.889 199.144 102.034 199.676C102.327 200.748 102.743 202.032 103.246 202.968L102.465 203.276Z" fill="#44B5D8"/>
<path d="M110.864 194.857C110.768 194.64 110.514 194.526 110.298 194.603C110.081 194.68 109.983 194.918 110.079 195.135L110.864 194.857ZM111.912 206.509L112.328 206.44L111.912 206.509ZM112.213 200.296L111.789 200.328L112.213 200.296ZM114.041 210.883C114.396 210.676 114.396 210.677 114.396 210.677C114.396 210.677 114.396 210.677 114.396 210.677C114.396 210.677 114.396 210.676 114.396 210.676C114.396 210.676 114.395 210.676 114.395 210.675C114.394 210.674 114.393 210.673 114.392 210.671C114.389 210.666 114.385 210.66 114.379 210.651C114.367 210.633 114.35 210.607 114.328 210.572C114.283 210.502 114.218 210.4 114.138 210.272C113.979 210.014 113.761 209.651 113.529 209.231C113.06 208.381 112.551 207.329 112.328 206.44L111.495 206.578C111.747 207.58 112.302 208.715 112.779 209.58C113.02 210.016 113.246 210.393 113.412 210.66C113.494 210.794 113.562 210.901 113.61 210.974C113.634 211.011 113.652 211.04 113.665 211.059C113.672 211.069 113.677 211.077 113.68 211.082C113.682 211.085 113.683 211.087 113.684 211.088C113.685 211.089 113.685 211.089 113.685 211.09C113.685 211.09 113.685 211.09 113.685 211.09C113.686 211.09 113.686 211.09 113.686 211.09C113.686 211.09 113.686 211.09 114.041 210.883ZM112.328 206.44C112.034 205.267 112.193 204.43 112.396 203.528C112.6 202.619 112.855 201.631 112.637 200.263L111.789 200.328C111.979 201.521 111.764 202.369 111.557 203.292C111.348 204.221 111.152 205.21 111.495 206.578L112.328 206.44ZM112.637 200.263C112.46 199.153 112.012 197.795 111.617 196.732C111.418 196.197 111.23 195.729 111.092 195.395C111.023 195.228 110.966 195.094 110.927 195.002C110.907 194.956 110.891 194.92 110.88 194.895C110.875 194.883 110.871 194.874 110.868 194.867C110.867 194.864 110.866 194.862 110.865 194.86C110.865 194.859 110.864 194.858 110.864 194.858C110.864 194.858 110.864 194.858 110.864 194.857C110.864 194.857 110.864 194.857 110.864 194.857C110.864 194.857 110.864 194.857 110.471 194.996C110.079 195.135 110.079 195.135 110.079 195.135C110.079 195.135 110.079 195.135 110.079 195.135C110.079 195.135 110.079 195.136 110.079 195.136C110.079 195.136 110.08 195.137 110.08 195.137C110.08 195.139 110.081 195.141 110.083 195.144C110.085 195.149 110.089 195.158 110.094 195.169C110.104 195.192 110.119 195.227 110.138 195.271C110.176 195.36 110.232 195.491 110.299 195.654C110.434 195.98 110.618 196.437 110.812 196.96C111.203 198.014 111.625 199.305 111.789 200.328L112.637 200.263Z" fill="#44B5D8"/>
<path d="M117.14 229.743C118.9 230.166 112.44 225.164 111.999 218.932C111.558 212.699 117.657 231.023 118.791 222.413C119.926 213.803 115.135 231.025 111.004 226.195C106.873 221.366 122.962 217.873 115.668 226.358C108.374 234.844 122.621 227.863 115.708 225.188C108.795 222.514 115.38 229.32 117.14 229.743Z" stroke="#03436D" stroke-width="0.328575"/>
<rect x="108.93" y="119.718" width="23.5477" height="44.1165" rx="11.7738" transform="rotate(19.3029 108.93 119.718)" fill="#F1DC69" fill-opacity="0.53" stroke="#F1DC69" stroke-width="1.3262"/>
<path d="M131.936 97.7019C131.998 97.4961 131.89 97.2646 131.695 97.1847C131.501 97.1049 131.293 97.2071 131.231 97.4129L131.936 97.7019ZM122.898 115.832L123.239 116.01L122.898 115.832ZM128.327 106.664L127.993 106.47L128.327 106.664ZM120.684 123.795C121.046 123.902 121.046 123.902 121.046 123.902C121.046 123.902 121.046 123.901 121.046 123.901C121.046 123.901 121.046 123.901 121.046 123.901C121.046 123.9 121.047 123.9 121.047 123.898C121.047 123.896 121.048 123.893 121.049 123.888C121.051 123.88 121.053 123.866 121.057 123.848C121.064 123.813 121.075 123.76 121.089 123.692C121.117 123.556 121.159 123.357 121.213 123.109C121.321 122.612 121.478 121.916 121.675 121.122C122.069 119.531 122.617 117.561 123.239 116.01L122.557 115.654C121.915 117.257 121.356 119.269 120.96 120.87C120.761 121.673 120.602 122.377 120.492 122.879C120.438 123.131 120.395 123.333 120.366 123.471C120.352 123.541 120.341 123.595 120.334 123.631C120.33 123.65 120.327 123.664 120.325 123.673C120.324 123.678 120.324 123.681 120.323 123.684C120.323 123.685 120.323 123.686 120.323 123.687C120.323 123.687 120.323 123.687 120.323 123.687C120.323 123.687 120.323 123.688 120.322 123.688C120.322 123.688 120.322 123.688 120.684 123.795ZM123.239 116.01C124.069 113.935 124.937 112.703 125.842 111.464C126.753 110.218 127.707 108.958 128.661 106.858L127.993 106.47C127.075 108.491 126.163 109.696 125.251 110.944C124.334 112.2 123.423 113.491 122.557 115.654L123.239 116.01ZM128.661 106.858C129.449 105.123 130.268 102.83 130.888 100.98C131.199 100.054 131.461 99.2345 131.645 98.647C131.737 98.3533 131.81 98.1173 131.86 97.9547C131.885 97.8733 131.904 97.8103 131.917 97.7676C131.923 97.7462 131.928 97.7299 131.931 97.7188C131.933 97.7133 131.934 97.7091 131.935 97.7063C131.936 97.7049 131.936 97.7038 131.936 97.7031C131.936 97.7027 131.936 97.7024 131.936 97.7023C131.936 97.7022 131.936 97.7021 131.936 97.702C131.936 97.702 131.936 97.7019 131.584 97.5574C131.231 97.4129 131.231 97.4129 131.231 97.4129C131.231 97.413 131.231 97.413 131.231 97.4131C131.231 97.4132 131.231 97.4135 131.231 97.4138C131.231 97.4144 131.231 97.4154 131.23 97.4168C131.229 97.4194 131.228 97.4234 131.227 97.4288C131.223 97.4394 131.219 97.4554 131.212 97.4764C131.2 97.5184 131.181 97.5806 131.156 97.6612C131.107 97.8222 131.035 98.0563 130.943 98.3481C130.76 98.9318 130.5 99.7458 130.191 100.667C129.573 102.512 128.763 104.772 127.993 106.47L128.661 106.858Z" fill="#F1DC69"/>
<path d="M121.286 108.233C121.39 108.054 121.617 108.013 121.793 108.141C121.969 108.27 122.027 108.52 121.923 108.699L121.286 108.233ZM119.548 119.228L119.199 119.063L119.548 119.228ZM119.601 113.107L119.961 113.235L119.601 113.107ZM117.216 122.859C116.941 122.566 116.941 122.566 116.941 122.566C116.941 122.566 116.941 122.566 116.941 122.566C116.941 122.566 116.941 122.566 116.941 122.566C116.941 122.566 116.942 122.566 116.942 122.565C116.943 122.565 116.944 122.563 116.945 122.562C116.948 122.558 116.953 122.553 116.959 122.546C116.971 122.533 116.99 122.512 117.014 122.485C117.062 122.43 117.131 122.35 117.216 122.248C117.387 122.045 117.62 121.756 117.87 121.415C118.377 120.726 118.933 119.855 119.199 119.063L119.898 119.392C119.593 120.299 118.982 121.243 118.466 121.945C118.205 122.3 117.962 122.6 117.785 122.812C117.696 122.918 117.623 123.002 117.572 123.06C117.547 123.089 117.527 123.111 117.513 123.127C117.506 123.135 117.501 123.14 117.497 123.145C117.496 123.147 117.494 123.148 117.493 123.149C117.493 123.15 117.492 123.15 117.492 123.151C117.492 123.151 117.492 123.151 117.492 123.151C117.491 123.151 117.491 123.151 117.491 123.151C117.491 123.151 117.491 123.151 117.216 122.859ZM119.199 119.063C119.55 118.02 119.442 117.169 119.294 116.233C119.144 115.293 118.949 114.253 119.241 112.979L119.961 113.235C119.709 114.329 119.871 115.209 120.023 116.167C120.176 117.129 120.314 118.154 119.898 119.392L119.199 119.063ZM119.241 112.979C119.478 111.948 119.995 110.756 120.441 109.837C120.666 109.375 120.877 108.974 121.031 108.69C121.108 108.547 121.172 108.434 121.216 108.355C121.238 108.316 121.255 108.286 121.267 108.265C121.273 108.255 121.278 108.247 121.281 108.241C121.282 108.239 121.284 108.237 121.284 108.235C121.285 108.234 121.285 108.234 121.285 108.234C121.285 108.233 121.286 108.233 121.286 108.233C121.286 108.233 121.286 108.233 121.286 108.233C121.286 108.233 121.286 108.233 121.604 108.466C121.923 108.699 121.923 108.699 121.923 108.699C121.923 108.699 121.923 108.699 121.923 108.699C121.923 108.699 121.923 108.699 121.923 108.699C121.923 108.699 121.922 108.7 121.922 108.7C121.922 108.701 121.92 108.703 121.919 108.705C121.916 108.71 121.912 108.718 121.907 108.727C121.896 108.747 121.879 108.775 121.858 108.813C121.815 108.888 121.754 108.999 121.679 109.137C121.528 109.415 121.323 109.805 121.104 110.256C120.662 111.165 120.177 112.294 119.961 113.235L119.241 112.979Z" fill="#F1DC69"/>
<path d="M130.047 112.241C130.111 112.034 130.005 111.805 129.811 111.728C129.616 111.651 129.406 111.756 129.342 111.962L130.047 112.241ZM123.781 120.845L124.108 121.047L123.781 120.845ZM127.712 116.771L127.402 116.54L127.712 116.771ZM122.618 125.114C122.986 125.185 122.986 125.185 122.986 125.185C122.986 125.185 122.986 125.185 122.986 125.185C122.986 125.185 122.986 125.185 122.986 125.185C122.986 125.185 122.986 125.184 122.986 125.184C122.986 125.183 122.986 125.181 122.987 125.179C122.987 125.174 122.988 125.167 122.99 125.157C122.992 125.138 122.996 125.11 123.002 125.072C123.013 124.998 123.029 124.889 123.052 124.754C123.097 124.482 123.165 124.103 123.258 123.677C123.446 122.814 123.728 121.789 124.108 121.047L123.454 120.643C123.026 121.48 122.726 122.589 122.535 123.467C122.438 123.91 122.368 124.303 122.321 124.585C122.297 124.726 122.28 124.84 122.268 124.919C122.263 124.958 122.258 124.989 122.255 125.01C122.254 125.021 122.253 125.029 122.252 125.035C122.252 125.037 122.251 125.04 122.251 125.041C122.251 125.042 122.251 125.043 122.251 125.043C122.251 125.043 122.251 125.043 122.251 125.044C122.251 125.044 122.251 125.044 122.251 125.044C122.251 125.044 122.251 125.044 122.618 125.114ZM124.108 121.047C124.609 120.068 125.22 119.591 125.899 119.094C126.584 118.594 127.352 118.07 128.022 117.003L127.402 116.54C126.817 117.47 126.161 117.923 125.466 118.43C124.766 118.941 124.038 119.502 123.454 120.643L124.108 121.047ZM128.022 117.003C128.566 116.137 129.073 114.939 129.439 113.975C129.624 113.49 129.776 113.057 129.881 112.746C129.934 112.59 129.975 112.464 130.003 112.377C130.017 112.334 130.028 112.3 130.035 112.277C130.039 112.265 130.042 112.256 130.044 112.25C130.045 112.247 130.046 112.245 130.046 112.243C130.046 112.242 130.046 112.242 130.047 112.241C130.047 112.241 130.047 112.241 130.047 112.241C130.047 112.241 130.047 112.241 130.047 112.241C130.047 112.241 130.047 112.241 129.694 112.101C129.342 111.962 129.342 111.962 129.342 111.962C129.342 111.962 129.342 111.962 129.342 111.962C129.342 111.962 129.342 111.962 129.342 111.962C129.342 111.962 129.342 111.963 129.342 111.964C129.341 111.965 129.341 111.967 129.34 111.97C129.338 111.975 129.335 111.983 129.332 111.994C129.325 112.016 129.315 112.048 129.301 112.09C129.274 112.174 129.234 112.296 129.182 112.448C129.079 112.753 128.931 113.176 128.751 113.65C128.387 114.605 127.903 115.742 127.402 116.54L128.022 117.003Z" fill="#F1DC69"/>
<path d="M120.063 138.133C121.552 137.703 114.628 136.712 111.663 132.258C108.699 127.805 120.989 138.867 118.192 131.977C115.396 125.087 119.113 139.935 113.994 138.087C108.876 136.238 119.378 126.834 117.536 136.236C115.694 145.638 123.348 134.415 117.071 135.348C110.793 136.28 118.574 138.562 120.063 138.133Z" stroke="#524608" stroke-width="0.281338"/>
<path d="M81.558 53.8398L81.558 136.902C81.558 170.142 73.0964 202.835 56.9702 231.901L49.346 245.643" stroke="white" stroke-width="7.8327"/>
<path d="M154.865 54.0692L152.742 134.424C151.82 169.349 160.258 203.886 177.183 234.451L183.942 246.658" stroke="white" stroke-width="7.8327"/>
<ellipse cx="66.8336" cy="62.9303" rx="7.30508" ry="7.5138" fill="#DF6489"/>
<line x1="67.1624" y1="59.1888" x2="67.1625" y2="66.4624" stroke="#2D000D" stroke-width="0.448983" stroke-linecap="round"/>
<line x1="63.3012" y1="62.6012" x2="70.5747" y2="62.6012" stroke="#2D000D" stroke-width="0.448983" stroke-linecap="round"/>
<ellipse cx="170.421" cy="62.9303" rx="7.30508" ry="7.5138" fill="#44B5D8"/>
<line x1="167.257" y1="62.6324" x2="174.53" y2="62.6324" stroke="#074254" stroke-width="0.448983" stroke-linecap="round"/>
<ellipse cx="168.463" cy="110.318" rx="7.30508" ry="7.5138" fill="#44B5D8"/>
<line x1="164.711" y1="110.021" x2="171.985" y2="110.021" stroke="#074254" stroke-width="0.448983" stroke-linecap="round"/>
<ellipse cx="170.617" cy="157.314" rx="7.30508" ry="7.5138" fill="#44B5D8"/>
<line x1="166.865" y1="157.017" x2="174.139" y2="157.017" stroke="#074254" stroke-width="0.448983" stroke-linecap="round"/>
<ellipse cx="175.904" cy="179.637" rx="7.30508" ry="7.5138" fill="#44B5D8"/>
<line x1="172.152" y1="179.34" x2="179.426" y2="179.34" stroke="#074254" stroke-width="0.448983" stroke-linecap="round"/>
<ellipse cx="183.345" cy="199.806" rx="7.30508" ry="7.5138" fill="#44B5D8"/>
<line x1="179.593" y1="199.509" x2="186.867" y2="199.509" stroke="#074254" stroke-width="0.448983" stroke-linecap="round"/>
<ellipse cx="190.786" cy="218.997" rx="7.30508" ry="7.5138" fill="#44B5D8"/>
<line x1="187.034" y1="218.7" x2="194.308" y2="218.7" stroke="#074254" stroke-width="0.448983" stroke-linecap="round"/>
<ellipse cx="167.288" cy="133.032" rx="7.30508" ry="7.5138" fill="#44B5D8"/>
<line x1="163.536" y1="132.736" x2="170.81" y2="132.736" stroke="#074254" stroke-width="0.448983" stroke-linecap="round"/>
<ellipse cx="168.463" cy="86.6246" rx="7.30508" ry="7.5138" fill="#44B5D8"/>
<line x1="164.711" y1="86.3268" x2="171.985" y2="86.3268" stroke="#074254" stroke-width="0.448983" stroke-linecap="round"/>
<ellipse cx="66.8336" cy="86.6246" rx="7.30508" ry="7.5138" fill="#DF6489"/>
<line x1="67.1624" y1="82.8827" x2="67.1625" y2="90.1562" stroke="#2D000D" stroke-width="0.448983" stroke-linecap="round"/>
<line x1="63.3012" y1="86.295" x2="70.5747" y2="86.295" stroke="#2D000D" stroke-width="0.448983" stroke-linecap="round"/>
<ellipse cx="66.8336" cy="110.318" rx="7.30508" ry="7.5138" fill="#DF6489"/>
<line x1="67.1624" y1="106.577" x2="67.1625" y2="113.851" stroke="#2D000D" stroke-width="0.448983" stroke-linecap="round"/>
<line x1="63.3012" y1="109.989" x2="70.5747" y2="109.989" stroke="#2D000D" stroke-width="0.448983" stroke-linecap="round"/>
<ellipse cx="66.8336" cy="133.033" rx="7.30508" ry="7.5138" fill="#DF6489"/>
<line x1="67.1625" y1="129.292" x2="67.1625" y2="136.565" stroke="#2D000D" stroke-width="0.448983" stroke-linecap="round"/>
<line x1="63.3012" y1="132.704" x2="70.5748" y2="132.704" stroke="#2D000D" stroke-width="0.448983" stroke-linecap="round"/>
<ellipse cx="66.8336" cy="133.033" rx="7.30508" ry="7.5138" fill="#DF6489"/>
<line x1="67.1625" y1="129.292" x2="67.1625" y2="136.565" stroke="#2D000D" stroke-width="0.448983" stroke-linecap="round"/>
<line x1="63.3012" y1="132.704" x2="70.5748" y2="132.704" stroke="#2D000D" stroke-width="0.448983" stroke-linecap="round"/>
<ellipse cx="63.5047" cy="157.902" rx="7.30508" ry="7.5138" fill="#DF6489"/>
<line x1="63.8336" y1="154.162" x2="63.8336" y2="161.435" stroke="#2D000D" stroke-width="0.448983" stroke-linecap="round"/>
<line x1="59.9723" y1="157.574" x2="67.2459" y2="157.574" stroke="#2D000D" stroke-width="0.448983" stroke-linecap="round"/>
<ellipse cx="63.5047" cy="157.902" rx="7.30508" ry="7.5138" fill="#DF6489"/>
<line x1="63.8336" y1="154.162" x2="63.8336" y2="161.435" stroke="#2D000D" stroke-width="0.448983" stroke-linecap="round"/>
<line x1="59.9724" y1="157.574" x2="67.2459" y2="157.574" stroke="#2D000D" stroke-width="0.448983" stroke-linecap="round"/>
<ellipse cx="59.0009" cy="179.638" rx="7.30508" ry="7.5138" fill="#DF6489"/>
<line x1="59.3297" y1="175.897" x2="59.3297" y2="183.17" stroke="#2D000D" stroke-width="0.448983" stroke-linecap="round"/>
<line x1="55.4685" y1="179.309" x2="62.742" y2="179.309" stroke="#2D000D" stroke-width="0.448983" stroke-linecap="round"/>
<ellipse cx="59.0009" cy="179.638" rx="7.30508" ry="7.5138" fill="#DF6489"/>
<line x1="59.3298" y1="175.897" x2="59.3298" y2="183.171" stroke="#2D000D" stroke-width="0.448983" stroke-linecap="round"/>
<line x1="55.4686" y1="179.31" x2="62.7421" y2="179.31" stroke="#2D000D" stroke-width="0.448983" stroke-linecap="round"/>
<ellipse cx="52.1473" cy="199.807" rx="7.30508" ry="7.5138" fill="#DF6489"/>
<line x1="52.4762" y1="196.066" x2="52.4762" y2="203.339" stroke="#2D000D" stroke-width="0.448983" stroke-linecap="round"/>
<line x1="48.6149" y1="199.478" x2="55.8885" y2="199.478" stroke="#2D000D" stroke-width="0.448983" stroke-linecap="round"/>
<ellipse cx="52.1473" cy="199.807" rx="7.30508" ry="7.5138" fill="#DF6489"/>
<line x1="52.4761" y1="196.066" x2="52.4761" y2="203.339" stroke="#2D000D" stroke-width="0.448983" stroke-linecap="round"/>
<line x1="48.6149" y1="199.478" x2="55.8884" y2="199.478" stroke="#2D000D" stroke-width="0.448983" stroke-linecap="round"/>
<ellipse cx="41.9648" cy="218.997" rx="7.30508" ry="7.5138" fill="#DF6489"/>
<line x1="42.2936" y1="215.256" x2="42.2936" y2="222.529" stroke="#2D000D" stroke-width="0.448983" stroke-linecap="round"/>
<line x1="38.4324" y1="218.668" x2="45.7059" y2="218.668" stroke="#2D000D" stroke-width="0.448983" stroke-linecap="round"/>
<ellipse cx="41.9648" cy="218.997" rx="7.30508" ry="7.5138" fill="#DF6489"/>
<line x1="42.2936" y1="215.256" x2="42.2936" y2="222.529" stroke="#2D000D" stroke-width="0.448983" stroke-linecap="round"/>
<line x1="38.4324" y1="218.668" x2="45.7059" y2="218.668" stroke="#2D000D" stroke-width="0.448983" stroke-linecap="round"/>
<rect x="12.7281" y="287.068" width="222.253" height="21.9316" fill="#647B89"/>
<path d="M0 282.369L12.7281 287.015V309L0 304.127V282.369Z" fill="#647B89"/>
<path d="M0 282.369H221.023L234.981 287.068H13.1549L0 282.369Z" fill="white"/>
<ellipse cx="18.211" cy="284.719" rx="5.48289" ry="1.17491" fill="#001C30"/>
<ellipse cx="217.945" cy="284.719" rx="5.48289" ry="1.17491" fill="#001C30"/>
<ellipse cx="197.972" cy="284.719" rx="5.48289" ry="1.17491" fill="#001C30"/>
<ellipse cx="177.998" cy="284.719" rx="5.48289" ry="1.17491" fill="#001C30"/>
<ellipse cx="158.025" cy="284.719" rx="5.48289" ry="1.17491" fill="#001C30"/>
<ellipse cx="138.051" cy="284.719" rx="5.48289" ry="1.17491" fill="#001C30"/>
<ellipse cx="118.078" cy="284.719" rx="5.48289" ry="1.17491" fill="#001C30"/>
<ellipse cx="98.1046" cy="284.719" rx="5.48289" ry="1.17491" fill="#001C30"/>
<ellipse cx="78.1312" cy="284.719" rx="5.48289" ry="1.17491" fill="#001C30"/>
<ellipse cx="58.1578" cy="284.719" rx="5.48289" ry="1.17491" fill="#001C30"/>
<ellipse cx="38.1844" cy="284.719" rx="5.48289" ry="1.17491" fill="#001C30"/>
<path d="M117.615 60.3257C118.38 61.0904 119.62 61.0904 120.385 60.3257L132.846 47.864C133.611 47.0993 133.611 45.8594 132.846 45.0947C132.082 44.33 130.842 44.33 130.077 45.0947L119 56.1718L107.923 45.0947C107.158 44.33 105.918 44.33 105.154 45.0947C104.389 45.8594 104.389 47.0993 105.154 47.864L117.615 60.3257ZM117.042 0V58.9411H120.958V0L117.042 0Z" fill="white"/>
</svg>
