<svg width="2286" height="1974" viewBox="0 0 2286 1974" fill="none" xmlns="http://www.w3.org/2000/svg">
<path d="M220.682 892.787C216.25 892.787 211.916 894.102 208.231 896.564C204.545 899.027 201.673 902.527 199.977 906.622C198.28 910.717 197.836 915.224 198.701 919.571C199.566 923.918 201.7 927.912 204.835 931.046C207.969 934.18 211.962 936.315 216.31 937.18C220.657 938.044 225.163 937.601 229.259 935.904C233.354 934.208 236.854 931.335 239.317 927.65C241.779 923.964 243.094 919.631 243.094 915.199C243.094 909.255 240.732 903.554 236.529 899.351C232.326 895.148 226.626 892.787 220.682 892.787ZM220.682 932.007C217.358 932.007 214.108 931.022 211.344 929.175C208.58 927.328 206.425 924.702 205.153 921.631C203.881 918.56 203.548 915.18 204.196 911.919C204.845 908.659 206.446 905.664 208.797 903.313C211.147 900.962 214.142 899.361 217.403 898.713C220.663 898.064 224.043 898.397 227.115 899.669C230.186 900.942 232.811 903.096 234.658 905.86C236.505 908.624 237.491 911.874 237.491 915.199C237.491 919.657 235.72 923.932 232.568 927.084C229.415 930.236 225.14 932.007 220.682 932.007Z" fill="#DF6489"/>
<path d="M240.097 903.99C245.859 894.024 242.976 881.938 234.692 875.295C245.022 887.109 236.866 906.138 220.682 906.138C204.638 906.138 196.259 887.204 206.673 875.295C198.425 881.909 195.496 894.008 201.268 903.99C189.76 903.982 180.732 912.515 179.12 923.018C184.186 908.165 204.744 905.714 212.835 919.729C220.858 933.624 208.65 950.347 193.129 947.283C198.119 949.23 203.641 949.325 208.695 947.552C213.75 945.778 218.002 942.254 220.682 937.616C226.437 947.6 238.35 951.132 248.235 947.283C232.839 950.322 220.437 933.744 228.529 919.729C236.551 905.834 257.138 908.045 262.245 923.018C260.612 912.383 251.453 903.982 240.097 903.99Z" fill="white"/>
<path d="M220.682 920.802C223.776 920.802 226.285 918.293 226.285 915.199C226.285 912.104 223.776 909.596 220.682 909.596C217.588 909.596 215.079 912.104 215.079 915.199C215.079 918.293 217.588 920.802 220.682 920.802Z" fill="#DF6489"/>
<path d="M319.675 1018.98C315.877 1016.69 311.487 1015.59 307.06 1015.8C302.632 1016 298.366 1017.52 294.801 1020.16C291.236 1022.79 288.532 1026.42 287.031 1030.59C285.53 1034.76 285.3 1039.29 286.369 1043.59C287.438 1047.89 289.759 1051.78 293.038 1054.76C296.317 1057.74 300.407 1059.69 304.79 1060.34C309.174 1061 313.654 1060.35 317.664 1058.46C321.675 1056.57 325.035 1053.54 327.321 1049.74C330.386 1044.65 331.302 1038.54 329.868 1032.78C328.435 1027.01 324.768 1022.04 319.675 1018.98ZM299.451 1052.58C296.603 1050.87 294.327 1048.35 292.911 1045.34C291.495 1042.33 291.003 1038.97 291.496 1035.69C291.99 1032.4 293.448 1029.33 295.685 1026.87C297.922 1024.41 300.838 1022.67 304.064 1021.87C307.29 1021.07 310.682 1021.24 313.81 1022.37C316.938 1023.49 319.662 1025.52 321.638 1028.19C323.613 1030.87 324.752 1034.07 324.909 1037.39C325.066 1040.71 324.235 1044 322.52 1046.85C320.222 1050.67 316.5 1053.42 312.173 1054.49C307.847 1055.57 303.271 1054.88 299.451 1052.58Z" fill="#DF6489"/>
<path d="M330.533 1038.59C340.609 1033.02 344.371 1021.18 340.699 1011.22C343.458 1026.67 326.657 1038.76 312.791 1030.42C299.044 1022.14 301.629 1001.6 316.692 996.768C306.216 998.182 297.466 1007.04 297.265 1018.57C287.409 1012.63 275.274 1015.28 268.476 1023.45C280.476 1013.34 299.354 1021.84 299.06 1038.02C298.768 1054.06 279.685 1062.09 267.967 1051.46C271.239 1055.7 275.921 1058.63 281.166 1059.72C286.411 1060.81 291.871 1059.98 296.559 1057.39C296.342 1068.91 304.728 1078.08 315.182 1079.88C300.423 1074.54 298.346 1053.95 312.506 1046.11C326.544 1038.34 343.043 1050.85 339.697 1066.31C343.782 1056.36 340.267 1044.44 330.533 1038.59Z" fill="white"/>
<path d="M305.23 1042.98C307.881 1044.58 311.324 1043.72 312.919 1041.07C314.515 1038.42 313.659 1034.98 311.008 1033.38C308.357 1031.79 304.914 1032.64 303.318 1035.29C301.723 1037.94 302.578 1041.39 305.23 1042.98Z" fill="#DF6489"/>
<path d="M319.674 1018.98C315.876 1016.69 311.486 1015.58 307.058 1015.79C302.63 1016 298.364 1017.52 294.799 1020.15C291.234 1022.79 288.53 1026.42 287.029 1030.59C285.529 1034.76 285.298 1039.28 286.367 1043.59C287.437 1047.89 289.758 1051.78 293.036 1054.76C296.315 1057.74 300.405 1059.68 304.789 1060.34C309.172 1061 313.652 1060.35 317.663 1058.46C321.673 1056.57 325.034 1053.53 327.319 1049.74C330.384 1044.64 331.301 1038.54 329.867 1032.77C328.433 1027.01 324.767 1022.04 319.674 1018.98ZM299.45 1052.58C296.601 1050.87 294.325 1048.35 292.909 1045.34C291.493 1042.33 291.001 1038.97 291.495 1035.68C291.989 1032.4 293.446 1029.33 295.683 1026.87C297.92 1024.41 300.836 1022.67 304.063 1021.87C307.289 1021.07 310.68 1021.24 313.809 1022.36C316.937 1023.49 319.661 1025.52 321.636 1028.19C323.612 1030.87 324.75 1034.06 324.907 1037.39C325.064 1040.71 324.233 1044 322.519 1046.85C320.22 1050.67 316.498 1053.42 312.172 1054.49C307.846 1055.57 303.269 1054.88 299.45 1052.58Z" fill="#DF6489"/>
<path d="M330.532 1038.59C340.608 1033.02 344.369 1021.18 340.697 1011.21C343.456 1026.66 326.655 1038.76 312.79 1030.42C299.043 1022.14 301.627 1001.6 316.691 996.766C306.214 998.18 297.465 1007.04 297.263 1018.56C287.407 1012.62 275.272 1015.28 268.475 1023.45C280.475 1013.33 299.352 1021.83 299.058 1038.02C298.767 1054.06 279.684 1062.09 267.966 1051.46C271.237 1055.7 275.919 1058.63 281.164 1059.72C286.409 1060.81 291.87 1059.98 296.558 1057.39C296.34 1068.91 304.726 1078.08 315.18 1079.88C300.422 1074.54 298.344 1053.94 312.504 1046.11C326.543 1038.34 343.041 1050.85 339.696 1066.31C343.781 1056.36 340.266 1044.44 330.532 1038.59Z" fill="white"/>
<path d="M305.228 1042.98C307.879 1044.58 311.322 1043.72 312.917 1041.07C314.513 1038.42 313.657 1034.98 311.006 1033.38C308.355 1031.78 304.912 1032.64 303.316 1035.29C301.721 1037.94 302.577 1041.38 305.228 1042.98Z" fill="#DF6489"/>
<path d="M319.674 1018.98C315.876 1016.69 311.486 1015.58 307.058 1015.79C302.63 1016 298.364 1017.52 294.799 1020.15C291.234 1022.79 288.53 1026.42 287.029 1030.59C285.529 1034.76 285.298 1039.28 286.367 1043.59C287.437 1047.89 289.758 1051.78 293.036 1054.76C296.315 1057.74 300.405 1059.68 304.789 1060.34C309.172 1061 313.652 1060.35 317.663 1058.46C321.673 1056.57 325.034 1053.53 327.319 1049.74C330.384 1044.64 331.301 1038.54 329.867 1032.77C328.433 1027.01 324.767 1022.04 319.674 1018.98ZM299.45 1052.58C296.601 1050.87 294.325 1048.35 292.909 1045.34C291.493 1042.33 291.001 1038.97 291.495 1035.68C291.989 1032.4 293.446 1029.33 295.683 1026.87C297.92 1024.41 300.836 1022.67 304.063 1021.87C307.289 1021.07 310.68 1021.24 313.809 1022.36C316.937 1023.49 319.661 1025.52 321.636 1028.19C323.612 1030.87 324.75 1034.06 324.907 1037.39C325.064 1040.71 324.233 1044 322.519 1046.85C320.22 1050.67 316.498 1053.42 312.172 1054.49C307.846 1055.57 303.269 1054.88 299.45 1052.58Z" fill="#DF6489"/>
<path d="M330.532 1038.59C340.608 1033.02 344.369 1021.18 340.697 1011.21C343.456 1026.66 326.655 1038.76 312.79 1030.42C299.043 1022.14 301.627 1001.6 316.691 996.766C306.214 998.18 297.465 1007.04 297.263 1018.56C287.407 1012.62 275.272 1015.28 268.475 1023.45C280.475 1013.33 299.352 1021.83 299.058 1038.02C298.767 1054.06 279.684 1062.09 267.966 1051.46C271.237 1055.7 275.919 1058.63 281.164 1059.72C286.409 1060.81 291.87 1059.98 296.558 1057.39C296.34 1068.91 304.726 1078.08 315.18 1079.88C300.422 1074.54 298.344 1053.94 312.504 1046.11C326.543 1038.34 343.041 1050.85 339.696 1066.31C343.781 1056.36 340.266 1044.44 330.532 1038.59Z" fill="white"/>
<path d="M305.228 1042.98C307.879 1044.58 311.322 1043.72 312.917 1041.07C314.513 1038.42 313.657 1034.98 311.006 1033.38C308.355 1031.78 304.912 1032.64 303.316 1035.29C301.721 1037.94 302.577 1041.38 305.228 1042.98Z" fill="#DF6489"/>
<path d="M319.674 1018.98C315.876 1016.69 311.486 1015.58 307.058 1015.79C302.63 1016 298.364 1017.52 294.799 1020.15C291.234 1022.79 288.53 1026.42 287.029 1030.59C285.529 1034.76 285.298 1039.28 286.367 1043.59C287.437 1047.89 289.758 1051.78 293.036 1054.76C296.315 1057.74 300.405 1059.68 304.789 1060.34C309.172 1061 313.652 1060.35 317.663 1058.46C321.673 1056.57 325.034 1053.53 327.319 1049.74C330.384 1044.64 331.301 1038.54 329.867 1032.77C328.433 1027.01 324.767 1022.04 319.674 1018.98ZM299.45 1052.58C296.601 1050.87 294.325 1048.35 292.909 1045.34C291.493 1042.33 291.001 1038.97 291.495 1035.68C291.989 1032.4 293.446 1029.33 295.683 1026.87C297.92 1024.41 300.836 1022.67 304.063 1021.87C307.289 1021.07 310.68 1021.24 313.809 1022.36C316.937 1023.49 319.661 1025.52 321.636 1028.19C323.612 1030.87 324.75 1034.06 324.907 1037.39C325.064 1040.71 324.233 1044 322.519 1046.85C320.22 1050.67 316.498 1053.42 312.172 1054.49C307.846 1055.57 303.269 1054.88 299.45 1052.58Z" fill="#DF6489"/>
<path d="M330.532 1038.59C340.608 1033.02 344.369 1021.18 340.697 1011.21C343.456 1026.66 326.655 1038.76 312.79 1030.42C299.043 1022.14 301.627 1001.6 316.691 996.766C306.214 998.18 297.465 1007.04 297.263 1018.56C287.407 1012.62 275.272 1015.28 268.475 1023.45C280.475 1013.33 299.352 1021.83 299.058 1038.02C298.767 1054.06 279.684 1062.09 267.966 1051.46C271.237 1055.7 275.919 1058.63 281.164 1059.72C286.409 1060.81 291.87 1059.98 296.558 1057.39C296.34 1068.91 304.726 1078.08 315.18 1079.88C300.422 1074.54 298.344 1053.94 312.504 1046.11C326.543 1038.34 343.041 1050.85 339.696 1066.31C343.781 1056.36 340.266 1044.44 330.532 1038.59Z" fill="white"/>
<path d="M305.228 1042.98C307.879 1044.58 311.322 1043.72 312.917 1041.07C314.513 1038.42 313.657 1034.98 311.006 1033.38C308.355 1031.78 304.912 1032.64 303.316 1035.29C301.721 1037.94 302.577 1041.38 305.228 1042.98Z" fill="#DF6489"/>
<path d="M941.6 1023.47C937.227 1024.2 933.167 1026.2 929.933 1029.24C926.699 1032.27 924.437 1036.19 923.433 1040.51C922.428 1044.82 922.726 1049.34 924.29 1053.49C925.853 1057.64 928.611 1061.23 932.216 1063.81C935.82 1066.39 940.108 1067.84 944.539 1067.98C948.969 1068.13 953.342 1066.95 957.105 1064.61C960.868 1062.27 963.852 1058.86 965.679 1054.82C967.507 1050.79 968.096 1046.3 967.372 1041.92C966.401 1036.06 963.14 1030.82 958.307 1027.36C953.473 1023.9 947.464 1022.5 941.6 1023.47ZM948.007 1062.17C944.727 1062.71 941.36 1062.27 938.331 1060.9C935.303 1059.53 932.748 1057.29 930.991 1054.47C929.235 1051.65 928.354 1048.37 928.461 1045.04C928.568 1041.72 929.658 1038.5 931.594 1035.8C933.529 1033.1 936.222 1031.03 939.333 1029.86C942.444 1028.68 945.832 1028.46 949.07 1029.21C952.308 1029.97 955.25 1031.66 957.524 1034.09C959.797 1036.51 961.301 1039.56 961.844 1042.84C962.572 1047.24 961.524 1051.74 958.929 1055.37C956.334 1058.99 952.405 1061.44 948.007 1062.17Z" fill="#DF6489"/>
<path d="M962.583 1031.35C966.641 1020.58 961.821 1009.13 952.563 1003.93C964.684 1013.9 959.747 1034 943.781 1036.65C927.952 1039.27 916.593 1021.96 924.921 1008.51C917.865 1016.38 916.951 1028.79 924.276 1037.7C912.922 1039.57 905.409 1049.46 905.534 1060.09C908.106 1044.61 927.987 1038.83 938.26 1051.34C948.444 1063.73 939.132 1082.23 923.32 1081.74C928.561 1082.84 934.024 1082.04 938.721 1079.46C943.418 1076.89 947.037 1072.71 948.923 1067.7C956.232 1076.61 968.562 1078.15 977.686 1072.74C962.993 1078.25 948.049 1063.92 953.742 1048.77C959.387 1033.75 980.058 1032.57 987.543 1046.51C984.195 1036.28 973.786 1029.49 962.583 1031.35Z" fill="white"/>
<path d="M946.176 1051.11C949.229 1050.61 951.294 1047.72 950.788 1044.67C950.283 1041.62 947.398 1039.55 944.345 1040.06C941.293 1040.56 939.228 1043.45 939.733 1046.5C940.239 1049.55 943.123 1051.62 946.176 1051.11Z" fill="#DF6489"/>
<path d="M987.71 867.872C983.629 866.142 979.127 865.661 974.772 866.49C970.418 867.319 966.407 869.421 963.247 872.529C960.087 875.638 957.92 879.614 957.019 883.954C956.119 888.294 956.526 892.804 958.188 896.913C959.851 901.022 962.695 904.545 966.36 907.038C970.025 909.531 974.347 910.881 978.78 910.917C983.212 910.954 987.556 909.675 991.261 907.243C994.967 904.811 997.868 901.334 999.598 897.253C1001.92 891.78 1001.97 885.61 999.739 880.1C997.51 874.591 993.183 870.192 987.71 867.872ZM972.404 903.982C969.343 902.685 966.736 900.509 964.912 897.73C963.087 894.951 962.128 891.693 962.156 888.368C962.183 885.044 963.195 881.802 965.065 879.054C966.935 876.305 969.577 874.172 972.659 872.925C975.741 871.678 979.123 871.373 982.378 872.048C985.633 872.724 988.615 874.349 990.947 876.719C993.278 879.089 994.854 882.097 995.476 885.363C996.098 888.629 995.737 892.006 994.44 895.066C992.7 899.171 989.401 902.416 985.268 904.088C981.136 905.76 976.508 905.722 972.404 903.982Z" fill="#DF6489"/>
<path d="M1001.21 885.763C1010.41 878.837 1012.47 866.584 1007.44 857.234C1012.34 872.143 997.4 886.48 982.5 880.164C967.727 873.903 967.403 853.2 981.638 846.299C971.464 849.17 964.044 859.167 965.463 870.61C954.871 866.111 943.229 870.445 937.645 879.486C948.107 867.787 967.991 873.553 969.971 889.615C971.935 905.539 954.168 916.172 941.074 907.294C944.909 911.033 949.956 913.276 955.301 913.616C960.647 913.956 965.937 912.37 970.215 909.147C971.617 920.584 981.207 928.485 991.811 928.8C976.449 925.589 971.501 905.486 984.42 895.74C997.229 886.077 1015.32 896.147 1014.18 911.926C1016.83 901.498 1011.67 890.188 1001.21 885.763Z" fill="white"/>
<path d="M976.777 893.665C979.626 894.873 982.915 893.542 984.122 890.693C985.33 887.844 983.999 884.556 981.15 883.348C978.301 882.14 975.013 883.471 973.805 886.32C972.597 889.169 973.928 892.458 976.777 893.665Z" fill="#DF6489"/>
<path d="M1065.04 1142.6C1060.67 1143.33 1056.61 1145.33 1053.38 1148.36C1050.14 1151.4 1047.88 1155.32 1046.87 1159.64C1045.87 1163.95 1046.17 1168.47 1047.73 1172.62C1049.3 1176.77 1052.05 1180.36 1055.66 1182.94C1059.26 1185.52 1063.55 1186.97 1067.98 1187.11C1072.41 1187.26 1076.78 1186.08 1080.55 1183.74C1084.31 1181.4 1087.29 1177.99 1089.12 1173.95C1090.95 1169.92 1091.54 1165.43 1090.81 1161.05C1089.84 1155.19 1086.58 1149.95 1081.75 1146.49C1076.92 1143.03 1070.91 1141.63 1065.04 1142.6ZM1071.45 1181.3C1068.17 1181.84 1064.8 1181.4 1061.77 1180.03C1058.75 1178.66 1056.19 1176.42 1054.43 1173.6C1052.68 1170.77 1051.8 1167.49 1051.9 1164.17C1052.01 1160.85 1053.1 1157.63 1055.04 1154.93C1056.97 1152.23 1059.66 1150.16 1062.78 1148.99C1065.89 1147.81 1069.27 1147.59 1072.51 1148.34C1075.75 1149.1 1078.69 1150.79 1080.97 1153.22C1083.24 1155.64 1084.74 1158.69 1085.29 1161.97C1086.01 1166.37 1084.97 1170.87 1082.37 1174.5C1079.78 1178.12 1075.85 1180.57 1071.45 1181.3Z" fill="#DF6489"/>
<path d="M1086.03 1150.48C1090.08 1139.71 1085.26 1128.26 1076.01 1123.06C1088.13 1133.03 1083.19 1153.13 1067.22 1155.77C1051.39 1158.4 1040.04 1141.09 1048.36 1127.63C1041.31 1135.51 1040.39 1147.92 1047.72 1156.83C1036.36 1158.7 1028.85 1168.59 1028.98 1179.22C1031.55 1163.74 1051.43 1157.96 1061.7 1170.47C1071.89 1182.86 1062.57 1201.36 1046.76 1200.87C1052 1201.97 1057.47 1201.17 1062.16 1198.59C1066.86 1196.02 1070.48 1191.84 1072.37 1186.83C1079.67 1195.74 1092 1197.28 1101.13 1191.87C1086.43 1197.38 1071.49 1183.05 1077.18 1167.9C1082.83 1152.88 1103.5 1151.7 1110.98 1165.64C1107.64 1155.41 1097.23 1148.62 1086.03 1150.48Z" fill="white"/>
<path d="M1069.62 1170.24C1072.67 1169.74 1074.74 1166.85 1074.23 1163.8C1073.73 1160.75 1070.84 1158.68 1067.79 1159.19C1064.74 1159.69 1062.67 1162.58 1063.18 1165.63C1063.68 1168.68 1066.57 1170.75 1069.62 1170.24Z" fill="#DF6489"/>
<path d="M1144.43 983.62C1140.07 982.873 1135.57 983.439 1131.53 985.246C1127.48 987.053 1124.06 990.02 1121.7 993.771C1119.33 997.522 1118.14 1001.89 1118.26 1006.32C1118.38 1010.75 1119.81 1015.05 1122.37 1018.66C1124.93 1022.28 1128.51 1025.06 1132.65 1026.64C1136.79 1028.23 1141.31 1028.55 1145.63 1027.57C1149.95 1026.58 1153.89 1024.34 1156.93 1021.12C1159.98 1017.9 1162.01 1013.85 1162.75 1009.48C1163.75 1003.63 1162.39 997.609 1158.95 992.758C1155.52 987.907 1150.29 984.62 1144.43 983.62ZM1137.83 1022.28C1134.56 1021.72 1131.52 1020.2 1129.1 1017.92C1126.69 1015.63 1125.01 1012.68 1124.27 1009.44C1123.53 1006.2 1123.78 1002.81 1124.96 999.703C1126.15 996.598 1128.23 993.916 1130.95 991.994C1133.66 990.073 1136.88 988.999 1140.2 988.909C1143.53 988.818 1146.8 989.715 1149.62 991.487C1152.43 993.258 1154.66 995.823 1156.01 998.859C1157.37 1001.89 1157.79 1005.26 1157.23 1008.54C1156.48 1012.94 1154.01 1016.85 1150.38 1019.43C1146.74 1022 1142.23 1023.03 1137.83 1022.28Z" fill="#DF6489"/>
<path d="M1161.69 997.931C1169.04 989.077 1168.24 976.678 1161.19 968.735C1169.38 982.12 1158.14 999.504 1142.19 996.78C1126.37 994.078 1121.3 974.004 1133.57 964.018C1124.33 969.149 1119.4 980.583 1123.41 991.394C1112.07 989.448 1101.73 996.34 1098.38 1006.42C1105.87 992.633 1126.55 993.678 1132.16 1008.86C1137.73 1023.9 1122.88 1038.33 1108.1 1032.7C1112.69 1035.46 1118.12 1036.48 1123.4 1035.58C1128.68 1034.69 1133.47 1031.93 1136.89 1027.81C1140.88 1038.62 1152.03 1044.11 1162.42 1041.98C1146.73 1042.38 1137.3 1023.95 1147.63 1011.5C1157.88 999.152 1177.8 1004.8 1180.31 1020.42C1180.5 1009.66 1172.88 999.835 1161.69 997.931Z" fill="white"/>
<path d="M1139.72 1011.23C1142.77 1011.76 1145.66 1009.7 1146.18 1006.65C1146.71 1003.6 1144.66 1000.71 1141.6 1000.19C1138.55 999.667 1135.66 1001.72 1135.14 1004.77C1134.62 1007.82 1136.67 1010.71 1139.72 1011.23Z" fill="#DF6489"/>
<path d="M1264.04 866.603C1259.67 867.327 1255.61 869.332 1252.38 872.364C1249.14 875.395 1246.88 879.318 1245.88 883.635C1244.87 887.952 1245.17 892.471 1246.73 896.618C1248.3 900.766 1251.05 904.357 1254.66 906.937C1258.26 909.517 1262.55 910.971 1266.98 911.114C1271.41 911.257 1275.79 910.083 1279.55 907.74C1283.31 905.397 1286.3 901.992 1288.12 897.953C1289.95 893.915 1290.54 889.425 1289.81 885.052C1288.84 879.188 1285.58 873.95 1280.75 870.49C1275.92 867.03 1269.91 865.632 1264.04 866.603ZM1270.45 905.297C1267.17 905.84 1263.8 905.398 1260.77 904.027C1257.75 902.657 1255.19 900.419 1253.43 897.597C1251.68 894.774 1250.8 891.495 1250.9 888.172C1251.01 884.849 1252.1 881.633 1254.04 878.93C1255.97 876.226 1258.67 874.158 1261.78 872.985C1264.89 871.813 1268.28 871.589 1271.51 872.342C1274.75 873.096 1277.69 874.792 1279.97 877.217C1282.24 879.643 1283.74 882.688 1284.29 885.968C1285.02 890.366 1283.97 894.873 1281.37 898.498C1278.78 902.123 1274.85 904.568 1270.45 905.297Z" fill="#DF6489"/>
<path d="M1285.03 874.483C1289.08 863.71 1284.27 852.258 1275.01 847.057C1287.13 857.025 1282.19 877.131 1266.22 879.774C1250.4 882.396 1239.04 865.085 1247.36 851.634C1240.31 859.507 1239.39 871.922 1246.72 880.827C1235.37 882.699 1227.85 892.593 1227.98 903.218C1230.55 887.737 1250.43 881.96 1260.7 894.465C1270.89 906.863 1261.58 925.355 1245.76 924.868C1251 925.973 1256.47 925.165 1261.16 922.59C1265.86 920.015 1269.48 915.843 1271.37 910.83C1278.68 919.739 1291.01 921.277 1300.13 915.865C1285.44 921.379 1270.49 907.05 1276.19 891.901C1281.83 876.882 1302.5 875.7 1309.99 889.638C1306.64 879.413 1296.23 872.62 1285.03 874.483Z" fill="white"/>
<path d="M1268.62 894.241C1271.67 893.736 1273.74 890.851 1273.23 887.798C1272.73 884.745 1269.84 882.68 1266.79 883.186C1263.74 883.692 1261.67 886.576 1262.18 889.629C1262.68 892.682 1265.57 894.747 1268.62 894.241Z" fill="#DF6489"/>
<path d="M1316.58 1053.82C1312.48 1052.12 1307.98 1051.67 1303.63 1052.53C1299.28 1053.39 1295.29 1055.53 1292.15 1058.66C1289.01 1061.79 1286.88 1065.78 1286.01 1070.13C1285.14 1074.48 1285.58 1078.98 1287.27 1083.08C1288.97 1087.17 1291.84 1090.68 1295.52 1093.14C1299.21 1095.61 1303.54 1096.92 1307.97 1096.93C1312.4 1096.93 1316.74 1095.62 1320.42 1093.16C1324.11 1090.7 1326.99 1087.2 1328.69 1083.11C1330.96 1077.62 1330.97 1071.45 1328.7 1065.95C1326.43 1060.46 1322.07 1056.09 1316.58 1053.82ZM1301.54 1090.04C1298.47 1088.77 1295.85 1086.61 1294 1083.84C1292.16 1081.08 1291.17 1077.83 1291.18 1074.5C1291.18 1071.18 1292.17 1067.93 1294.02 1065.17C1295.87 1062.4 1298.49 1060.25 1301.56 1058.98C1304.64 1057.71 1308.02 1057.38 1311.28 1058.03C1314.54 1058.68 1317.53 1060.29 1319.88 1062.64C1322.23 1064.99 1323.83 1067.99 1324.47 1071.25C1325.12 1074.51 1324.78 1077.89 1323.51 1080.96C1321.8 1085.08 1318.53 1088.35 1314.41 1090.05C1310.29 1091.75 1305.66 1091.75 1301.54 1090.04Z" fill="#DF6489"/>
<path d="M1330.21 1071.61C1339.36 1064.61 1341.33 1052.34 1336.22 1043.03C1341.23 1057.9 1326.41 1072.35 1311.46 1066.15C1296.64 1060 1296.16 1039.3 1310.34 1032.29C1300.19 1035.24 1292.85 1045.29 1294.35 1056.72C1283.73 1052.3 1272.12 1056.72 1266.6 1065.81C1276.97 1054.03 1296.9 1059.65 1299 1075.69C1301.08 1091.6 1283.4 1102.37 1270.24 1093.59C1274.1 1097.3 1279.17 1099.5 1284.51 1099.8C1289.86 1100.1 1295.14 1098.48 1299.39 1095.22C1300.88 1106.65 1310.53 1114.48 1321.14 1114.71C1305.75 1111.62 1300.65 1091.55 1313.5 1081.71C1326.23 1071.95 1344.4 1081.88 1343.38 1097.67C1345.94 1087.22 1340.71 1075.95 1330.21 1071.61Z" fill="white"/>
<path d="M1305.84 1079.69C1308.7 1080.88 1311.97 1079.52 1313.16 1076.66C1314.35 1073.81 1312.99 1070.53 1310.13 1069.34C1307.28 1068.15 1304 1069.51 1302.81 1072.37C1301.62 1075.23 1302.98 1078.5 1305.84 1079.69Z" fill="#DF6489"/>
<path d="M1280.53 1195.64C1276.16 1194.87 1271.67 1195.41 1267.61 1197.2C1263.56 1198.99 1260.12 1201.94 1257.74 1205.68C1255.36 1209.42 1254.14 1213.78 1254.24 1218.21C1254.34 1222.64 1255.75 1226.94 1258.3 1230.57C1260.84 1234.2 1264.4 1237 1268.53 1238.6C1272.67 1240.21 1277.18 1240.55 1281.51 1239.59C1285.84 1238.63 1289.78 1236.4 1292.84 1233.2C1295.91 1230 1297.95 1225.96 1298.72 1221.59C1299.75 1215.74 1298.41 1209.71 1295 1204.85C1291.59 1199.98 1286.38 1196.67 1280.53 1195.64ZM1273.74 1234.26C1270.46 1233.69 1267.43 1232.15 1265.03 1229.86C1262.63 1227.56 1260.96 1224.6 1260.24 1221.36C1259.52 1218.11 1259.78 1214.72 1260.98 1211.62C1262.18 1208.53 1264.28 1205.85 1267 1203.95C1269.72 1202.04 1272.95 1200.98 1276.27 1200.91C1279.6 1200.83 1282.87 1201.74 1285.67 1203.53C1288.48 1205.31 1290.69 1207.89 1292.03 1210.93C1293.37 1213.98 1293.78 1217.35 1293.2 1220.62C1292.43 1225.01 1289.95 1228.92 1286.3 1231.47C1282.64 1234.03 1278.13 1235.04 1273.74 1234.26Z" fill="#DF6489"/>
<path d="M1297.71 1210.03C1305.11 1201.22 1304.37 1188.81 1297.36 1180.84C1305.49 1194.26 1294.16 1211.59 1278.22 1208.79C1262.42 1206.01 1257.44 1185.91 1269.76 1175.98C1260.49 1181.07 1255.51 1192.48 1259.47 1203.31C1248.14 1201.31 1237.77 1208.15 1234.36 1218.21C1241.92 1204.46 1262.59 1205.61 1268.14 1220.81C1273.63 1235.89 1258.71 1250.24 1243.95 1244.54C1248.53 1247.32 1253.95 1248.37 1259.24 1247.5C1264.52 1246.63 1269.32 1243.89 1272.77 1239.79C1276.7 1250.62 1287.83 1256.16 1298.23 1254.08C1282.54 1254.41 1273.2 1235.93 1283.59 1223.53C1293.9 1211.24 1313.79 1216.98 1316.23 1232.61C1316.46 1221.85 1308.9 1211.99 1297.71 1210.03Z" fill="white"/>
<path d="M1275.68 1223.23C1278.73 1223.76 1281.63 1221.73 1282.17 1218.68C1282.7 1215.63 1280.67 1212.73 1277.62 1212.19C1274.57 1211.66 1271.67 1213.69 1271.13 1216.74C1270.59 1219.79 1272.63 1222.69 1275.68 1223.23Z" fill="#DF6489"/>
<path d="M1451.08 1118.56C1446.7 1117.9 1442.22 1118.55 1438.21 1120.43C1434.19 1122.31 1430.83 1125.34 1428.54 1129.14C1426.24 1132.93 1425.13 1137.32 1425.33 1141.75C1425.54 1146.18 1427.05 1150.44 1429.68 1154.01C1432.3 1157.58 1435.93 1160.29 1440.1 1161.8C1444.27 1163.31 1448.79 1163.54 1453.1 1162.48C1457.4 1161.42 1461.29 1159.1 1464.28 1155.83C1467.26 1152.55 1469.21 1148.47 1469.88 1144.08C1470.77 1138.21 1469.29 1132.22 1465.77 1127.43C1462.24 1122.64 1456.96 1119.45 1451.08 1118.56ZM1445.2 1157.34C1441.91 1156.84 1438.85 1155.38 1436.39 1153.14C1433.94 1150.9 1432.2 1147.98 1431.4 1144.75C1430.61 1141.52 1430.78 1138.13 1431.91 1135.01C1433.04 1131.88 1435.08 1129.16 1437.75 1127.19C1440.43 1125.22 1443.63 1124.08 1446.95 1123.93C1450.27 1123.78 1453.56 1124.61 1456.41 1126.33C1459.26 1128.05 1461.53 1130.57 1462.94 1133.58C1464.35 1136.59 1464.84 1139.96 1464.34 1143.24C1463.67 1147.65 1461.28 1151.61 1457.69 1154.26C1454.1 1156.9 1449.61 1158.01 1445.2 1157.34Z" fill="#DF6489"/>
<path d="M1468.6 1132.55C1475.79 1123.56 1474.75 1111.18 1467.56 1103.37C1476 1116.6 1465.08 1134.19 1449.08 1131.76C1433.22 1129.36 1427.77 1109.38 1439.86 1099.17C1430.71 1104.47 1426 1115.99 1430.21 1126.73C1418.83 1124.99 1408.63 1132.08 1405.46 1142.22C1412.69 1128.29 1433.39 1128.95 1439.28 1144.02C1445.13 1158.96 1430.55 1173.67 1415.67 1168.31C1420.31 1170.98 1425.75 1171.91 1431.02 1170.91C1436.28 1169.92 1441.01 1167.07 1444.36 1162.89C1448.55 1173.62 1459.8 1178.9 1470.15 1176.58C1454.47 1177.27 1444.7 1159.02 1454.8 1146.38C1464.82 1133.84 1484.84 1139.12 1487.64 1154.69C1487.62 1143.93 1479.83 1134.25 1468.6 1132.55Z" fill="white"/>
<path d="M1446.88 1146.26C1449.94 1146.72 1452.8 1144.62 1453.26 1141.56C1453.72 1138.5 1451.62 1135.65 1448.56 1135.18C1445.5 1134.72 1442.65 1136.82 1442.18 1139.88C1441.72 1142.94 1443.82 1145.8 1446.88 1146.26Z" fill="#DF6489"/>
<path d="M1461.95 905.941C1457.65 904.847 1453.13 905.052 1448.95 906.529C1444.77 908.007 1441.12 910.69 1438.47 914.24C1435.81 917.791 1434.27 922.048 1434.04 926.474C1433.8 930.901 1434.89 935.297 1437.15 939.108C1439.41 942.919 1442.76 945.972 1446.76 947.883C1450.76 949.793 1455.23 950.475 1459.62 949.841C1464.01 949.207 1468.11 947.287 1471.4 944.323C1474.7 941.359 1477.04 937.484 1478.14 933.188C1479.6 927.428 1478.72 921.321 1475.68 916.211C1472.65 911.101 1467.71 907.407 1461.95 905.941ZM1452.27 943.949C1449.05 943.129 1446.14 941.372 1443.92 938.9C1441.7 936.428 1440.26 933.353 1439.78 930.062C1439.31 926.772 1439.82 923.415 1441.25 920.415C1442.68 917.415 1444.97 914.908 1447.83 913.209C1450.69 911.511 1453.99 910.699 1457.31 910.874C1460.63 911.05 1463.82 912.206 1466.48 914.197C1469.14 916.188 1471.16 918.923 1472.26 922.057C1473.37 925.192 1473.53 928.584 1472.71 931.806C1471.61 936.126 1468.84 939.833 1465 942.11C1461.17 944.387 1456.59 945.049 1452.27 943.949Z" fill="#DF6489"/>
<path d="M1478 921.586C1486.04 913.35 1486.23 900.926 1479.84 892.445C1486.93 906.442 1474.33 922.871 1458.65 918.879C1443.1 914.921 1439.65 894.505 1452.68 885.533C1443.06 889.908 1437.24 900.911 1440.37 912.008C1429.22 909.161 1418.36 915.204 1414.21 924.985C1422.78 911.84 1443.31 914.536 1447.69 930.114C1452.04 945.559 1436.09 958.753 1421.8 951.956C1426.16 955.073 1431.48 956.527 1436.82 956.056C1442.15 955.584 1447.15 953.218 1450.89 949.385C1454 960.479 1464.67 966.841 1475.2 965.549C1459.53 964.696 1451.6 945.572 1462.9 933.986C1474.11 922.499 1493.51 929.72 1494.77 945.49C1495.81 934.781 1489 924.38 1478 921.586Z" fill="white"/>
<path d="M1455.03 933.089C1458.03 933.853 1461.08 932.04 1461.85 929.042C1462.61 926.043 1460.8 922.993 1457.8 922.23C1454.8 921.466 1451.75 923.279 1450.99 926.277C1450.22 929.276 1452.04 932.326 1455.03 933.089Z" fill="#DF6489"/>
<path d="M763.843 891.914C759.801 893.733 756.388 896.709 754.038 900.467C751.687 904.225 750.504 908.596 750.637 913.026C750.771 917.457 752.215 921.749 754.787 925.358C757.36 928.968 760.945 931.734 765.089 933.306C769.233 934.879 773.751 935.187 778.07 934.191C782.39 933.196 786.317 930.943 789.356 927.715C792.394 924.488 794.408 920.432 795.141 916.061C795.875 911.689 795.296 907.199 793.477 903.156C791.038 897.736 786.546 893.506 780.988 891.398C775.431 889.289 769.263 889.475 763.843 891.914ZM779.935 927.681C776.904 929.045 773.536 929.479 770.257 928.929C766.978 928.379 763.937 926.869 761.516 924.59C759.096 922.311 757.405 919.365 756.659 916.126C755.913 912.886 756.144 909.498 757.323 906.39C758.502 903.282 760.577 900.593 763.284 898.663C765.991 896.734 769.21 895.651 772.533 895.551C775.856 895.451 779.134 896.338 781.952 898.101C784.771 899.864 787.003 902.423 788.367 905.455C790.196 909.521 790.336 914.146 788.754 918.314C787.173 922.482 784.001 925.851 779.935 927.681Z" fill="#DF6489"/>
<path d="M786.144 894.164C787.311 882.711 779.722 872.873 769.441 870.213C783.709 876.749 784.079 897.449 769.321 904.089C754.689 910.672 739.28 896.843 743.89 881.71C739.082 891.125 741.375 903.361 750.734 910.096C740.237 914.81 735.505 926.296 738.344 936.536C736.87 920.912 754.612 910.242 767.742 919.703C780.759 929.083 776.487 949.342 761.076 952.916C766.426 952.644 771.501 950.465 775.382 946.774C779.264 943.083 781.695 938.124 782.237 932.796C791.581 939.539 803.895 937.871 811.33 930.306C798.536 939.394 780.425 929.365 782.053 913.264C783.668 897.3 803.349 890.87 814.15 902.429C808.297 893.401 796.497 889.497 786.144 894.164Z" fill="white"/>
<path d="M775.337 917.461C778.159 916.192 779.418 912.875 778.148 910.053C776.878 907.231 773.561 905.973 770.739 907.242C767.917 908.512 766.659 911.829 767.929 914.651C769.198 917.473 772.515 918.731 775.337 917.461Z" fill="#DF6489"/>
<path d="M222.201 1159.04C218.029 1160.54 214.392 1163.23 211.753 1166.8C209.114 1170.36 207.59 1174.62 207.374 1179.05C207.158 1183.48 208.26 1187.87 210.54 1191.67C212.82 1195.47 216.176 1198.51 220.184 1200.4C224.191 1202.3 228.67 1202.96 233.055 1202.31C237.439 1201.66 241.532 1199.72 244.815 1196.74C248.099 1193.76 250.425 1189.88 251.501 1185.58C252.576 1181.28 252.352 1176.76 250.858 1172.58C248.853 1166.99 244.708 1162.42 239.334 1159.88C233.96 1157.34 227.797 1157.04 222.201 1159.04ZM235.427 1195.96C232.297 1197.09 228.905 1197.25 225.68 1196.45C222.455 1195.64 219.542 1193.89 217.308 1191.43C215.075 1188.97 213.622 1185.9 213.133 1182.61C212.644 1179.32 213.141 1175.96 214.562 1172.96C215.982 1169.95 218.262 1167.44 221.113 1165.73C223.963 1164.02 227.257 1163.19 230.578 1163.35C233.898 1163.51 237.096 1164.66 239.767 1166.64C242.438 1168.62 244.462 1171.34 245.583 1174.47C247.086 1178.67 246.861 1183.29 244.956 1187.32C243.052 1191.35 239.624 1194.46 235.427 1195.96Z" fill="#DF6489"/>
<path d="M244.257 1163.04C246.321 1151.72 239.531 1141.31 229.492 1137.85C243.201 1145.49 241.939 1166.15 226.704 1171.61C211.599 1177.02 197.326 1162.02 203.114 1147.3C197.58 1156.31 198.902 1168.68 207.702 1176.13C196.865 1180.01 191.244 1191.09 193.268 1201.52C193.028 1185.83 211.556 1176.59 223.899 1187.05C236.137 1197.43 230.284 1217.29 214.639 1219.64C219.993 1219.79 225.224 1218.01 229.384 1214.64C233.544 1211.27 236.359 1206.51 237.318 1201.24C246.102 1208.7 258.509 1208.01 266.517 1201.05C253.048 1209.11 235.782 1197.68 238.674 1181.76C241.541 1165.97 261.667 1161.11 271.524 1173.49C266.401 1164.02 254.945 1159.2 244.257 1163.04Z" fill="white"/>
<path d="M231.648 1185.41C234.561 1184.37 236.077 1181.16 235.034 1178.25C233.99 1175.34 230.783 1173.82 227.869 1174.87C224.956 1175.91 223.441 1179.12 224.484 1182.03C225.528 1184.94 228.735 1186.46 231.648 1185.41Z" fill="#DF6489"/>
<path d="M436.795 926.481C432.462 925.547 427.949 925.919 423.828 927.55C419.706 929.181 416.161 931.998 413.64 935.644C411.119 939.29 409.736 943.601 409.665 948.033C409.595 952.465 410.84 956.819 413.244 960.543C415.648 964.267 419.102 967.195 423.17 968.956C427.238 970.717 431.736 971.233 436.097 970.437C440.457 969.641 444.484 967.571 447.668 964.486C450.852 961.402 453.049 957.443 453.983 953.11C455.235 947.3 454.127 941.23 450.904 936.236C447.681 931.242 442.606 927.733 436.795 926.481ZM428.534 964.821C425.284 964.121 422.315 962.472 420.001 960.085C417.688 957.697 416.135 954.677 415.538 951.406C414.942 948.136 415.328 944.762 416.649 941.711C417.97 938.66 420.166 936.07 422.959 934.267C425.752 932.464 429.017 931.53 432.341 931.583C435.665 931.636 438.899 932.673 441.633 934.563C444.368 936.454 446.48 939.113 447.704 942.204C448.927 945.296 449.206 948.68 448.506 951.93C447.567 956.288 444.935 960.094 441.189 962.512C437.444 964.929 432.891 965.76 428.534 964.821Z" fill="#DF6489"/>
<path d="M453.414 941.521C461.147 932.993 460.874 920.571 454.175 912.332C461.784 926.057 449.803 942.941 433.983 939.532C418.298 936.152 414.096 915.878 426.785 906.43C417.329 911.158 411.916 922.369 415.456 933.342C404.208 930.91 393.586 937.351 389.797 947.278C397.878 933.826 418.491 935.76 423.449 951.165C428.365 966.438 412.908 980.214 398.381 973.95C402.849 976.904 408.227 978.16 413.542 977.491C418.856 976.823 423.755 974.273 427.352 970.304C430.875 981.275 441.777 987.238 452.251 985.558C436.56 985.285 427.928 966.467 438.791 954.471C449.56 942.577 469.219 949.075 471.057 964.788C471.701 954.048 464.517 943.906 453.414 941.521Z" fill="white"/>
<path d="M430.894 953.866C433.919 954.518 436.9 952.594 437.551 949.57C438.203 946.545 436.279 943.564 433.255 942.912C430.23 942.26 427.249 944.184 426.597 947.209C425.945 950.234 427.869 953.215 430.894 953.866Z" fill="#DF6489"/>
<path d="M445.199 1121.02C441.025 1122.51 437.387 1125.21 434.746 1128.77C432.104 1132.33 430.578 1136.59 430.359 1141.02C430.14 1145.44 431.239 1149.84 433.517 1153.64C435.795 1157.44 439.149 1160.48 443.155 1162.38C447.162 1164.28 451.641 1164.94 456.025 1164.29C460.41 1163.64 464.504 1161.71 467.789 1158.73C471.074 1155.76 473.403 1151.87 474.482 1147.58C475.56 1143.28 475.339 1138.75 473.847 1134.58C471.846 1128.98 467.704 1124.41 462.331 1121.87C456.958 1119.32 450.796 1119.02 445.199 1121.02ZM458.401 1157.95C455.271 1159.07 451.879 1159.24 448.654 1158.43C445.43 1157.62 442.517 1155.87 440.286 1153.41C438.054 1150.94 436.603 1147.87 436.116 1144.59C435.629 1141.3 436.128 1137.94 437.55 1134.93C438.973 1131.93 441.254 1129.41 444.106 1127.7C446.958 1126 450.252 1125.17 453.573 1125.34C456.893 1125.5 460.09 1126.64 462.76 1128.63C465.43 1130.61 467.452 1133.34 468.571 1136.47C470.072 1140.66 469.843 1145.29 467.936 1149.31C466.029 1153.34 462.599 1156.45 458.401 1157.95Z" fill="#DF6489"/>
<path d="M467.251 1125.03C469.323 1113.71 462.539 1103.3 452.502 1099.83C466.206 1107.48 464.932 1128.14 449.693 1133.59C434.585 1138.99 420.322 1123.98 426.118 1109.26C420.579 1118.27 421.893 1130.65 430.688 1138.1C419.849 1141.97 414.221 1153.04 416.238 1163.48C416.009 1147.79 434.542 1138.56 446.879 1149.03C459.111 1159.41 453.244 1179.27 437.598 1181.61C442.952 1181.76 448.184 1179.99 452.347 1176.62C456.509 1173.25 459.327 1168.5 460.289 1163.23C469.069 1170.7 481.476 1170.01 489.488 1163.06C476.014 1171.1 458.755 1159.67 461.657 1143.75C464.533 1127.96 484.663 1123.12 494.512 1135.5C489.395 1126.03 477.942 1121.2 467.251 1125.03Z" fill="white"/>
<path d="M454.629 1147.4C457.543 1146.36 459.061 1143.15 458.019 1140.24C456.977 1137.32 453.771 1135.81 450.857 1136.85C447.943 1137.89 446.425 1141.1 447.467 1144.01C448.509 1146.92 451.715 1148.44 454.629 1147.4Z" fill="#DF6489"/>
<path d="M567.736 1016.05C563.304 1016.05 558.971 1017.37 555.285 1019.83C551.6 1022.29 548.727 1025.79 547.031 1029.89C545.334 1033.98 544.891 1038.49 545.755 1042.84C546.62 1047.18 548.755 1051.18 551.889 1054.31C555.023 1057.45 559.017 1059.58 563.364 1060.44C567.711 1061.31 572.218 1060.87 576.313 1059.17C580.408 1057.47 583.908 1054.6 586.371 1050.92C588.833 1047.23 590.148 1042.9 590.148 1038.46C590.148 1032.52 587.787 1026.82 583.584 1022.62C579.381 1018.41 573.68 1016.05 567.736 1016.05ZM567.736 1055.27C564.412 1055.27 561.162 1054.29 558.398 1052.44C555.634 1050.59 553.479 1047.97 552.207 1044.9C550.935 1041.82 550.602 1038.45 551.251 1035.18C551.899 1031.92 553.5 1028.93 555.851 1026.58C558.202 1024.23 561.197 1022.63 564.457 1021.98C567.718 1021.33 571.097 1021.66 574.169 1022.93C577.24 1024.21 579.865 1026.36 581.712 1029.13C583.559 1031.89 584.545 1035.14 584.545 1038.46C584.545 1042.92 582.774 1047.2 579.622 1050.35C576.47 1053.5 572.194 1055.27 567.736 1055.27Z" fill="#DF6489"/>
<path d="M587.151 1027.25C592.914 1017.29 590.03 1005.2 581.746 998.56C592.076 1010.37 583.92 1029.4 567.736 1029.4C551.692 1029.4 543.313 1010.47 553.727 998.56C545.48 1005.17 542.55 1017.27 548.322 1027.25C536.814 1027.25 527.786 1035.78 526.174 1046.28C531.24 1031.43 551.798 1028.98 559.89 1042.99C567.912 1056.89 555.704 1073.61 540.183 1070.55C545.173 1072.49 550.695 1072.59 555.75 1070.82C560.804 1069.04 565.056 1065.52 567.736 1060.88C573.491 1070.86 585.404 1074.4 595.289 1070.55C579.893 1073.59 567.491 1057.01 575.583 1042.99C583.605 1029.1 604.192 1031.31 609.299 1046.28C607.666 1035.65 598.507 1027.25 587.151 1027.25Z" fill="white"/>
<path d="M567.736 1044.07C570.831 1044.07 573.339 1041.56 573.339 1038.46C573.339 1035.37 570.831 1032.86 567.736 1032.86C564.642 1032.86 562.133 1035.37 562.133 1038.46C562.133 1041.56 564.642 1044.07 567.736 1044.07Z" fill="#DF6489"/>
<path d="M584.264 859.769C579.876 859.141 575.4 859.827 571.403 861.742C567.405 863.657 564.065 866.714 561.805 870.527C559.545 874.341 558.466 878.738 558.706 883.164C558.945 887.591 560.492 891.846 563.15 895.394C565.808 898.941 569.458 901.62 573.639 903.093C577.819 904.565 582.343 904.765 586.637 903.667C590.932 902.569 594.804 900.222 597.765 896.923C600.725 893.624 602.641 889.521 603.27 885.133C604.113 879.249 602.584 873.272 599.02 868.515C595.455 863.758 590.147 860.612 584.264 859.769ZM578.7 898.593C575.41 898.121 572.333 896.685 569.858 894.464C567.384 892.244 565.624 889.34 564.8 886.119C563.976 882.898 564.126 879.505 565.231 876.37C566.335 873.234 568.345 870.496 571.005 868.503C573.666 866.509 576.857 865.35 580.177 865.17C583.497 864.991 586.795 865.799 589.655 867.494C592.515 869.189 594.808 871.694 596.244 874.693C597.68 877.691 598.195 881.048 597.723 884.338C597.091 888.751 594.732 892.732 591.164 895.406C587.597 898.079 583.113 899.225 578.7 898.593Z" fill="#DF6489"/>
<path d="M601.893 873.612C609.011 864.565 607.871 852.192 600.613 844.441C609.162 857.601 598.39 875.281 582.37 872.985C566.487 870.709 560.879 850.779 572.877 840.467C563.775 845.844 559.158 857.405 563.456 868.105C552.066 866.465 541.919 873.631 538.833 883.799C545.955 869.815 566.653 870.304 572.675 885.326C578.645 900.218 564.188 915.04 549.259 909.806C553.923 912.441 559.375 913.318 564.63 912.28C569.885 911.242 574.594 908.356 577.905 904.145C582.185 914.844 593.477 920.03 603.808 917.623C588.136 918.447 578.212 900.278 588.209 887.552C598.122 874.935 618.186 880.044 621.118 895.59C621.01 884.831 613.135 875.215 601.893 873.612Z" fill="white"/>
<path d="M580.29 887.5C583.353 887.939 586.192 885.812 586.631 882.749C587.07 879.686 584.942 876.847 581.879 876.408C578.816 875.969 575.977 878.096 575.538 881.16C575.099 884.223 577.227 887.062 580.29 887.5Z" fill="#DF6489"/>
<path d="M603.11 1199.23C598.948 1200.75 595.331 1203.47 592.718 1207.05C590.104 1210.63 588.611 1214.91 588.427 1219.34C588.242 1223.77 589.376 1228.15 591.683 1231.94C593.99 1235.72 597.368 1238.74 601.389 1240.6C605.411 1242.47 609.894 1243.1 614.274 1242.41C618.654 1241.73 622.732 1239.76 625.994 1236.76C629.256 1233.76 631.555 1229.86 632.599 1225.55C633.644 1221.24 633.388 1216.72 631.863 1212.56C629.818 1206.98 625.64 1202.44 620.248 1199.94C614.856 1197.44 608.691 1197.18 603.11 1199.23ZM616.6 1236.05C613.479 1237.2 610.088 1237.39 606.857 1236.6C603.627 1235.82 600.701 1234.1 598.45 1231.65C596.199 1229.2 594.724 1226.15 594.211 1222.86C593.699 1219.58 594.172 1216.21 595.57 1213.2C596.969 1210.18 599.231 1207.65 602.069 1205.92C604.908 1204.19 608.196 1203.34 611.517 1203.48C614.839 1203.61 618.045 1204.73 620.73 1206.69C623.415 1208.65 625.458 1211.37 626.602 1214.49C628.135 1218.67 627.943 1223.3 626.067 1227.34C624.192 1231.39 620.786 1234.52 616.6 1236.05Z" fill="#DF6489"/>
<path d="M625.193 1203.07C627.177 1191.73 620.312 1181.37 610.248 1177.98C624.011 1185.52 622.898 1206.19 607.702 1211.76C592.637 1217.28 578.257 1202.38 583.939 1187.62C578.47 1196.67 579.88 1209.03 588.734 1216.42C577.925 1220.37 572.383 1231.49 574.482 1241.91C574.13 1226.22 592.591 1216.85 605.009 1227.22C617.321 1237.51 611.611 1257.41 595.983 1259.87C601.338 1259.98 606.556 1258.17 610.692 1254.77C614.828 1251.37 617.608 1246.6 618.53 1241.32C627.367 1248.71 639.769 1247.93 647.727 1240.92C634.315 1249.07 616.968 1237.77 619.745 1221.82C622.499 1206.02 642.589 1201.01 652.535 1213.32C647.344 1203.89 635.854 1199.15 625.193 1203.07Z" fill="white"/>
<path d="M612.746 1225.53C615.652 1224.47 617.144 1221.25 616.08 1218.34C615.016 1215.44 611.797 1213.94 608.892 1215.01C605.986 1216.07 604.494 1219.29 605.558 1222.2C606.622 1225.1 609.841 1226.59 612.746 1225.53Z" fill="#DF6489"/>
<path d="M744.553 1069.26C740.168 1068.61 735.689 1069.28 731.684 1071.17C727.678 1073.07 724.325 1076.12 722.049 1079.92C719.773 1083.72 718.677 1088.12 718.897 1092.54C719.118 1096.97 720.647 1101.23 723.29 1104.79C725.933 1108.35 729.572 1111.04 733.747 1112.53C737.921 1114.02 742.444 1114.24 746.743 1113.16C751.042 1112.08 754.924 1109.75 757.898 1106.47C760.873 1103.18 762.806 1099.08 763.453 1094.7C764.32 1088.82 762.817 1082.83 759.272 1078.06C755.728 1073.29 750.433 1070.12 744.553 1069.26ZM738.827 1108.06C735.539 1107.57 732.467 1106.12 730.003 1103.89C727.538 1101.66 725.79 1098.75 724.979 1095.52C724.169 1092.3 724.333 1088.91 725.451 1085.78C726.568 1082.65 728.589 1079.92 731.258 1077.93C733.927 1075.95 737.123 1074.8 740.444 1074.64C743.764 1074.47 747.059 1075.3 749.912 1077C752.764 1078.71 755.047 1081.22 756.471 1084.23C757.894 1087.23 758.395 1090.59 757.91 1093.88C757.259 1098.29 754.883 1102.26 751.304 1104.92C747.726 1107.58 743.238 1108.71 738.827 1108.06Z" fill="#DF6489"/>
<path d="M762.124 1083.17C769.28 1074.15 768.192 1061.78 760.966 1054C769.461 1067.19 758.614 1084.83 742.604 1082.46C726.731 1080.12 721.207 1060.17 733.247 1049.91C724.123 1055.24 719.458 1066.79 723.711 1077.5C712.328 1075.82 702.151 1082.94 699.022 1093.1C706.203 1079.14 726.898 1079.72 732.857 1094.76C738.765 1109.68 724.247 1124.44 709.34 1119.15C713.992 1121.8 719.441 1122.7 724.7 1121.68C729.959 1120.67 734.68 1117.8 738.009 1113.6C742.244 1124.32 753.514 1129.55 763.855 1127.19C748.18 1127.95 738.332 1109.74 748.383 1097.05C758.347 1084.48 778.39 1089.67 781.257 1105.23C781.194 1094.47 773.36 1084.82 762.124 1083.17Z" fill="white"/>
<path d="M740.463 1096.97C743.524 1097.42 746.372 1095.31 746.824 1092.24C747.276 1089.18 745.16 1086.34 742.099 1085.88C739.038 1085.43 736.19 1087.55 735.738 1090.61C735.287 1093.67 737.402 1096.52 740.463 1096.97Z" fill="#DF6489"/>
</svg>
