<svg width="1214" height="1213" viewBox="0 0 1214 1213" fill="none" xmlns="http://www.w3.org/2000/svg">
<path d="M551.831 146.934C548.129 166.354 596.842 93.7444 660.162 86.511C723.483 79.2776 538.969 153.083 627.045 162.169C715.121 171.255 538.082 125.495 585.849 78.4311C633.615 31.3668 674.709 206.047 585.791 129.521C496.873 52.9959 572.859 206.174 597.719 129.506C622.58 52.8386 555.532 127.515 551.831 146.934Z" stroke="#524608" stroke-width="4.52"/>
<path d="M606.117 3.02187C606.117 3.02187 509.482 -0.803923 509.482 92.7416C509.482 186.287 562.192 160.079 562.192 186.287V274.094C562.192 305.85 606.117 305.85 606.117 305.85C606.117 305.85 650.267 305.85 650.267 274.094V186.287C650.267 165.818 707.482 182.461 707.482 92.7416C707.482 3.02188 606.117 3.02187 606.117 3.02187Z" fill="#F1DC69" fill-opacity="0.53" stroke="#F1DC69" stroke-width="4.52"/>
<path d="M152.976 514.511C170.301 524.032 116.299 455.266 128.987 392.81C141.674 330.353 154.849 528.644 190.707 447.686C226.565 366.729 128.338 520.962 98.3378 460.99C68.3377 401.017 247.167 415.914 146.91 476.832C46.6527 537.75 215.814 512.819 150.581 465.483C85.3486 418.147 135.651 504.99 152.976 514.511Z" stroke="#524608" stroke-width="4.52"/>
<path d="M32.8826 418.411C32.8826 418.411 -0.617763 509.134 88.3494 538.041C177.316 566.948 168.679 508.719 193.605 516.818L277.114 543.952C307.316 553.765 320.889 511.99 320.889 511.99C320.889 511.99 334.532 470.001 304.331 460.187L220.821 433.054C201.354 426.728 234.863 377.457 149.535 349.732C64.2062 322.007 32.8826 418.411 32.8826 418.411Z" fill="#F1DC69" fill-opacity="0.53" stroke="#F1DC69" stroke-width="4.52"/>
<path d="M1060.24 510.511C1042.91 520.032 1096.91 451.266 1084.23 388.81C1071.54 326.353 1058.36 524.644 1022.51 443.686C986.647 362.729 1084.87 516.962 1114.88 456.99C1144.88 397.017 966.046 411.914 1066.3 472.832C1166.56 533.75 997.399 508.819 1062.63 461.483C1127.86 414.147 1077.56 500.99 1060.24 510.511Z" stroke="#524608" stroke-width="4.52"/>
<path d="M1180.33 414.411C1180.33 414.411 1213.83 505.134 1124.86 534.041C1035.9 562.948 1044.53 504.719 1019.61 512.818L936.099 539.952C905.897 549.765 892.324 507.99 892.324 507.99C892.324 507.99 878.68 466.001 908.882 456.187L992.391 429.054C1011.86 422.728 978.35 373.457 1063.68 345.732C1149.01 318.007 1180.33 414.411 1180.33 414.411Z" fill="#F1DC69" fill-opacity="0.53" stroke="#F1DC69" stroke-width="4.52"/>
<path d="M926.333 268.935C917.913 286.821 921.182 199.446 874.207 156.376C827.231 113.305 933.124 281.469 856.529 237.05C779.933 192.631 950.057 259.672 939.077 193.52C928.097 127.367 792.177 244.532 909.094 234.886C1026.01 225.24 874.501 304.501 899.452 227.863C924.404 151.225 934.752 251.049 926.333 268.935Z" stroke="#524608" stroke-width="4.52"/>
<path d="M967.004 120.599C967.004 120.599 1047.43 174.304 992.447 249.984C937.463 325.664 910.224 273.479 894.82 294.682L843.208 365.719C824.542 391.41 789.006 365.592 789.006 365.592C789.006 365.592 753.288 339.641 771.954 313.95L823.565 242.913C835.597 226.353 779.526 206.187 832.262 133.603C884.998 61.0178 967.004 120.599 967.004 120.599Z" fill="#F1DC69" fill-opacity="0.53" stroke="#F1DC69" stroke-width="4.52"/>
<path d="M289.864 268.935C298.283 286.821 295.014 199.446 341.99 156.376C388.965 113.305 283.072 281.469 359.667 237.05C436.263 192.631 266.139 259.672 277.119 193.52C288.099 127.367 424.019 244.532 307.103 234.886C190.186 225.24 341.695 304.501 316.744 227.863C291.793 151.225 281.444 251.049 289.864 268.935Z" stroke="#524608" stroke-width="4.52"/>
<path d="M249.192 120.599C249.192 120.599 168.764 174.304 223.749 249.984C278.734 325.664 305.972 273.479 321.377 294.682L372.988 365.719C391.654 391.41 427.19 365.592 427.19 365.592C427.19 365.592 462.908 339.641 444.243 313.95L392.631 242.913C380.6 226.353 436.67 206.187 383.934 133.603C331.198 61.0178 249.192 120.599 249.192 120.599Z" fill="#F1DC69" fill-opacity="0.53" stroke="#F1DC69" stroke-width="4.52"/>
<path d="M551.349 1065.92C547.648 1046.5 596.36 1119.11 659.681 1126.34C723.001 1133.57 538.487 1059.77 626.563 1050.68C714.639 1041.6 537.6 1087.35 585.367 1134.42C633.133 1181.48 674.227 1006.8 585.309 1083.33C496.391 1159.85 572.377 1006.68 597.237 1083.34C622.098 1160.01 555.05 1085.33 551.349 1065.92Z" stroke="#524608" stroke-width="4.52"/>
<path d="M605.635 1209.83C605.635 1209.83 509 1213.65 509 1120.11C509 1026.56 561.71 1052.77 561.71 1026.56V938.756C561.71 907 605.635 907 605.635 907C605.635 907 649.785 907 649.785 938.756V1026.56C649.785 1047.03 707 1030.39 707 1120.11C707 1209.83 605.635 1209.83 605.635 1209.83Z" fill="#F1DC69" fill-opacity="0.53" stroke="#F1DC69" stroke-width="4.52"/>
<path d="M154.976 706.384C172.301 696.863 118.299 765.629 130.987 828.085C143.674 890.542 156.849 692.251 192.707 773.209C228.565 854.167 130.338 699.933 100.338 759.905C70.3377 819.878 249.167 804.981 148.91 744.063C48.6527 683.145 217.814 708.076 152.581 755.412C87.3486 802.748 137.651 715.905 154.976 706.384Z" stroke="#524608" stroke-width="4.52"/>
<path d="M34.8826 802.484C34.8826 802.484 1.38224 711.761 90.3494 682.854C179.316 653.947 170.679 712.176 195.605 704.077L279.114 676.943C309.316 667.13 322.889 708.905 322.889 708.905C322.889 708.905 336.532 750.894 306.331 760.708L222.821 787.841C203.354 794.167 236.863 843.438 151.535 871.163C66.2062 898.888 34.8826 802.484 34.8826 802.484Z" fill="#F1DC69" fill-opacity="0.53" stroke="#F1DC69" stroke-width="4.52"/>
<path d="M1057.01 705.326C1039.68 695.805 1093.69 764.571 1081 827.027C1068.31 889.484 1055.14 691.194 1019.28 772.151C983.419 853.109 1081.65 698.875 1111.65 758.848C1141.65 818.82 962.818 803.923 1063.08 743.005C1163.33 682.087 994.171 707.019 1059.4 754.354C1124.64 801.69 1074.33 714.847 1057.01 705.326Z" stroke="#524608" stroke-width="4.52"/>
<path d="M1177.1 801.426C1177.1 801.426 1210.6 710.704 1121.64 681.796C1032.67 652.889 1041.31 711.118 1016.38 703.019L932.871 675.885C902.669 666.072 889.096 707.847 889.096 707.847C889.096 707.847 875.452 749.837 905.654 759.65L989.163 786.784C1008.63 793.109 975.122 842.381 1060.45 870.106C1145.78 897.83 1177.1 801.426 1177.1 801.426Z" fill="#F1DC69" fill-opacity="0.53" stroke="#F1DC69" stroke-width="4.52"/>
<path d="M926.333 944.457C917.913 926.571 921.182 1013.95 874.207 1057.02C827.231 1100.09 933.124 931.923 856.529 976.342C779.933 1020.76 950.057 953.721 939.077 1019.87C928.097 1086.03 792.177 968.86 909.094 978.506C1026.01 988.152 874.501 908.891 899.452 985.53C924.404 1062.17 934.752 962.343 926.333 944.457Z" stroke="#524608" stroke-width="4.52"/>
<path d="M967.004 1092.79C967.004 1092.79 1047.43 1039.09 992.447 963.408C937.463 887.728 910.224 939.913 894.82 918.71L843.208 847.673C824.542 821.982 789.006 847.8 789.006 847.8C789.006 847.8 753.288 873.751 771.954 899.442L823.565 970.48C835.597 987.039 779.526 1007.2 832.262 1079.79C884.998 1152.37 967.004 1092.79 967.004 1092.79Z" fill="#F1DC69" fill-opacity="0.53" stroke="#F1DC69" stroke-width="4.52"/>
<path d="M280.927 938.281C289.815 920.623 284.246 1007.88 330.07 1052.17C375.895 1096.47 274.468 925.572 349.867 971.994C425.266 1018.42 256.967 946.916 266.201 1013.33C275.434 1079.75 414.393 966.21 297.263 972.772C180.134 979.335 333.678 904.093 306.717 980.047C279.755 1056 272.039 955.939 280.927 938.281Z" stroke="#524608" stroke-width="4.52"/>
<path d="M239.521 1087.93C239.521 1087.93 159.093 1034.23 214.077 958.546C269.062 882.866 296.301 935.051 311.705 913.848L363.317 842.811C381.983 817.12 417.519 842.938 417.519 842.938C417.519 842.938 453.237 868.889 434.571 894.58L382.96 965.617C370.928 982.177 426.999 1002.34 374.263 1074.93C321.527 1147.51 239.521 1087.93 239.521 1087.93Z" fill="#F1DC69" fill-opacity="0.53" stroke="#F1DC69" stroke-width="4.52"/>
</svg>
